<svg width="1440" height="1024" viewBox="0 0 1440 1024" fill="none" xmlns="http://www.w3.org/2000/svg">
<rect width="1440" height="1024" fill="#0F172A"/>
<g clip-path="url(#clip0_3_4)">
<path d="M718.639 279.198C723.416 279.198 727.288 275.336 727.288 270.573C727.288 265.809 723.416 261.947 718.639 261.947C713.862 261.947 709.99 265.809 709.99 270.573C709.99 275.336 713.862 279.198 718.639 279.198Z" fill="white"/>
<path d="M718.58 230H718.58C717.696 230 716.979 230.715 716.979 231.597V239.052C716.979 239.934 717.696 240.649 718.58 240.649H718.58C719.465 240.649 720.182 239.934 720.182 239.052V231.597C720.182 230.715 719.465 230 718.58 230Z" fill="white"/>
<path d="M703.541 232.814L703.541 232.814C702.739 233.187 702.392 234.137 702.766 234.937L705.925 241.693C706.299 242.492 707.252 242.838 708.053 242.465L708.053 242.465C708.855 242.092 709.202 241.142 708.828 240.342L705.669 233.587C705.295 232.787 704.342 232.441 703.541 232.814Z" fill="white"/>
<path d="M729.108 242.465L729.108 242.465C728.306 242.092 727.959 241.142 728.333 240.342L731.492 233.587C731.866 232.787 732.819 232.441 733.62 232.814L733.62 232.814C734.422 233.187 734.769 234.137 734.395 234.937L731.236 241.693C730.862 242.492 729.91 242.838 729.108 242.465Z" fill="white"/>
<path fill-rule="evenodd" clip-rule="evenodd" d="M688.903 239.797C681.085 247.602 676.25 258.38 676.25 270.284C676.25 294.106 695.614 313.418 719.5 313.418C743.386 313.418 762.75 294.106 762.75 270.284C762.75 258.394 757.927 247.628 750.125 239.826L737.892 252.026C742.563 256.706 745.45 263.159 745.45 270.284C745.45 284.577 733.832 296.164 719.5 296.164C705.168 296.164 693.55 284.577 693.55 270.284C693.55 263.144 696.449 256.68 701.136 251.997L688.903 239.797Z" fill="white"/>
<path fill-rule="evenodd" clip-rule="evenodd" d="M700.886 288.317L688.653 300.518C696.499 308.48 707.421 313.418 719.5 313.418C731.175 313.418 741.77 308.805 749.551 301.306L737.315 289.102C732.667 293.48 726.398 296.164 719.5 296.164C712.199 296.164 705.602 293.157 700.886 288.317Z" fill="white"/>
</g>
<path d="M672.913 369.497H678.66L683.115 354.501H683.309L687.764 369.497H693.523L700.707 344.769H694.115L690.372 361.009H690.167L685.904 344.769H680.52L676.257 360.972H676.052L672.321 344.769H665.717L672.913 369.497ZM705.462 369.81C708.046 369.81 709.833 368.808 710.847 366.913H710.992V369.497H716.546V356.891C716.546 352.967 713.057 350.71 708.336 350.71C703.349 350.71 700.524 353.221 700.053 356.602L705.499 356.795C705.752 355.612 706.73 354.887 708.288 354.887C709.736 354.887 710.654 355.587 710.654 356.831V356.891C710.654 358.026 709.423 358.268 706.259 358.546C702.504 358.859 699.365 360.248 699.365 364.353C699.365 368.024 701.913 369.81 705.462 369.81ZM707.285 365.947C705.921 365.947 704.955 365.295 704.955 364.063C704.955 362.868 705.897 362.144 707.575 361.89C708.674 361.733 710.026 361.492 710.69 361.141V362.904C710.69 364.715 709.169 365.947 707.285 365.947ZM719.306 369.497H725.21V359.427C725.21 357.217 726.78 355.732 728.893 355.732C729.593 355.732 730.644 355.853 731.211 356.046V350.915C730.716 350.782 730.1 350.698 729.557 350.698C727.529 350.698 725.911 351.881 725.234 354.332H725.041V350.951H719.306V369.497ZM738.671 358.92C738.683 356.807 739.914 355.551 741.786 355.551C743.657 355.551 744.768 356.783 744.756 358.835V369.497H750.66V357.676C750.672 353.499 748.125 350.71 744.225 350.71C741.484 350.71 739.407 352.098 738.586 354.356H738.381V350.951H732.767V369.497H738.671V358.92ZM753.466 369.497H759.37V350.951H753.466V369.497ZM756.424 348.79C758.102 348.79 759.454 347.522 759.454 345.965C759.454 344.407 758.102 343.151 756.424 343.151C754.757 343.151 753.393 344.407 753.393 345.965C753.393 347.522 754.757 348.79 756.424 348.79ZM772.746 350.951H769.401V346.508H763.497V350.951H761.046V355.298H763.497V364.317C763.461 368.072 765.9 369.955 770.065 369.762C771.49 369.69 772.516 369.4 773.084 369.231L772.19 364.969C771.937 365.029 771.345 365.15 770.898 365.15C769.945 365.15 769.401 364.764 769.401 363.665V355.298H772.746V350.951Z" fill="white"/>
<path d="M618.447 416.497H624.671V415.403H619.68V411.943H624.274V410.849H619.68V407.408H624.592V406.315H618.447V416.497ZM627.828 411.903C627.828 410.57 628.653 409.815 629.777 409.815C630.866 409.815 631.527 410.526 631.527 411.724V416.497H632.7V411.644C632.7 409.695 631.661 408.761 630.115 408.761C628.962 408.761 628.246 409.278 627.888 410.053H627.788V408.86H626.655V416.497H627.828V411.903ZM640.815 408.86H639.543L637.435 414.945H637.355L635.247 408.86H633.974L636.798 416.497H637.991L640.815 408.86ZM645.193 416.656C647.261 416.656 648.653 415.085 648.653 412.718C648.653 410.332 647.261 408.761 645.193 408.761C643.125 408.761 641.733 410.332 641.733 412.718C641.733 415.085 643.125 416.656 645.193 416.656ZM645.193 415.602C643.622 415.602 642.906 414.249 642.906 412.718C642.906 411.187 643.622 409.815 645.193 409.815C646.764 409.815 647.48 411.187 647.48 412.718C647.48 414.249 646.764 415.602 645.193 415.602ZM650.926 419.36C651.985 419.36 652.731 418.798 653.173 417.61L656.425 408.88L655.142 408.86L653.034 414.945H652.955L650.847 408.86H649.574L652.398 416.536L652.179 417.133C651.752 418.296 651.225 418.406 650.369 418.187L650.071 419.221C650.19 419.281 650.528 419.36 650.926 419.36ZM660.905 416.656C662.457 416.656 663.59 415.88 663.948 414.727L662.815 414.408C662.516 415.204 661.825 415.602 660.905 415.602C659.528 415.602 658.579 414.712 658.524 413.076H664.067V412.579C664.067 409.735 662.377 408.761 660.786 408.761C658.718 408.761 657.346 410.391 657.346 412.738C657.346 415.085 658.698 416.656 660.905 416.656ZM658.524 412.062C658.604 410.874 659.444 409.815 660.786 409.815C662.059 409.815 662.874 410.769 662.874 412.062H658.524ZM665.633 416.497H671.619V415.403H667.264V415.323L671.48 409.795V408.86H665.773V409.954H669.969V410.033L665.633 415.602V416.497ZM683.608 408.86H682.335L680.228 414.945H680.148L678.04 408.86H676.767L679.591 416.497H680.784L683.608 408.86ZM687.986 416.656C690.054 416.656 691.446 415.085 691.446 412.718C691.446 410.332 690.054 408.761 687.986 408.761C685.918 408.761 684.525 410.332 684.525 412.718C684.525 415.085 685.918 416.656 687.986 416.656ZM687.986 415.602C686.415 415.602 685.699 414.249 685.699 412.718C685.699 411.187 686.415 409.815 687.986 409.815C689.557 409.815 690.273 411.187 690.273 412.718C690.273 414.249 689.557 415.602 687.986 415.602ZM698.646 410.57C698.278 409.487 697.453 408.761 695.941 408.761C694.331 408.761 693.138 409.675 693.138 410.968C693.138 412.022 693.764 412.728 695.166 413.056L696.439 413.354C697.209 413.533 697.572 413.901 697.572 414.428C697.572 415.085 696.876 415.622 695.782 415.622C694.823 415.622 694.221 415.209 694.013 414.389L692.899 414.667C693.172 415.965 694.241 416.656 695.802 416.656C697.577 416.656 698.785 415.686 698.785 414.369C698.785 413.305 698.119 412.634 696.757 412.3L695.623 412.022C694.718 411.798 694.311 411.495 694.311 410.908C694.311 410.252 695.007 409.775 695.941 409.775C696.966 409.775 697.388 410.342 697.592 410.869L698.646 410.57ZM706.736 416.675C708.068 416.675 708.764 415.96 709.003 415.462H709.063V416.497H710.236V411.465C710.236 409.039 708.387 408.761 707.412 408.761C706.259 408.761 704.946 409.158 704.35 410.55L705.463 410.948C705.722 410.391 706.333 409.795 707.452 409.795C708.531 409.795 709.063 410.367 709.063 411.346V411.386C709.063 411.952 708.486 411.903 707.094 412.082C705.677 412.266 704.131 412.579 704.131 414.329C704.131 415.82 705.284 416.675 706.736 416.675ZM706.915 415.622C705.98 415.622 705.304 415.204 705.304 414.389C705.304 413.494 706.12 413.215 707.034 413.096C707.532 413.036 708.864 412.897 709.063 412.658V413.732C709.063 414.687 708.307 415.622 706.915 415.622ZM713.551 406.315H712.378V416.497H713.551V406.315ZM718.902 416.656C720.453 416.656 721.586 415.88 721.944 414.727L720.811 414.408C720.512 415.204 719.821 415.602 718.902 415.602C717.524 415.602 716.575 414.712 716.52 413.076H722.063V412.579C722.063 409.735 720.373 408.761 718.782 408.761C716.714 408.761 715.342 410.391 715.342 412.738C715.342 415.085 716.694 416.656 718.902 416.656ZM716.52 412.062C716.6 410.874 717.44 409.815 718.782 409.815C720.055 409.815 720.87 410.769 720.87 412.062H716.52ZM723.848 416.497H725.022V411.664C725.022 410.63 725.837 409.874 726.951 409.874C727.264 409.874 727.587 409.934 727.666 409.954V408.761C727.532 408.751 727.224 408.741 727.05 408.741C726.135 408.741 725.34 409.258 725.061 410.014H724.982V408.86H723.848V416.497ZM732.857 408.86H731.226V407.031H730.053V408.86H728.899V409.854H730.053V414.627C730.053 415.96 731.127 416.596 732.121 416.596C732.559 416.596 732.837 416.516 732.996 416.457L732.757 415.403C732.658 415.423 732.499 415.462 732.24 415.462C731.723 415.462 731.226 415.303 731.226 414.309V409.854H732.857V408.86ZM737.741 416.656C739.293 416.656 740.426 415.88 740.784 414.727L739.65 414.408C739.352 415.204 738.661 415.602 737.741 415.602C736.364 415.602 735.415 414.712 735.36 413.076H740.903V412.579C740.903 409.735 739.213 408.761 737.622 408.761C735.554 408.761 734.182 410.391 734.182 412.738C734.182 415.085 735.534 416.656 737.741 416.656ZM735.36 412.062C735.44 410.874 736.28 409.815 737.622 409.815C738.895 409.815 739.71 410.769 739.71 412.062H735.36ZM748.097 410.57C747.729 409.487 746.904 408.761 745.393 408.761C743.782 408.761 742.589 409.675 742.589 410.968C742.589 412.022 743.215 412.728 744.617 413.056L745.89 413.354C746.66 413.533 747.023 413.901 747.023 414.428C747.023 415.085 746.327 415.622 745.234 415.622C744.274 415.622 743.672 415.209 743.464 414.389L742.35 414.667C742.623 415.965 743.692 416.656 745.253 416.656C747.028 416.656 748.236 415.686 748.236 414.369C748.236 413.305 747.57 412.634 746.208 412.3L745.074 412.022C744.17 411.798 743.762 411.495 743.762 410.908C743.762 410.252 744.458 409.775 745.393 409.775C746.417 409.775 746.839 410.342 747.043 410.869L748.097 410.57ZM757.341 408.86H755.63V408.085C755.63 407.329 755.949 406.931 756.724 406.931C757.062 406.931 757.261 407.011 757.38 407.05L757.718 406.036C757.54 405.957 757.182 405.837 756.605 405.837C755.511 405.837 754.457 406.494 754.457 407.806V408.86H753.224V409.854H754.457V416.497H755.63V409.854H757.341V408.86ZM761.013 416.675C762.346 416.675 763.042 415.96 763.28 415.462H763.34V416.497H764.513V411.465C764.513 409.039 762.664 408.761 761.69 408.761C760.536 408.761 759.224 409.158 758.627 410.55L759.741 410.948C759.999 410.391 760.611 409.795 761.729 409.795C762.808 409.795 763.34 410.367 763.34 411.346V411.386C763.34 411.952 762.763 411.903 761.371 412.082C759.954 412.266 758.408 412.579 758.408 414.329C758.408 415.82 759.562 416.675 761.013 416.675ZM761.192 415.622C760.258 415.622 759.582 415.204 759.582 414.389C759.582 413.494 760.397 413.215 761.312 413.096C761.809 413.036 763.141 412.897 763.34 412.658V413.732C763.34 414.687 762.584 415.622 761.192 415.622ZM769.757 416.656C771.448 416.656 772.561 415.622 772.76 414.269H771.587C771.368 415.104 770.672 415.602 769.757 415.602C768.365 415.602 767.47 414.448 767.47 412.678C767.47 410.948 768.385 409.815 769.757 409.815C770.791 409.815 771.408 410.451 771.587 411.147H772.76C772.561 409.715 771.348 408.761 769.737 408.761C767.669 408.761 766.297 410.391 766.297 412.718C766.297 415.005 767.609 416.656 769.757 416.656ZM774.475 416.497H775.649V408.86H774.475V416.497ZM775.072 407.587C775.529 407.587 775.907 407.229 775.907 406.792C775.907 406.354 775.529 405.997 775.072 405.997C774.614 405.997 774.237 406.354 774.237 406.792C774.237 407.229 774.614 407.587 775.072 407.587ZM778.971 406.315H777.797V416.497H778.971V406.315ZM784.321 416.656C785.873 416.656 787.006 415.88 787.364 414.727L786.231 414.408C785.932 415.204 785.241 415.602 784.321 415.602C782.944 415.602 781.995 414.712 781.94 413.076H787.483V412.579C787.483 409.735 785.793 408.761 784.202 408.761C782.134 408.761 780.762 410.391 780.762 412.738C780.762 415.085 782.114 416.656 784.321 416.656ZM781.94 412.062C782.02 410.874 782.86 409.815 784.202 409.815C785.475 409.815 786.29 410.769 786.29 412.062H781.94ZM789.268 416.497H790.441V411.724C790.441 410.605 791.257 409.815 792.172 409.815C793.062 409.815 793.683 410.396 793.683 411.266V416.497H794.876V411.525C794.876 410.541 795.493 409.815 796.566 409.815C797.402 409.815 798.118 410.257 798.118 411.386V416.497H799.291V411.386C799.291 409.591 798.326 408.761 796.964 408.761C795.87 408.761 795.07 409.263 794.677 410.053H794.598C794.22 409.238 793.554 408.761 792.549 408.761C791.555 408.761 790.819 409.238 790.501 410.053H790.402V408.86H789.268V416.497ZM804.638 416.656C806.189 416.656 807.323 415.88 807.68 414.727L806.547 414.408C806.249 415.204 805.558 415.602 804.638 415.602C803.261 415.602 802.311 414.712 802.256 413.076H807.8V412.579C807.8 409.735 806.109 408.761 804.519 408.761C802.45 408.761 801.078 410.391 801.078 412.738C801.078 415.085 802.43 416.656 804.638 416.656ZM802.256 412.062C802.336 410.874 803.176 409.815 804.519 409.815C805.791 409.815 806.607 410.769 806.607 412.062H802.256ZM810.758 411.903C810.758 410.57 811.583 409.815 812.707 409.815C813.796 409.815 814.457 410.526 814.457 411.724V416.497H815.63V411.644C815.63 409.695 814.591 408.761 813.045 408.761C811.891 408.761 811.176 409.278 810.818 410.053H810.718V408.86H809.585V416.497H810.758V411.903ZM821.095 408.86H819.464V407.031H818.291V408.86H817.138V409.854H818.291V414.627C818.291 415.96 819.365 416.596 820.359 416.596C820.797 416.596 821.075 416.516 821.234 416.457L820.996 415.403C820.896 415.423 820.737 415.462 820.479 415.462C819.962 415.462 819.464 415.303 819.464 414.309V409.854H821.095V408.86Z" fill="#94A3B8"/>
<rect x="546" y="511" width="343" height="50" rx="6" fill="#1E293B"/>
<path d="M604.114 531.273H603.057V540H604.114V531.273ZM608.568 540.136C609.829 540.136 610.255 539.352 610.477 538.994H610.596V540H611.568V531.273H610.562V534.494H610.477C610.255 534.153 609.863 533.369 608.585 533.369C606.931 533.369 605.789 534.682 605.789 536.744C605.789 538.824 606.931 540.136 608.568 540.136ZM608.704 539.233C607.443 539.233 606.795 538.125 606.795 536.727C606.795 535.347 607.426 534.273 608.704 534.273C609.931 534.273 610.579 535.261 610.579 536.727C610.579 538.21 609.914 539.233 608.704 539.233ZM616.294 540.136C617.623 540.136 618.595 539.472 618.902 538.483L617.93 538.21C617.674 538.892 617.082 539.233 616.294 539.233C615.113 539.233 614.299 538.47 614.252 537.068H619.004V536.642C619.004 534.205 617.555 533.369 616.191 533.369C614.419 533.369 613.243 534.767 613.243 536.778C613.243 538.79 614.402 540.136 616.294 540.136ZM614.252 536.199C614.321 535.18 615.041 534.273 616.191 534.273C617.282 534.273 617.981 535.091 617.981 536.199H614.252ZM621.539 536.062C621.539 534.92 622.247 534.273 623.21 534.273C624.143 534.273 624.71 534.882 624.71 535.909V540H625.716V535.841C625.716 534.17 624.825 533.369 623.5 533.369C622.511 533.369 621.897 533.812 621.591 534.477H621.505V533.455H620.534V540H621.539V536.062ZM630.4 533.455H629.002V531.886H627.996V533.455H627.008V534.307H627.996V538.398C627.996 539.54 628.917 540.085 629.769 540.085C630.144 540.085 630.383 540.017 630.519 539.966L630.315 539.062C630.229 539.08 630.093 539.114 629.871 539.114C629.428 539.114 629.002 538.977 629.002 538.125V534.307H630.4V533.455ZM631.913 540H632.918V533.455H631.913V540ZM632.424 532.364C632.816 532.364 633.14 532.057 633.14 531.682C633.14 531.307 632.816 531 632.424 531C632.032 531 631.708 531.307 631.708 531.682C631.708 532.057 632.032 532.364 632.424 532.364ZM637.675 533.455H636.209V532.79C636.209 532.142 636.482 531.801 637.147 531.801C637.436 531.801 637.607 531.869 637.709 531.903L637.999 531.034C637.846 530.966 637.539 530.864 637.044 530.864C636.107 530.864 635.203 531.426 635.203 532.551V533.455H634.147V534.307H635.203V540H636.209V534.307H637.675V533.455ZM639.085 540H640.09V533.455H639.085V540ZM639.596 532.364C639.988 532.364 640.312 532.057 640.312 531.682C640.312 531.307 639.988 531 639.596 531C639.204 531 638.88 531.307 638.88 531.682C638.88 532.057 639.204 532.364 639.596 532.364ZM643.858 540.153C645 540.153 645.597 539.54 645.801 539.114H645.853V540H646.858V535.688C646.858 533.608 645.273 533.369 644.438 533.369C643.449 533.369 642.324 533.71 641.813 534.903L642.767 535.244C642.989 534.767 643.513 534.256 644.472 534.256C645.397 534.256 645.853 534.746 645.853 535.585V535.619C645.853 536.105 645.358 536.062 644.165 536.216C642.951 536.374 641.625 536.642 641.625 538.142C641.625 539.42 642.614 540.153 643.858 540.153ZM644.012 539.25C643.211 539.25 642.631 538.892 642.631 538.193C642.631 537.426 643.33 537.188 644.114 537.085C644.54 537.034 645.682 536.915 645.853 536.71V537.631C645.853 538.449 645.205 539.25 644.012 539.25ZM649.7 536.062C649.7 534.92 650.407 534.273 651.37 534.273C652.303 534.273 652.87 534.882 652.87 535.909V540H653.876V535.841C653.876 534.17 652.985 533.369 651.66 533.369C650.671 533.369 650.058 533.812 649.751 534.477H649.665V533.455H648.694V540H649.7V536.062ZM658.56 533.455H657.162V531.886H656.157V533.455H655.168V534.307H656.157V538.398C656.157 539.54 657.077 540.085 657.929 540.085C658.304 540.085 658.543 540.017 658.679 539.966L658.475 539.062C658.39 539.08 658.253 539.114 658.032 539.114C657.588 539.114 657.162 538.977 657.162 538.125V534.307H658.56V533.455Z" fill="#94A3B8"/>
<g clip-path="url(#clip1_3_4)">
<path d="M574 530C575.1 530 576 530.9 576 532C576 533.1 575.1 534 574 534C572.9 534 572 533.1 572 532C572 530.9 572.9 530 574 530ZM574 539C576.7 539 579.8 540.29 580 541V542H568V541.01C568.2 540.29 571.3 539 574 539ZM574 528C571.79 528 570 529.79 570 532C570 534.21 571.79 536 574 536C576.21 536 578 534.21 578 532C578 529.79 576.21 528 574 528ZM574 537C571.33 537 566 538.34 566 541V544H582V541C582 538.34 576.67 537 574 537Z" fill="#94A3B8"/>
</g>
<rect x="546" y="585" width="343" height="50" rx="6" fill="#1E293B"/>
<path d="M603.057 605.273V614H604.045V607.369H604.131L606.858 614H607.812L610.54 607.369H610.625V614H611.614V605.273H610.352L607.386 612.517H607.284L604.318 605.273H603.057ZM616.255 614.136C618.028 614.136 619.221 612.79 619.221 610.761C619.221 608.716 618.028 607.369 616.255 607.369C614.483 607.369 613.289 608.716 613.289 610.761C613.289 612.79 614.483 614.136 616.255 614.136ZM616.255 613.233C614.909 613.233 614.295 612.074 614.295 610.761C614.295 609.449 614.909 608.273 616.255 608.273C617.602 608.273 618.216 609.449 618.216 610.761C618.216 612.074 617.602 613.233 616.255 613.233ZM623.603 607.455H622.205V605.886H621.2V607.455H620.211V608.307H621.2V612.398C621.2 613.54 622.12 614.085 622.972 614.085C623.347 614.085 623.586 614.017 623.722 613.966L623.518 613.062C623.433 613.08 623.296 613.114 623.075 613.114C622.631 613.114 622.205 612.977 622.205 612.125V608.307H623.603V607.455ZM630.962 614.136C632.224 614.136 632.65 613.352 632.871 612.994H632.991V614H633.962V605.273H632.957V608.494H632.871C632.65 608.153 632.258 607.369 630.979 607.369C629.326 607.369 628.184 608.682 628.184 610.744C628.184 612.824 629.326 614.136 630.962 614.136ZM631.099 613.233C629.837 613.233 629.19 612.125 629.19 610.727C629.19 609.347 629.82 608.273 631.099 608.273C632.326 608.273 632.974 609.261 632.974 610.727C632.974 612.21 632.309 613.233 631.099 613.233ZM638.688 614.136C640.018 614.136 640.989 613.472 641.296 612.483L640.325 612.21C640.069 612.892 639.477 613.233 638.688 613.233C637.508 613.233 636.694 612.47 636.647 611.068H641.398V610.642C641.398 608.205 639.95 607.369 638.586 607.369C636.813 607.369 635.637 608.767 635.637 610.778C635.637 612.79 636.796 614.136 638.688 614.136ZM636.647 610.199C636.715 609.18 637.435 608.273 638.586 608.273C639.677 608.273 640.376 609.091 640.376 610.199H636.647ZM646.303 616.455H647.309V612.994H647.394C647.616 613.352 648.042 614.136 649.303 614.136C650.94 614.136 652.082 612.824 652.082 610.744C652.082 608.682 650.94 607.369 649.286 607.369C648.008 607.369 647.616 608.153 647.394 608.494H647.275V607.455H646.303V616.455ZM647.292 610.727C647.292 609.261 647.94 608.273 649.167 608.273C650.445 608.273 651.076 609.347 651.076 610.727C651.076 612.125 650.428 613.233 649.167 613.233C647.957 613.233 647.292 612.21 647.292 610.727ZM655.542 614.153C656.684 614.153 657.281 613.54 657.485 613.114H657.536V614H658.542V609.688C658.542 607.608 656.957 607.369 656.121 607.369C655.133 607.369 654.008 607.71 653.496 608.903L654.451 609.244C654.673 608.767 655.197 608.256 656.156 608.256C657.08 608.256 657.536 608.746 657.536 609.585V609.619C657.536 610.105 657.042 610.062 655.849 610.216C654.634 610.374 653.309 610.642 653.309 612.142C653.309 613.42 654.298 614.153 655.542 614.153ZM655.695 613.25C654.894 613.25 654.315 612.892 654.315 612.193C654.315 611.426 655.013 611.188 655.798 611.085C656.224 611.034 657.366 610.915 657.536 610.71V611.631C657.536 612.449 656.888 613.25 655.695 613.25ZM665.014 608.92C664.699 607.991 663.991 607.369 662.696 607.369C661.315 607.369 660.292 608.153 660.292 609.261C660.292 610.165 660.829 610.77 662.031 611.051L663.122 611.307C663.782 611.46 664.093 611.776 664.093 612.227C664.093 612.79 663.497 613.25 662.559 613.25C661.737 613.25 661.221 612.896 661.042 612.193L660.088 612.432C660.322 613.544 661.238 614.136 662.576 614.136C664.098 614.136 665.133 613.305 665.133 612.176C665.133 611.264 664.562 610.689 663.395 610.403L662.423 610.165C661.647 609.973 661.298 609.713 661.298 609.21C661.298 608.648 661.895 608.239 662.696 608.239C663.574 608.239 663.936 608.724 664.11 609.176L665.014 608.92ZM671.283 608.92C670.968 607.991 670.261 607.369 668.965 607.369C667.585 607.369 666.562 608.153 666.562 609.261C666.562 610.165 667.099 610.77 668.3 611.051L669.391 611.307C670.052 611.46 670.363 611.776 670.363 612.227C670.363 612.79 669.766 613.25 668.829 613.25C668.006 613.25 667.491 612.896 667.312 612.193L666.357 612.432C666.592 613.544 667.508 614.136 668.846 614.136C670.367 614.136 671.403 613.305 671.403 612.176C671.403 611.264 670.832 610.689 669.664 610.403L668.692 610.165C667.917 609.973 667.567 609.713 667.567 609.21C667.567 608.648 668.164 608.239 668.965 608.239C669.843 608.239 670.205 608.724 670.38 609.176L671.283 608.92ZM675.661 614.136C676.99 614.136 677.962 613.472 678.269 612.483L677.297 612.21C677.042 612.892 676.449 613.233 675.661 613.233C674.48 613.233 673.667 612.47 673.62 611.068H678.371V610.642C678.371 608.205 676.922 607.369 675.559 607.369C673.786 607.369 672.61 608.767 672.61 610.778C672.61 612.79 673.769 614.136 675.661 614.136ZM673.62 610.199C673.688 609.18 674.408 608.273 675.559 608.273C676.65 608.273 677.348 609.091 677.348 610.199H673.62Z" fill="#94A3B8"/>
<g clip-path="url(#clip2_3_4)">
<path d="M580 606H579V604C579 601.24 576.76 599 574 599C571.24 599 569 601.24 569 604V606H568C566.9 606 566 606.9 566 608V618C566 619.1 566.9 620 568 620H580C581.1 620 582 619.1 582 618V608C582 606.9 581.1 606 580 606ZM571 604C571 602.34 572.34 601 574 601C575.66 601 577 602.34 577 604V606H571V604ZM580 618H568V608H580V618ZM574 615C575.1 615 576 614.1 576 613C576 611.9 575.1 611 574 611C572.9 611 572 611.9 572 613C572 614.1 572.9 615 574 615Z" fill="#94A3B8"/>
</g>
<rect x="546" y="703" width="343" height="50" rx="6" fill="#243DE2"/>
<path d="M666.051 722.364V730.545C666.045 731.773 665.477 732.426 664.466 732.426C663.523 732.426 662.892 731.852 662.875 730.909H660.778C660.778 733.057 662.347 734.159 664.386 734.159C666.631 734.159 668.136 732.795 668.142 730.545V722.364H666.051ZM674.202 734.17C676.236 734.17 677.634 733.176 677.997 731.659L676.077 731.443C675.798 732.182 675.116 732.568 674.23 732.568C672.901 732.568 672.02 731.693 672.003 730.199H678.082V729.568C678.082 726.506 676.241 725.159 674.094 725.159C671.594 725.159 669.963 726.994 669.963 729.688C669.963 732.426 671.571 734.17 674.202 734.17ZM672.009 728.812C672.071 727.699 672.895 726.761 674.122 726.761C675.304 726.761 676.099 727.625 676.111 728.812H672.009ZM683.791 734H685.848V728.693C685.848 727.619 686.564 726.892 687.45 726.892C688.32 726.892 688.916 727.477 688.916 728.375V734H690.933V728.557C690.933 727.574 691.518 726.892 692.513 726.892C693.342 726.892 694.001 727.381 694.001 728.46V734H696.064V728.142C696.064 726.193 694.939 725.159 693.337 725.159C692.07 725.159 691.104 725.784 690.717 726.756H690.626C690.291 725.767 689.445 725.159 688.268 725.159C687.098 725.159 686.223 725.761 685.859 726.756H685.757V725.273H683.791V734ZM699.895 722.364H698.259V723.534C698.259 724.46 697.895 725.17 697.48 725.795L698.435 726.415C699.27 725.722 699.895 724.528 699.895 723.523V722.364ZM701.572 734H703.629V725.273H701.572V734ZM702.607 724.034C703.26 724.034 703.794 723.534 703.794 722.92C703.794 722.301 703.26 721.801 702.607 721.801C701.947 721.801 701.413 722.301 701.413 722.92C701.413 723.534 701.947 724.034 702.607 724.034ZM707.801 728.886C707.801 727.625 708.562 726.898 709.648 726.898C710.71 726.898 711.347 727.597 711.347 728.761V734H713.403V728.443C713.409 726.352 712.216 725.159 710.415 725.159C709.108 725.159 708.21 725.784 707.812 726.756H707.71V725.273H705.744V734H707.801V728.886ZM718.733 734.153C720.233 734.153 720.909 733.261 721.233 732.625H721.358V734H723.381V722.364H721.318V726.716H721.233C720.92 726.085 720.278 725.159 718.739 725.159C716.722 725.159 715.136 726.739 715.136 729.648C715.136 732.523 716.676 734.153 718.733 734.153ZM719.307 732.466C717.949 732.466 717.233 731.273 717.233 729.636C717.233 728.011 717.938 726.847 719.307 726.847C720.631 726.847 721.358 727.943 721.358 729.636C721.358 731.33 720.619 732.466 719.307 732.466ZM729.436 734.17C731.47 734.17 732.868 733.176 733.232 731.659L731.311 731.443C731.033 732.182 730.351 732.568 729.464 732.568C728.135 732.568 727.254 731.693 727.237 730.199H733.317V729.568C733.317 726.506 731.476 725.159 729.328 725.159C726.828 725.159 725.197 726.994 725.197 729.688C725.197 732.426 726.805 734.17 729.436 734.17ZM727.243 728.812C727.305 727.699 728.129 726.761 729.357 726.761C730.538 726.761 731.334 727.625 731.345 728.812H727.243ZM737.114 728.886C737.114 727.625 737.875 726.898 738.96 726.898C740.023 726.898 740.659 727.597 740.659 728.761V734H742.716V728.443C742.722 726.352 741.528 725.159 739.727 725.159C738.42 725.159 737.523 725.784 737.125 726.756H737.023V725.273H735.057V734H737.114V728.886ZM749.165 725.273H747.443V723.182H745.386V725.273H744.148V726.864H745.386V731.716C745.375 733.358 746.568 734.165 748.114 734.119C748.699 734.102 749.102 733.989 749.324 733.915L748.977 732.307C748.864 732.335 748.631 732.386 748.375 732.386C747.858 732.386 747.443 732.205 747.443 731.375V726.864H749.165V725.273ZM750.885 734H752.942V725.273H750.885V734ZM751.919 724.034C752.572 724.034 753.107 723.534 753.107 722.92C753.107 722.301 752.572 721.801 751.919 721.801C751.26 721.801 750.726 722.301 750.726 722.92C750.726 723.534 751.26 724.034 751.919 724.034ZM759.477 725.273H757.665V724.585C757.665 723.903 757.949 723.523 758.716 723.523C759.04 723.523 759.312 723.597 759.483 723.648L759.898 722.057C759.631 721.966 759.045 721.818 758.335 721.818C756.818 721.818 755.608 722.688 755.608 724.449V725.273H754.318V726.864H755.608V734H757.665V726.864H759.477V725.273ZM761.088 734H763.145V725.273H761.088V734ZM762.122 724.034C762.776 724.034 763.31 723.534 763.31 722.92C763.31 722.301 762.776 721.801 762.122 721.801C761.463 721.801 760.929 722.301 760.929 722.92C760.929 723.534 761.463 724.034 762.122 724.034ZM769.124 734.17C771.158 734.17 772.555 733.176 772.919 731.659L770.999 731.443C770.72 732.182 770.038 732.568 769.152 732.568C767.822 732.568 766.942 731.693 766.925 730.199H773.004V729.568C773.004 726.506 771.163 725.159 769.016 725.159C766.516 725.159 764.885 726.994 764.885 729.688C764.885 732.426 766.493 734.17 769.124 734.17ZM766.93 728.812C766.993 727.699 767.817 726.761 769.044 726.761C770.226 726.761 771.021 727.625 771.033 728.812H766.93Z" fill="white"/>
<path d="M656.518 777.273V786H657.506V779.369H657.592L660.319 786H661.273L664.001 779.369H664.086V786H665.075V777.273H663.813L660.847 784.517H660.745L657.779 777.273H656.518ZM669.716 786.136C671.489 786.136 672.682 784.79 672.682 782.761C672.682 780.716 671.489 779.369 669.716 779.369C667.944 779.369 666.75 780.716 666.75 782.761C666.75 784.79 667.944 786.136 669.716 786.136ZM669.716 785.233C668.37 785.233 667.756 784.074 667.756 782.761C667.756 781.449 668.37 780.273 669.716 780.273C671.063 780.273 671.676 781.449 671.676 782.761C671.676 784.074 671.063 785.233 669.716 785.233ZM677.064 779.455H675.666V777.886H674.661V779.455H673.672V780.307H674.661V784.398C674.661 785.54 675.581 786.085 676.433 786.085C676.808 786.085 677.047 786.017 677.183 785.966L676.979 785.062C676.893 785.08 676.757 785.114 676.536 785.114C676.092 785.114 675.666 784.977 675.666 784.125V780.307H677.064V779.455ZM684.423 786.136C685.685 786.136 686.111 785.352 686.332 784.994H686.452V786H687.423V777.273H686.418V780.494H686.332C686.111 780.153 685.719 779.369 684.44 779.369C682.787 779.369 681.645 780.682 681.645 782.744C681.645 784.824 682.787 786.136 684.423 786.136ZM684.56 785.233C683.298 785.233 682.651 784.125 682.651 782.727C682.651 781.347 683.281 780.273 684.56 780.273C685.787 780.273 686.435 781.261 686.435 782.727C686.435 784.21 685.77 785.233 684.56 785.233ZM692.149 786.136C693.479 786.136 694.45 785.472 694.757 784.483L693.786 784.21C693.53 784.892 692.938 785.233 692.149 785.233C690.969 785.233 690.155 784.47 690.108 783.068H694.859V782.642C694.859 780.205 693.411 779.369 692.047 779.369C690.274 779.369 689.098 780.767 689.098 782.778C689.098 784.79 690.257 786.136 692.149 786.136ZM690.108 782.199C690.176 781.18 690.896 780.273 692.047 780.273C693.138 780.273 693.837 781.091 693.837 782.199H690.108ZM699.764 788.455H700.77V784.994H700.855C701.077 785.352 701.503 786.136 702.764 786.136C704.401 786.136 705.543 784.824 705.543 782.744C705.543 780.682 704.401 779.369 702.747 779.369C701.469 779.369 701.077 780.153 700.855 780.494H700.736V779.455H699.764V788.455ZM700.753 782.727C700.753 781.261 701.401 780.273 702.628 780.273C703.906 780.273 704.537 781.347 704.537 782.727C704.537 784.125 703.889 785.233 702.628 785.233C701.418 785.233 700.753 784.21 700.753 782.727ZM709.003 786.153C710.145 786.153 710.741 785.54 710.946 785.114H710.997V786H712.003V781.688C712.003 779.608 710.418 779.369 709.582 779.369C708.594 779.369 707.469 779.71 706.957 780.903L707.912 781.244C708.134 780.767 708.658 780.256 709.616 780.256C710.541 780.256 710.997 780.746 710.997 781.585V781.619C710.997 782.105 710.503 782.062 709.31 782.216C708.095 782.374 706.77 782.642 706.77 784.142C706.77 785.42 707.759 786.153 709.003 786.153ZM709.156 785.25C708.355 785.25 707.776 784.892 707.776 784.193C707.776 783.426 708.474 783.188 709.259 783.085C709.685 783.034 710.827 782.915 710.997 782.71V783.631C710.997 784.449 710.349 785.25 709.156 785.25ZM718.475 780.92C718.159 779.991 717.452 779.369 716.157 779.369C714.776 779.369 713.753 780.153 713.753 781.261C713.753 782.165 714.29 782.77 715.492 783.051L716.583 783.307C717.243 783.46 717.554 783.776 717.554 784.227C717.554 784.79 716.958 785.25 716.02 785.25C715.198 785.25 714.682 784.896 714.503 784.193L713.549 784.432C713.783 785.544 714.699 786.136 716.037 786.136C717.559 786.136 718.594 785.305 718.594 784.176C718.594 783.264 718.023 782.689 716.855 782.403L715.884 782.165C715.108 781.973 714.759 781.713 714.759 781.21C714.759 780.648 715.355 780.239 716.157 780.239C717.034 780.239 717.397 780.724 717.571 781.176L718.475 780.92ZM724.744 780.92C724.429 779.991 723.722 779.369 722.426 779.369C721.045 779.369 720.023 780.153 720.023 781.261C720.023 782.165 720.56 782.77 721.761 783.051L722.852 783.307C723.513 783.46 723.824 783.776 723.824 784.227C723.824 784.79 723.227 785.25 722.29 785.25C721.467 785.25 720.952 784.896 720.773 784.193L719.818 784.432C720.053 785.544 720.969 786.136 722.307 786.136C723.828 786.136 724.864 785.305 724.864 784.176C724.864 783.264 724.293 782.689 723.125 782.403L722.153 782.165C721.378 781.973 721.028 781.713 721.028 781.21C721.028 780.648 721.625 780.239 722.426 780.239C723.304 780.239 723.666 780.724 723.841 781.176L724.744 780.92ZM729.122 786.136C730.451 786.136 731.423 785.472 731.73 784.483L730.758 784.21C730.502 784.892 729.91 785.233 729.122 785.233C727.941 785.233 727.127 784.47 727.081 783.068H731.832V782.642C731.832 780.205 730.383 779.369 729.02 779.369C727.247 779.369 726.071 780.767 726.071 782.778C726.071 784.79 727.23 786.136 729.122 786.136ZM727.081 782.199C727.149 781.18 727.869 780.273 729.02 780.273C730.11 780.273 730.809 781.091 730.809 782.199H727.081ZM739.396 786.136C741.169 786.136 742.362 784.79 742.362 782.761C742.362 780.716 741.169 779.369 739.396 779.369C737.623 779.369 736.43 780.716 736.43 782.761C736.43 784.79 737.623 786.136 739.396 786.136ZM739.396 785.233C738.049 785.233 737.436 784.074 737.436 782.761C737.436 781.449 738.049 780.273 739.396 780.273C740.743 780.273 741.356 781.449 741.356 782.761C741.356 784.074 740.743 785.233 739.396 785.233ZM748.022 783.324C748.022 784.551 747.085 785.114 746.335 785.114C745.499 785.114 744.903 784.5 744.903 783.545V779.455H743.897V783.614C743.897 785.284 744.783 786.085 746.011 786.085C746.999 786.085 747.647 785.557 747.954 784.892H748.022V786H749.028V779.455H748.022V783.324ZM751.006 786H751.978V784.994H752.097C752.319 785.352 752.745 786.136 754.006 786.136C755.642 786.136 756.784 784.824 756.784 782.744C756.784 780.682 755.642 779.369 753.989 779.369C752.711 779.369 752.319 780.153 752.097 780.494H752.012V777.273H751.006V786ZM751.995 782.727C751.995 781.261 752.642 780.273 753.87 780.273C755.148 780.273 755.779 781.347 755.779 782.727C755.779 784.125 755.131 785.233 753.87 785.233C752.659 785.233 751.995 784.21 751.995 782.727ZM759.328 777.273H758.323V786H759.328V777.273ZM761.17 786H762.176V779.455H761.17V786ZM761.682 778.364C762.074 778.364 762.398 778.057 762.398 777.682C762.398 777.307 762.074 777 761.682 777C761.29 777 760.966 777.307 760.966 777.682C760.966 778.057 761.29 778.364 761.682 778.364ZM766.762 786.136C768.092 786.136 769.064 785.472 769.37 784.483L768.399 784.21C768.143 784.892 767.551 785.233 766.762 785.233C765.582 785.233 764.768 784.47 764.721 783.068H769.473V782.642C769.473 780.205 768.024 779.369 766.66 779.369C764.887 779.369 763.711 780.767 763.711 782.778C763.711 784.79 764.87 786.136 766.762 786.136ZM764.721 782.199C764.789 781.18 765.51 780.273 766.66 780.273C767.751 780.273 768.45 781.091 768.45 782.199H764.721ZM766.149 778.568H767.035L768.365 776.591H767.189L766.149 778.568ZM775.69 783.545H776.713V783.494C776.73 782.438 777.002 781.977 777.752 781.509C778.502 781.053 778.946 780.396 778.946 779.455C778.946 778.125 777.974 777.153 776.474 777.153C775.093 777.153 773.998 778.006 773.934 779.455H775.008C775.072 778.449 775.775 778.04 776.474 778.04C777.275 778.04 777.923 778.568 777.923 779.403C777.923 780.081 777.535 780.567 777.037 780.869C776.201 781.376 775.703 781.871 775.69 783.494V783.545ZM776.235 786.068C776.657 786.068 777.002 785.723 777.002 785.301C777.002 784.879 776.657 784.534 776.235 784.534C775.814 784.534 775.468 784.879 775.468 785.301C775.468 785.723 775.814 786.068 776.235 786.068Z" fill="#94A3B8"/>
<path d="M595.344 652H596.281C596.238 650.793 595.125 649.891 593.578 649.891C592.047 649.891 590.844 650.781 590.844 652.125C590.844 653.203 591.625 653.844 592.875 654.203L593.859 654.484C594.703 654.719 595.453 655.016 595.453 655.812C595.453 656.687 594.609 657.266 593.5 657.266C592.547 657.266 591.703 656.844 591.625 655.938H590.625C590.719 657.25 591.781 658.141 593.5 658.141C595.344 658.141 596.391 657.125 596.391 655.828C596.391 654.328 594.969 653.844 594.141 653.625L593.328 653.406C592.734 653.25 591.781 652.937 591.781 652.078C591.781 651.312 592.484 650.75 593.547 650.75C594.516 650.75 595.25 651.211 595.344 652ZM600.374 658.125C601.593 658.125 602.483 657.516 602.765 656.609L601.874 656.359C601.64 656.984 601.097 657.297 600.374 657.297C599.292 657.297 598.546 656.598 598.503 655.312H602.858V654.922C602.858 652.687 601.53 651.922 600.28 651.922C598.655 651.922 597.577 653.203 597.577 655.047C597.577 656.891 598.64 658.125 600.374 658.125ZM598.503 654.516C598.565 653.582 599.226 652.75 600.28 652.75C601.28 652.75 601.921 653.5 601.921 654.516H598.503ZM611.604 653.344C611.315 652.492 610.667 651.922 609.479 651.922C608.214 651.922 607.276 652.641 607.276 653.656C607.276 654.484 607.769 655.039 608.87 655.297L609.87 655.531C610.476 655.672 610.761 655.961 610.761 656.375C610.761 656.891 610.214 657.312 609.354 657.312C608.601 657.312 608.128 656.988 607.964 656.344L607.089 656.562C607.304 657.582 608.144 658.125 609.37 658.125C610.765 658.125 611.714 657.363 611.714 656.328C611.714 655.492 611.19 654.965 610.12 654.703L609.229 654.484C608.519 654.309 608.198 654.07 608.198 653.609C608.198 653.094 608.745 652.719 609.479 652.719C610.284 652.719 610.616 653.164 610.776 653.578L611.604 653.344ZM615.539 658.125C617.164 658.125 618.258 656.891 618.258 655.031C618.258 653.156 617.164 651.922 615.539 651.922C613.914 651.922 612.82 653.156 612.82 655.031C612.82 656.891 613.914 658.125 615.539 658.125ZM615.539 657.297C614.305 657.297 613.742 656.234 613.742 655.031C613.742 653.828 614.305 652.75 615.539 652.75C616.773 652.75 617.336 653.828 617.336 655.031C617.336 656.234 616.773 657.297 615.539 657.297ZM623.446 655.547C623.446 656.672 622.587 657.187 621.899 657.187C621.134 657.187 620.587 656.625 620.587 655.75V652H619.665V655.812C619.665 657.344 620.478 658.078 621.603 658.078C622.509 658.078 623.103 657.594 623.384 656.984H623.446V658H624.368V652H623.446V655.547ZM630.963 652H629.963L628.307 656.781H628.244L626.588 652H625.588L627.807 658H628.744L630.963 652ZM634.48 658.125C635.699 658.125 636.59 657.516 636.871 656.609L635.98 656.359C635.746 656.984 635.203 657.297 634.48 657.297C633.398 657.297 632.652 656.598 632.609 655.312H636.965V654.922C636.965 652.687 635.637 651.922 634.387 651.922C632.762 651.922 631.684 653.203 631.684 655.047C631.684 656.891 632.746 658.125 634.48 658.125ZM632.609 654.516C632.672 653.582 633.332 652.75 634.387 652.75C635.387 652.75 636.027 653.5 636.027 654.516H632.609ZM639.289 654.391C639.289 653.344 639.938 652.75 640.82 652.75C641.676 652.75 642.195 653.309 642.195 654.25V658H643.117V654.188C643.117 652.656 642.301 651.922 641.086 651.922C640.18 651.922 639.617 652.328 639.336 652.937H639.258V652H638.367V658H639.289V654.391ZM644.802 658H645.724V652H644.802V658ZM645.271 651C645.63 651 645.927 650.719 645.927 650.375C645.927 650.031 645.63 649.75 645.271 649.75C644.911 649.75 644.614 650.031 644.614 650.375C644.614 650.719 644.911 651 645.271 651ZM647.412 658H648.334V654.203C648.334 653.391 648.975 652.797 649.85 652.797C650.096 652.797 650.35 652.844 650.412 652.859V651.922C650.307 651.914 650.064 651.906 649.928 651.906C649.209 651.906 648.584 652.312 648.365 652.906H648.303V652H647.412V658ZM656.864 658.125C658.021 658.125 658.411 657.406 658.614 657.078H658.724V658H659.614V650H658.692V652.953H658.614C658.411 652.641 658.052 651.922 656.88 651.922C655.364 651.922 654.317 653.125 654.317 655.016C654.317 656.922 655.364 658.125 656.864 658.125ZM656.989 657.297C655.833 657.297 655.239 656.281 655.239 655C655.239 653.734 655.817 652.75 656.989 652.75C658.114 652.75 658.708 653.656 658.708 655C658.708 656.359 658.099 657.297 656.989 657.297ZM663.946 658.125C665.165 658.125 666.056 657.516 666.337 656.609L665.446 656.359C665.212 656.984 664.669 657.297 663.946 657.297C662.864 657.297 662.118 656.598 662.075 655.312H666.431V654.922C666.431 652.687 665.103 651.922 663.853 651.922C662.228 651.922 661.149 653.203 661.149 655.047C661.149 656.891 662.212 658.125 663.946 658.125ZM662.075 654.516C662.138 653.582 662.798 652.75 663.853 652.75C664.853 652.75 665.493 653.5 665.493 654.516H662.075ZM670.927 658H671.849V654.25C671.849 653.371 672.489 652.75 673.208 652.75C673.907 652.75 674.396 653.207 674.396 653.891V658H675.333V654.094C675.333 653.32 675.817 652.75 676.661 652.75C677.317 652.75 677.88 653.098 677.88 653.984V658H678.802V653.984C678.802 652.574 678.044 651.922 676.974 651.922C676.114 651.922 675.485 652.316 675.177 652.937H675.114C674.817 652.297 674.294 651.922 673.505 651.922C672.724 651.922 672.146 652.297 671.896 652.937H671.817V652H670.927V658ZM682.925 658.125C684.55 658.125 685.644 656.891 685.644 655.031C685.644 653.156 684.55 651.922 682.925 651.922C681.3 651.922 680.206 653.156 680.206 655.031C680.206 656.891 681.3 658.125 682.925 658.125ZM682.925 657.297C681.69 657.297 681.128 656.234 681.128 655.031C681.128 653.828 681.69 652.75 682.925 652.75C684.159 652.75 684.722 653.828 684.722 655.031C684.722 656.234 684.159 657.297 682.925 657.297ZM687.051 658H687.973V652H687.051V658ZM687.52 651C687.879 651 688.176 650.719 688.176 650.375C688.176 650.031 687.879 649.75 687.52 649.75C687.16 649.75 686.863 650.031 686.863 650.375C686.863 650.719 687.16 651 687.52 651Z" fill="#94A3B8"/>
<path d="M576.667 649.333V658.667H567.333V649.333H576.667ZM576.667 648H567.333C566.6 648 566 648.6 566 649.333V658.667C566 659.4 566.6 660 567.333 660H576.667C577.4 660 578 659.4 578 658.667V649.333C578 648.6 577.4 648 576.667 648Z" fill="#94A3B8"/>
<defs>
<clipPath id="clip0_3_4">
<rect width="86.5" height="83.4965" fill="white" transform="translate(676.25 230)"/>
</clipPath>
<clipPath id="clip1_3_4">
<rect width="24" height="24" fill="white" transform="translate(562 524)"/>
</clipPath>
<clipPath id="clip2_3_4">
<rect width="24" height="24" fill="white" transform="translate(562 598)"/>
</clipPath>
</defs>
</svg>
