<svg width="375" height="812" viewBox="0 0 375 812" fill="none" xmlns="http://www.w3.org/2000/svg">
<g clip-path="url(#clip0_4_2)">
<rect width="375" height="812" fill="#0F172A"/>
<g clip-path="url(#clip1_4_2)">
<path d="M187.639 191.198C192.416 191.198 196.288 187.336 196.288 182.573C196.288 177.809 192.416 173.947 187.639 173.947C182.862 173.947 178.99 177.809 178.99 182.573C178.99 187.336 182.862 191.198 187.639 191.198Z" fill="white"/>
<path d="M187.58 142H187.58C186.696 142 185.979 142.715 185.979 143.597V151.052C185.979 151.934 186.696 152.649 187.58 152.649H187.58C188.465 152.649 189.182 151.934 189.182 151.052V143.597C189.182 142.715 188.465 142 187.58 142Z" fill="white"/>
<path d="M172.541 144.814L172.541 144.814C171.739 145.187 171.392 146.137 171.766 146.937L174.925 153.693C175.299 154.492 176.252 154.838 177.053 154.465L177.053 154.465C177.855 154.092 178.202 153.142 177.828 152.342L174.669 145.587C174.295 144.787 173.342 144.441 172.541 144.814Z" fill="white"/>
<path d="M198.108 154.465L198.108 154.465C197.306 154.092 196.959 153.142 197.333 152.342L200.492 145.587C200.866 144.787 201.819 144.441 202.62 144.814L202.62 144.814C203.422 145.187 203.769 146.137 203.395 146.937L200.236 153.692C199.862 154.492 198.91 154.838 198.108 154.465Z" fill="white"/>
<path fill-rule="evenodd" clip-rule="evenodd" d="M157.903 151.797C150.085 159.602 145.25 170.38 145.25 182.284C145.25 206.106 164.614 225.418 188.5 225.418C212.386 225.418 231.75 206.106 231.75 182.284C231.75 170.394 226.927 159.628 219.125 151.826L206.892 164.026C211.563 168.706 214.45 175.159 214.45 182.284C214.45 196.577 202.832 208.164 188.5 208.164C174.168 208.164 162.55 196.577 162.55 182.284C162.55 175.144 165.449 168.68 170.136 163.997L157.903 151.797Z" fill="white"/>
<path fill-rule="evenodd" clip-rule="evenodd" d="M169.886 200.317L157.653 212.518C165.499 220.48 176.421 225.418 188.5 225.418C200.175 225.418 210.77 220.805 218.551 213.306L206.315 201.102C201.667 205.48 195.398 208.164 188.5 208.164C181.199 208.164 174.602 205.157 169.886 200.317Z" fill="white"/>
</g>
<path d="M141.913 281.497H147.66L152.115 266.501H152.309L156.764 281.497H162.523L169.707 256.769H163.115L159.372 273.009H159.167L154.904 256.769H149.52L145.257 272.972H145.052L141.321 256.769H134.717L141.913 281.497ZM174.462 281.811C177.046 281.811 178.833 280.808 179.847 278.913H179.992V281.497H185.546V268.891C185.546 264.967 182.057 262.71 177.336 262.71C172.349 262.71 169.524 265.221 169.053 268.602L174.499 268.795C174.752 267.612 175.73 266.887 177.288 266.887C178.736 266.887 179.654 267.587 179.654 268.831V268.891C179.654 270.026 178.423 270.268 175.259 270.546C171.504 270.86 168.365 272.248 168.365 276.353C168.365 280.024 170.913 281.811 174.462 281.811ZM176.285 277.947C174.921 277.947 173.955 277.295 173.955 276.063C173.955 274.868 174.897 274.144 176.575 273.89C177.674 273.733 179.026 273.492 179.69 273.141V274.904C179.69 276.715 178.169 277.947 176.285 277.947ZM188.306 281.497H194.21V271.427C194.21 269.217 195.78 267.732 197.893 267.732C198.593 267.732 199.644 267.853 200.211 268.046V262.915C199.716 262.782 199.1 262.698 198.557 262.698C196.529 262.698 194.911 263.881 194.234 266.332H194.041V262.951H188.306V281.497ZM207.671 270.92C207.683 268.807 208.914 267.551 210.786 267.551C212.657 267.551 213.768 268.783 213.756 270.835V281.497H219.66V269.676C219.672 265.499 217.125 262.71 213.225 262.71C210.484 262.71 208.407 264.098 207.586 266.356H207.381V262.951H201.767V281.497H207.671V270.92ZM222.466 281.497H228.37V262.951H222.466V281.497ZM225.424 260.79C227.102 260.79 228.454 259.522 228.454 257.965C228.454 256.407 227.102 255.151 225.424 255.151C223.757 255.151 222.393 256.407 222.393 257.965C222.393 259.522 223.757 260.79 225.424 260.79ZM241.746 262.951H238.401V258.508H232.497V262.951H230.046V267.298H232.497V276.317C232.461 280.072 234.9 281.955 239.065 281.762C240.49 281.69 241.516 281.4 242.084 281.231L241.19 276.969C240.937 277.029 240.345 277.15 239.898 277.15C238.945 277.15 238.401 276.764 238.401 275.665V267.298H241.746V262.951Z" fill="white"/>
<path d="M87.4468 328.497H93.6713V327.403H88.6798V323.943H93.2735V322.849H88.6798V319.409H93.5917V318.315H87.4468V328.497ZM96.8282 323.903C96.8282 322.57 97.6535 321.815 98.7771 321.815C99.8659 321.815 100.527 322.526 100.527 323.724V328.497H101.7V323.644C101.7 321.695 100.661 320.761 99.1151 320.761C97.9617 320.761 97.2458 321.278 96.8879 322.053H96.7884V320.86H95.6549V328.497H96.8282V323.903ZM109.815 320.86H108.543L106.435 326.945H106.355L104.247 320.86H102.974L105.798 328.497H106.991L109.815 320.86ZM114.193 328.656C116.261 328.656 117.653 327.085 117.653 324.718C117.653 322.332 116.261 320.761 114.193 320.761C112.125 320.761 110.733 322.332 110.733 324.718C110.733 327.085 112.125 328.656 114.193 328.656ZM114.193 327.602C112.622 327.602 111.906 326.249 111.906 324.718C111.906 323.187 112.622 321.815 114.193 321.815C115.764 321.815 116.48 323.187 116.48 324.718C116.48 326.249 115.764 327.602 114.193 327.602ZM119.926 331.36C120.985 331.36 121.731 330.798 122.173 329.61L125.425 320.88L124.142 320.86L122.034 326.945H121.955L119.847 320.86H118.574L121.398 328.536L121.179 329.133C120.752 330.296 120.225 330.406 119.369 330.187L119.071 331.221C119.19 331.281 119.528 331.36 119.926 331.36ZM129.905 328.656C131.457 328.656 132.59 327.88 132.948 326.727L131.815 326.409C131.516 327.204 130.825 327.602 129.905 327.602C128.528 327.602 127.579 326.712 127.524 325.076H133.067V324.579C133.067 321.735 131.377 320.761 129.786 320.761C127.718 320.761 126.346 322.391 126.346 324.738C126.346 327.085 127.698 328.656 129.905 328.656ZM127.524 324.062C127.604 322.874 128.444 321.815 129.786 321.815C131.059 321.815 131.874 322.769 131.874 324.062H127.524ZM134.633 328.497H140.619V327.403H136.264V327.323L140.48 321.795V320.86H134.773V321.954H138.969V322.034L134.633 327.602V328.497ZM152.608 320.86H151.335L149.228 326.945H149.148L147.04 320.86H145.767L148.591 328.497H149.784L152.608 320.86ZM156.986 328.656C159.054 328.656 160.446 327.085 160.446 324.718C160.446 322.332 159.054 320.761 156.986 320.761C154.918 320.761 153.525 322.332 153.525 324.718C153.525 327.085 154.918 328.656 156.986 328.656ZM156.986 327.602C155.415 327.602 154.699 326.249 154.699 324.718C154.699 323.187 155.415 321.815 156.986 321.815C158.557 321.815 159.273 323.187 159.273 324.718C159.273 326.249 158.557 327.602 156.986 327.602ZM167.646 322.57C167.278 321.487 166.453 320.761 164.941 320.761C163.331 320.761 162.138 321.676 162.138 322.968C162.138 324.022 162.764 324.728 164.166 325.056L165.439 325.355C166.209 325.534 166.572 325.901 166.572 326.428C166.572 327.085 165.876 327.622 164.782 327.622C163.823 327.622 163.221 327.209 163.013 326.389L161.899 326.667C162.172 327.965 163.241 328.656 164.802 328.656C166.577 328.656 167.785 327.686 167.785 326.369C167.785 325.305 167.119 324.634 165.757 324.301L164.623 324.022C163.718 323.798 163.311 323.495 163.311 322.909C163.311 322.252 164.007 321.775 164.941 321.775C165.966 321.775 166.388 322.342 166.592 322.869L167.646 322.57ZM175.736 328.676C177.068 328.676 177.764 327.96 178.003 327.462H178.063V328.497H179.236V323.465C179.236 321.039 177.387 320.761 176.412 320.761C175.259 320.761 173.946 321.159 173.35 322.551L174.463 322.948C174.722 322.391 175.333 321.795 176.452 321.795C177.531 321.795 178.063 322.367 178.063 323.346V323.386C178.063 323.953 177.486 323.903 176.094 324.082C174.677 324.266 173.131 324.579 173.131 326.329C173.131 327.82 174.284 328.676 175.736 328.676ZM175.915 327.622C174.98 327.622 174.304 327.204 174.304 326.389C174.304 325.494 175.12 325.215 176.034 325.096C176.532 325.036 177.864 324.897 178.063 324.659V325.732C178.063 326.687 177.307 327.622 175.915 327.622ZM182.551 318.315H181.378V328.497H182.551V318.315ZM187.902 328.656C189.453 328.656 190.586 327.88 190.944 326.727L189.811 326.409C189.512 327.204 188.821 327.602 187.902 327.602C186.524 327.602 185.575 326.712 185.52 325.076H191.063V324.579C191.063 321.735 189.373 320.761 187.782 320.761C185.714 320.761 184.342 322.391 184.342 324.738C184.342 327.085 185.694 328.656 187.902 328.656ZM185.52 324.062C185.6 322.874 186.44 321.815 187.782 321.815C189.055 321.815 189.87 322.769 189.87 324.062H185.52ZM192.848 328.497H194.022V323.664C194.022 322.63 194.837 321.874 195.951 321.874C196.264 321.874 196.587 321.934 196.666 321.954V320.761C196.532 320.751 196.224 320.741 196.05 320.741C195.135 320.741 194.34 321.258 194.061 322.014H193.982V320.86H192.848V328.497ZM201.857 320.86H200.226V319.031H199.053V320.86H197.899V321.855H199.053V326.627C199.053 327.96 200.127 328.596 201.121 328.596C201.559 328.596 201.837 328.516 201.996 328.457L201.757 327.403C201.658 327.423 201.499 327.462 201.24 327.462C200.723 327.462 200.226 327.303 200.226 326.309V321.855H201.857V320.86ZM206.741 328.656C208.293 328.656 209.426 327.88 209.784 326.727L208.65 326.409C208.352 327.204 207.661 327.602 206.741 327.602C205.364 327.602 204.415 326.712 204.36 325.076H209.903V324.579C209.903 321.735 208.213 320.761 206.622 320.761C204.554 320.761 203.182 322.391 203.182 324.738C203.182 327.085 204.534 328.656 206.741 328.656ZM204.36 324.062C204.44 322.874 205.28 321.815 206.622 321.815C207.895 321.815 208.71 322.769 208.71 324.062H204.36ZM217.097 322.57C216.729 321.487 215.904 320.761 214.393 320.761C212.782 320.761 211.589 321.676 211.589 322.968C211.589 324.022 212.215 324.728 213.617 325.056L214.89 325.355C215.66 325.534 216.023 325.901 216.023 326.428C216.023 327.085 215.327 327.622 214.234 327.622C213.274 327.622 212.672 327.209 212.464 326.389L211.35 326.667C211.623 327.965 212.692 328.656 214.253 328.656C216.028 328.656 217.236 327.686 217.236 326.369C217.236 325.305 216.57 324.634 215.208 324.301L214.074 324.022C213.17 323.798 212.762 323.495 212.762 322.909C212.762 322.252 213.458 321.775 214.393 321.775C215.417 321.775 215.839 322.342 216.043 322.869L217.097 322.57ZM226.341 320.86H224.63V320.085C224.63 319.329 224.949 318.931 225.724 318.931C226.062 318.931 226.261 319.011 226.38 319.051L226.718 318.036C226.54 317.957 226.182 317.837 225.605 317.837C224.511 317.837 223.457 318.494 223.457 319.806V320.86H222.224V321.855H223.457V328.497H224.63V321.855H226.341V320.86ZM230.013 328.676C231.346 328.676 232.042 327.96 232.28 327.462H232.34V328.497H233.513V323.465C233.513 321.039 231.664 320.761 230.69 320.761C229.536 320.761 228.224 321.159 227.627 322.551L228.741 322.948C228.999 322.391 229.611 321.795 230.729 321.795C231.808 321.795 232.34 322.367 232.34 323.346V323.386C232.34 323.953 231.763 323.903 230.371 324.082C228.954 324.266 227.408 324.579 227.408 326.329C227.408 327.82 228.562 328.676 230.013 328.676ZM230.192 327.622C229.258 327.622 228.582 327.204 228.582 326.389C228.582 325.494 229.397 325.215 230.312 325.096C230.809 325.036 232.141 324.897 232.34 324.659V325.732C232.34 326.687 231.584 327.622 230.192 327.622ZM238.757 328.656C240.448 328.656 241.561 327.622 241.76 326.269H240.587C240.368 327.105 239.672 327.602 238.757 327.602C237.365 327.602 236.47 326.448 236.47 324.678C236.47 322.948 237.385 321.815 238.757 321.815C239.791 321.815 240.408 322.451 240.587 323.147H241.76C241.561 321.715 240.348 320.761 238.737 320.761C236.669 320.761 235.297 322.391 235.297 324.718C235.297 327.005 236.609 328.656 238.757 328.656ZM243.475 328.497H244.649V320.86H243.475V328.497ZM244.072 319.587C244.529 319.587 244.907 319.23 244.907 318.792C244.907 318.355 244.529 317.997 244.072 317.997C243.614 317.997 243.237 318.355 243.237 318.792C243.237 319.23 243.614 319.587 244.072 319.587ZM247.971 318.315H246.797V328.497H247.971V318.315ZM253.321 328.656C254.873 328.656 256.006 327.88 256.364 326.727L255.231 326.409C254.932 327.204 254.241 327.602 253.321 327.602C251.944 327.602 250.995 326.712 250.94 325.076H256.483V324.579C256.483 321.735 254.793 320.761 253.202 320.761C251.134 320.761 249.762 322.391 249.762 324.738C249.762 327.085 251.114 328.656 253.321 328.656ZM250.94 324.062C251.02 322.874 251.86 321.815 253.202 321.815C254.475 321.815 255.29 322.769 255.29 324.062H250.94ZM258.268 328.497H259.441V323.724C259.441 322.605 260.257 321.815 261.172 321.815C262.062 321.815 262.683 322.396 262.683 323.266V328.497H263.876V323.525C263.876 322.541 264.493 321.815 265.566 321.815C266.402 321.815 267.118 322.257 267.118 323.386V328.497H268.291V323.386C268.291 321.591 267.326 320.761 265.964 320.761C264.87 320.761 264.07 321.263 263.677 322.053H263.598C263.22 321.238 262.554 320.761 261.549 320.761C260.555 320.761 259.819 321.238 259.501 322.053H259.402V320.86H258.268V328.497ZM273.638 328.656C275.189 328.656 276.323 327.88 276.68 326.727L275.547 326.409C275.249 327.204 274.558 327.602 273.638 327.602C272.261 327.602 271.311 326.712 271.256 325.076H276.8V324.579C276.8 321.735 275.109 320.761 273.519 320.761C271.45 320.761 270.078 322.391 270.078 324.738C270.078 327.085 271.43 328.656 273.638 328.656ZM271.256 324.062C271.336 322.874 272.176 321.815 273.519 321.815C274.791 321.815 275.607 322.769 275.607 324.062H271.256ZM279.758 323.903C279.758 322.57 280.583 321.815 281.707 321.815C282.796 321.815 283.457 322.526 283.457 323.724V328.497H284.63V323.644C284.63 321.695 283.591 320.761 282.045 320.761C280.891 320.761 280.176 321.278 279.818 322.053H279.718V320.86H278.585V328.497H279.758V323.903ZM290.095 320.86H288.464V319.031H287.291V320.86H286.138V321.855H287.291V326.627C287.291 327.96 288.365 328.596 289.359 328.596C289.797 328.596 290.075 328.516 290.234 328.457L289.996 327.403C289.896 327.423 289.737 327.462 289.479 327.462C288.962 327.462 288.464 327.303 288.464 326.309V321.855H290.095V320.86Z" fill="#94A3B8"/>
<rect x="16" y="636" width="343" height="50" rx="6" fill="#243DE2"/>
<path d="M144.55 658.562H146.578C146.538 656.597 144.862 655.205 142.385 655.205C139.942 655.205 138.107 656.58 138.112 658.636C138.112 660.307 139.3 661.267 141.214 661.761L142.538 662.102C143.794 662.42 144.624 662.812 144.629 663.716C144.624 664.71 143.68 665.375 142.305 665.375C140.987 665.375 139.964 664.784 139.879 663.562H137.805C137.891 665.875 139.612 667.176 142.322 667.176C145.112 667.176 146.732 665.784 146.737 663.733C146.732 661.716 145.067 660.795 143.317 660.381L142.226 660.108C141.271 659.881 140.237 659.477 140.249 658.506C140.254 657.631 141.038 656.989 142.357 656.989C143.612 656.989 144.442 657.574 144.55 658.562ZM152.389 667.17C154.423 667.17 155.821 666.176 156.185 664.659L154.264 664.443C153.986 665.182 153.304 665.568 152.418 665.568C151.088 665.568 150.207 664.693 150.19 663.199H156.27V662.568C156.27 659.506 154.429 658.159 152.281 658.159C149.781 658.159 148.151 659.994 148.151 662.688C148.151 665.426 149.759 667.17 152.389 667.17ZM150.196 661.812C150.259 660.699 151.082 659.761 152.31 659.761C153.491 659.761 154.287 660.625 154.298 661.812H150.196ZM165.786 667.17C167.979 667.17 169.376 665.869 169.524 664.017H167.558C167.382 664.955 166.706 665.494 165.803 665.494C164.518 665.494 163.689 664.42 163.689 662.636C163.689 660.875 164.536 659.818 165.803 659.818C166.791 659.818 167.399 660.455 167.558 661.295H169.524C169.382 659.403 167.905 658.159 165.774 658.159C163.217 658.159 161.604 660.006 161.604 662.67C161.604 665.312 163.178 667.17 165.786 667.17ZM175.02 667.17C177.577 667.17 179.202 665.369 179.202 662.67C179.202 659.966 177.577 658.159 175.02 658.159C172.463 658.159 170.838 659.966 170.838 662.67C170.838 665.369 172.463 667.17 175.02 667.17ZM175.031 665.523C173.616 665.523 172.923 664.261 172.923 662.665C172.923 661.068 173.616 659.79 175.031 659.79C176.423 659.79 177.116 661.068 177.116 662.665C177.116 664.261 176.423 665.523 175.031 665.523ZM183.004 661.886C183.004 660.625 183.766 659.898 184.851 659.898C185.913 659.898 186.55 660.597 186.55 661.761V667H188.607V661.443C188.612 659.352 187.419 658.159 185.618 658.159C184.311 658.159 183.413 658.784 183.016 659.756H182.913V658.273H180.947V667H183.004V661.886ZM192.754 661.886C192.754 660.625 193.516 659.898 194.601 659.898C195.663 659.898 196.3 660.597 196.3 661.761V667H198.357V661.443C198.362 659.352 197.169 658.159 195.368 658.159C194.061 658.159 193.163 658.784 192.766 659.756H192.663V658.273H190.697V667H192.754V661.886ZM204.311 667.17C206.345 667.17 207.743 666.176 208.107 664.659L206.186 664.443C205.908 665.182 205.226 665.568 204.339 665.568C203.01 665.568 202.129 664.693 202.112 663.199H208.192V662.568C208.192 659.506 206.351 658.159 204.203 658.159C201.703 658.159 200.072 659.994 200.072 662.688C200.072 665.426 201.68 667.17 204.311 667.17ZM202.118 661.812C202.18 660.699 203.004 659.761 204.232 659.761C205.413 659.761 206.209 660.625 206.22 661.812H202.118ZM213.739 667.17C215.932 667.17 217.33 665.869 217.477 664.017H215.511C215.335 664.955 214.659 665.494 213.756 665.494C212.472 665.494 211.642 664.42 211.642 662.636C211.642 660.875 212.489 659.818 213.756 659.818C214.744 659.818 215.352 660.455 215.511 661.295H217.477C217.335 659.403 215.858 658.159 213.727 658.159C211.17 658.159 209.557 660.006 209.557 662.67C209.557 665.312 211.131 667.17 213.739 667.17ZM223.524 658.273H221.803V656.182H219.746V658.273H218.507V659.864H219.746V664.716C219.734 666.358 220.928 667.165 222.473 667.119C223.058 667.102 223.462 666.989 223.683 666.915L223.337 665.307C223.223 665.335 222.99 665.386 222.734 665.386C222.217 665.386 221.803 665.205 221.803 664.375V659.864H223.524V658.273ZM229.014 667.17C231.048 667.17 232.446 666.176 232.81 664.659L230.889 664.443C230.611 665.182 229.929 665.568 229.043 665.568C227.713 665.568 226.832 664.693 226.815 663.199H232.895V662.568C232.895 659.506 231.054 658.159 228.906 658.159C226.406 658.159 224.776 659.994 224.776 662.688C224.776 665.426 226.384 667.17 229.014 667.17ZM226.821 661.812C226.884 660.699 227.707 659.761 228.935 659.761C230.116 659.761 230.912 660.625 230.923 661.812H226.821ZM234.635 667H236.692V661.869C236.692 660.761 237.527 659.977 238.658 659.977C239.004 659.977 239.436 660.04 239.612 660.097V658.205C239.425 658.17 239.101 658.148 238.874 658.148C237.874 658.148 237.038 658.716 236.72 659.727H236.629V658.273H234.635V667Z" fill="white"/>
<path d="M78.2834 731H83.6186V730.062H79.3402V727.097H83.2777V726.159H79.3402V723.21H83.5504V722.273H78.2834V731ZM86.3246 727.062C86.3246 725.92 87.032 725.273 87.995 725.273C88.9283 725.273 89.495 725.882 89.495 726.909V731H90.5007V726.841C90.5007 725.17 89.6101 724.369 88.2848 724.369C87.2962 724.369 86.6825 724.812 86.3757 725.477H86.2905V724.455H85.3189V731H86.3246V727.062ZM101.066 724.455H99.9748L98.168 729.67H98.0998L96.293 724.455H95.2021L97.6225 731H98.6452L101.066 724.455ZM104.818 731.136C106.591 731.136 107.784 729.79 107.784 727.761C107.784 725.716 106.591 724.369 104.818 724.369C103.045 724.369 101.852 725.716 101.852 727.761C101.852 729.79 103.045 731.136 104.818 731.136ZM104.818 730.233C103.471 730.233 102.858 729.074 102.858 727.761C102.858 726.449 103.471 725.273 104.818 725.273C106.164 725.273 106.778 726.449 106.778 727.761C106.778 729.074 106.164 730.233 104.818 730.233ZM113.444 728.324C113.444 729.551 112.506 730.114 111.756 730.114C110.921 730.114 110.325 729.5 110.325 728.545V724.455H109.319V728.614C109.319 730.284 110.205 731.085 111.433 731.085C112.421 731.085 113.069 730.557 113.376 729.892H113.444V731H114.45V724.455H113.444V728.324ZM120.928 725.92C120.613 724.991 119.905 724.369 118.61 724.369C117.229 724.369 116.206 725.153 116.206 726.261C116.206 727.165 116.743 727.77 117.945 728.051L119.036 728.307C119.696 728.46 120.007 728.776 120.007 729.227C120.007 729.79 119.411 730.25 118.473 730.25C117.651 730.25 117.135 729.896 116.956 729.193L116.002 729.432C116.236 730.544 117.152 731.136 118.49 731.136C120.012 731.136 121.047 730.305 121.047 729.176C121.047 728.264 120.476 727.689 119.309 727.403L118.337 727.165C117.561 726.973 117.212 726.713 117.212 726.21C117.212 725.648 117.809 725.239 118.61 725.239C119.488 725.239 119.85 725.724 120.025 726.176L120.928 725.92ZM128.595 731.136C130.044 731.136 130.999 730.25 131.169 729.091H130.163C129.976 729.807 129.379 730.233 128.595 730.233C127.402 730.233 126.635 729.244 126.635 727.727C126.635 726.244 127.419 725.273 128.595 725.273C129.482 725.273 130.01 725.818 130.163 726.415H131.169C130.999 725.188 129.959 724.369 128.578 724.369C126.805 724.369 125.629 725.767 125.629 727.761C125.629 729.722 126.754 731.136 128.595 731.136ZM135.298 731.136C137.071 731.136 138.264 729.79 138.264 727.761C138.264 725.716 137.071 724.369 135.298 724.369C133.526 724.369 132.332 725.716 132.332 727.761C132.332 729.79 133.526 731.136 135.298 731.136ZM135.298 730.233C133.952 730.233 133.338 729.074 133.338 727.761C133.338 726.449 133.952 725.273 135.298 725.273C136.645 725.273 137.259 726.449 137.259 727.761C137.259 729.074 136.645 730.233 135.298 730.233ZM140.805 727.062C140.805 725.92 141.512 725.273 142.475 725.273C143.409 725.273 143.975 725.882 143.975 726.909V731H144.981V726.841C144.981 725.17 144.091 724.369 142.765 724.369C141.777 724.369 141.163 724.812 140.856 725.477H140.771V724.455H139.799V731H140.805V727.062ZM147.825 727.062C147.825 725.92 148.532 725.273 149.495 725.273C150.428 725.273 150.995 725.882 150.995 726.909V731H152.001V726.841C152.001 725.17 151.11 724.369 149.785 724.369C148.796 724.369 148.183 724.812 147.876 725.477H147.79V724.455H146.819V731H147.825V727.062ZM156.583 731.136C157.912 731.136 158.884 730.472 159.191 729.483L158.219 729.21C157.963 729.892 157.371 730.233 156.583 730.233C155.402 730.233 154.588 729.47 154.542 728.068H159.293V727.642C159.293 725.205 157.844 724.369 156.48 724.369C154.708 724.369 153.532 725.767 153.532 727.778C153.532 729.79 154.691 731.136 156.583 731.136ZM154.542 727.199C154.61 726.18 155.33 725.273 156.48 725.273C157.571 725.273 158.27 726.091 158.27 727.199H154.542ZM163.482 731.136C164.931 731.136 165.885 730.25 166.056 729.091H165.05C164.863 729.807 164.266 730.233 163.482 730.233C162.289 730.233 161.522 729.244 161.522 727.727C161.522 726.244 162.306 725.273 163.482 725.273C164.368 725.273 164.897 725.818 165.05 726.415H166.056C165.885 725.188 164.846 724.369 163.465 724.369C161.692 724.369 160.516 725.767 160.516 727.761C160.516 729.722 161.641 731.136 163.482 731.136ZM170.373 724.455H168.975V722.886H167.969V724.455H166.98V725.307H167.969V729.398C167.969 730.54 168.89 731.085 169.742 731.085C170.117 731.085 170.355 731.017 170.492 730.966L170.287 730.062C170.202 730.08 170.066 730.114 169.844 730.114C169.401 730.114 168.975 729.977 168.975 729.125V725.307H170.373V724.455ZM173.811 731.153C174.953 731.153 175.55 730.54 175.755 730.114H175.806V731H176.811V726.688C176.811 724.608 175.226 724.369 174.391 724.369C173.402 724.369 172.277 724.71 171.766 725.903L172.721 726.244C172.942 725.767 173.466 725.256 174.425 725.256C175.35 725.256 175.806 725.746 175.806 726.585V726.619C175.806 727.105 175.311 727.062 174.118 727.216C172.904 727.374 171.578 727.642 171.578 729.142C171.578 730.42 172.567 731.153 173.811 731.153ZM173.965 730.25C173.164 730.25 172.584 729.892 172.584 729.193C172.584 728.426 173.283 728.188 174.067 728.085C174.493 728.034 175.635 727.915 175.806 727.71V728.631C175.806 729.449 175.158 730.25 173.965 730.25ZM179.653 727.062C179.653 725.92 180.36 725.273 181.323 725.273C182.256 725.273 182.823 725.882 182.823 726.909V731H183.829V726.841C183.829 725.17 182.938 724.369 181.613 724.369C180.624 724.369 180.011 724.812 179.704 725.477H179.619V724.455H178.647V731H179.653V727.062ZM188.513 724.455H187.115V722.886H186.11V724.455H185.121V725.307H186.11V729.398C186.11 730.54 187.03 731.085 187.882 731.085C188.257 731.085 188.496 731.017 188.632 730.966L188.428 730.062C188.343 730.08 188.206 730.114 187.985 730.114C187.542 730.114 187.115 729.977 187.115 729.125V725.307H188.513V724.455ZM191.526 729.807H190.435L190.384 730.284C190.26 731.439 190.017 732.589 189.907 733.131H190.674C190.878 732.551 191.313 731.239 191.458 730.267L191.526 729.807ZM202.116 724.455H201.026L199.219 729.67H199.151L197.344 724.455H196.253L198.673 731H199.696L202.116 724.455ZM205.869 731.136C207.641 731.136 208.835 729.79 208.835 727.761C208.835 725.716 207.641 724.369 205.869 724.369C204.096 724.369 202.903 725.716 202.903 727.761C202.903 729.79 204.096 731.136 205.869 731.136ZM205.869 730.233C204.522 730.233 203.908 729.074 203.908 727.761C203.908 726.449 204.522 725.273 205.869 725.273C207.215 725.273 207.829 726.449 207.829 727.761C207.829 729.074 207.215 730.233 205.869 730.233ZM214.495 728.324C214.495 729.551 213.557 730.114 212.807 730.114C211.972 730.114 211.375 729.5 211.375 728.545V724.455H210.37V728.614C210.37 730.284 211.256 731.085 212.483 731.085C213.472 731.085 214.12 730.557 214.426 729.892H214.495V731H215.5V724.455H214.495V728.324ZM221.979 725.92C221.663 724.991 220.956 724.369 219.661 724.369C218.28 724.369 217.257 725.153 217.257 726.261C217.257 727.165 217.794 727.77 218.996 728.051L220.087 728.307C220.747 728.46 221.058 728.776 221.058 729.227C221.058 729.79 220.462 730.25 219.524 730.25C218.702 730.25 218.186 729.896 218.007 729.193L217.053 729.432C217.287 730.544 218.203 731.136 219.541 731.136C221.062 731.136 222.098 730.305 222.098 729.176C222.098 728.264 221.527 727.689 220.359 727.403L219.388 727.165C218.612 726.973 218.263 726.713 218.263 726.21C218.263 725.648 218.859 725.239 219.661 725.239C220.538 725.239 220.901 725.724 221.075 726.176L221.979 725.92ZM228.913 731.153C230.055 731.153 230.652 730.54 230.856 730.114H230.907V731H231.913V726.688C231.913 724.608 230.328 724.369 229.493 724.369C228.504 724.369 227.379 724.71 226.868 725.903L227.822 726.244C228.044 725.767 228.568 725.256 229.527 725.256C230.451 725.256 230.907 725.746 230.907 726.585V726.619C230.907 727.105 230.413 727.062 229.22 727.216C228.005 727.374 226.68 727.642 226.68 729.142C226.68 730.42 227.669 731.153 228.913 731.153ZM229.066 730.25C228.265 730.25 227.686 729.892 227.686 729.193C227.686 728.426 228.385 728.188 229.169 728.085C229.595 728.034 230.737 727.915 230.907 727.71V728.631C230.907 729.449 230.26 730.25 229.066 730.25ZM236.408 731.136C237.857 731.136 238.811 730.25 238.982 729.091H237.976C237.788 729.807 237.192 730.233 236.408 730.233C235.214 730.233 234.447 729.244 234.447 727.727C234.447 726.244 235.232 725.273 236.408 725.273C237.294 725.273 237.822 725.818 237.976 726.415H238.982C238.811 725.188 237.771 724.369 236.391 724.369C234.618 724.369 233.442 725.767 233.442 727.761C233.442 729.722 234.567 731.136 236.408 731.136ZM243.111 731.136C244.56 731.136 245.514 730.25 245.685 729.091H244.679C244.491 729.807 243.895 730.233 243.111 730.233C241.918 730.233 241.151 729.244 241.151 727.727C241.151 726.244 241.935 725.273 243.111 725.273C243.997 725.273 244.526 725.818 244.679 726.415H245.685C245.514 725.188 244.474 724.369 243.094 724.369C241.321 724.369 240.145 725.767 240.145 727.761C240.145 729.722 241.27 731.136 243.111 731.136ZM249.899 731.136C251.229 731.136 252.2 730.472 252.507 729.483L251.536 729.21C251.28 729.892 250.688 730.233 249.899 730.233C248.719 730.233 247.905 729.47 247.858 728.068H252.609V727.642C252.609 725.205 251.161 724.369 249.797 724.369C248.024 724.369 246.848 725.767 246.848 727.778C246.848 729.79 248.007 731.136 249.899 731.136ZM247.858 727.199C247.926 726.18 248.646 725.273 249.797 725.273C250.888 725.273 251.587 726.091 251.587 727.199H247.858ZM254.139 733.455H255.145V729.994H255.23C255.452 730.352 255.878 731.136 257.139 731.136C258.776 731.136 259.918 729.824 259.918 727.744C259.918 725.682 258.776 724.369 257.122 724.369C255.844 724.369 255.452 725.153 255.23 725.494H255.111V724.455H254.139V733.455ZM255.128 727.727C255.128 726.261 255.776 725.273 257.003 725.273C258.281 725.273 258.912 726.347 258.912 727.727C258.912 729.125 258.264 730.233 257.003 730.233C255.793 730.233 255.128 729.21 255.128 727.727ZM264.298 724.455H262.901V722.886H261.895V724.455H260.906V725.307H261.895V729.398C261.895 730.54 262.815 731.085 263.668 731.085C264.043 731.085 264.281 731.017 264.418 730.966L264.213 730.062C264.128 730.08 263.991 730.114 263.77 730.114C263.327 730.114 262.901 729.977 262.901 729.125V725.307H264.298V724.455ZM268.485 731.136C269.815 731.136 270.786 730.472 271.093 729.483L270.121 729.21C269.866 729.892 269.273 730.233 268.485 730.233C267.305 730.233 266.491 729.47 266.444 728.068H271.195V727.642C271.195 725.205 269.746 724.369 268.383 724.369C266.61 724.369 265.434 725.767 265.434 727.778C265.434 729.79 266.593 731.136 268.485 731.136ZM266.444 727.199C266.512 726.18 267.232 725.273 268.383 725.273C269.474 725.273 270.173 726.091 270.173 727.199H266.444ZM272.538 731H277.668V730.062H273.935V729.994L277.549 725.256V724.455H272.657V725.392H276.254V725.46L272.538 730.233V731ZM283.598 722.273H282.592V731H283.598V722.273ZM288.184 731.136C289.514 731.136 290.485 730.472 290.792 729.483L289.821 729.21C289.565 729.892 288.973 730.233 288.184 730.233C287.004 730.233 286.19 729.47 286.143 728.068H290.895V727.642C290.895 725.205 289.446 724.369 288.082 724.369C286.309 724.369 285.133 725.767 285.133 727.778C285.133 729.79 286.292 731.136 288.184 731.136ZM286.143 727.199C286.211 726.18 286.931 725.273 288.082 725.273C289.173 725.273 289.872 726.091 289.872 727.199H286.143ZM297.061 725.92C296.745 724.991 296.038 724.369 294.743 724.369C293.362 724.369 292.339 725.153 292.339 726.261C292.339 727.165 292.876 727.77 294.078 728.051L295.169 728.307C295.829 728.46 296.14 728.776 296.14 729.227C296.14 729.79 295.544 730.25 294.606 730.25C293.784 730.25 293.268 729.896 293.089 729.193L292.135 729.432C292.369 730.544 293.285 731.136 294.623 731.136C296.145 731.136 297.18 730.305 297.18 729.176C297.18 728.264 296.609 727.689 295.441 727.403L294.47 727.165C293.694 726.973 293.345 726.713 293.345 726.21C293.345 725.648 293.941 725.239 294.743 725.239C295.62 725.239 295.983 725.724 296.157 726.176L297.061 725.92ZM188.894 749.119C189.695 749.119 190.59 748.838 191.157 748.259L191.775 749H192.985L191.779 747.53C192.107 747.108 192.474 746.401 192.474 745.182H191.502C191.502 745.778 191.366 746.307 191.14 746.746L189.243 744.432L189.883 743.955C190.599 743.426 191.042 742.847 191.042 742.011C191.042 741.04 190.241 740.188 188.928 740.188C187.65 740.188 186.814 740.989 186.814 742.165C186.814 742.94 187.236 743.537 187.837 744.261C186.819 744.969 186.116 745.625 186.116 746.682C186.116 748.097 187.172 749.119 188.894 749.119ZM190.556 747.53C190.074 747.982 189.465 748.233 188.86 748.233C187.82 748.233 187.138 747.5 187.138 746.682C187.138 746.443 187.36 745.83 188.144 745.25L188.468 745.011L190.556 747.53ZM188.626 743.682C188.199 743.162 187.837 742.668 187.837 742.182C187.837 741.636 188.297 741.057 188.962 741.057C189.593 741.057 190.019 741.568 190.019 742.011C190.019 742.608 189.695 742.932 189.201 743.256L188.626 743.682Z" fill="#94A3B8"/>
<path d="M54.7122 749.128C56.3571 749.128 57.4054 748.152 57.5162 746.763H56.0417C55.9096 747.466 55.4025 747.871 54.725 747.871C53.7619 747.871 53.1397 747.065 53.1397 745.727C53.1397 744.406 53.7747 743.614 54.725 743.614C55.4664 743.614 55.9224 744.091 56.0417 744.722H57.5162C57.4096 743.303 56.3017 742.369 54.7037 742.369C52.786 742.369 51.5758 743.754 51.5758 745.753C51.5758 747.734 52.7562 749.128 54.7122 749.128ZM61.638 749.128C63.5556 749.128 64.7743 747.777 64.7743 745.753C64.7743 743.724 63.5556 742.369 61.638 742.369C59.7203 742.369 58.5016 743.724 58.5016 745.753C58.5016 747.777 59.7203 749.128 61.638 749.128ZM61.6465 747.892C60.5854 747.892 60.0655 746.946 60.0655 745.749C60.0655 744.551 60.5854 743.592 61.6465 743.592C62.6905 743.592 63.2104 744.551 63.2104 745.749C63.2104 746.946 62.6905 747.892 61.6465 747.892ZM67.6262 745.165C67.6262 744.219 68.1973 743.673 69.0112 743.673C69.8081 743.673 70.2853 744.197 70.2853 745.071V749H71.8279V744.832C71.8322 743.264 70.9373 742.369 69.5865 742.369C68.6064 742.369 67.9331 742.838 67.6348 743.567H67.5581V742.455H66.0836V749H67.6262V745.165ZM75.8251 749.115C76.9501 749.115 77.4572 748.446 77.7001 747.969H77.7939V749H79.3109V740.273H77.764V743.537H77.7001C77.4657 743.064 76.9842 742.369 75.8294 742.369C74.3166 742.369 73.1277 743.554 73.1277 745.736C73.1277 747.892 74.2825 749.115 75.8251 749.115ZM76.2555 747.849C75.237 747.849 74.7001 746.955 74.7001 745.727C74.7001 744.509 75.2285 743.635 76.2555 743.635C77.2484 743.635 77.7939 744.457 77.7939 745.727C77.7939 746.997 77.2399 747.849 76.2555 747.849ZM80.9547 749H82.4973V742.455H80.9547V749ZM81.7303 741.526C82.2203 741.526 82.6209 741.151 82.6209 740.69C82.6209 740.226 82.2203 739.851 81.7303 739.851C81.236 739.851 80.8354 740.226 80.8354 740.69C80.8354 741.151 81.236 741.526 81.7303 741.526ZM87.3521 742.455H86.0609V740.886H84.5183V742.455H83.5893V743.648H84.5183V747.287C84.5098 748.518 85.4047 749.124 86.5637 749.089C87.0027 749.077 87.3052 748.991 87.4714 748.936L87.2115 747.73C87.1262 747.751 86.9515 747.79 86.7598 747.79C86.372 747.79 86.0609 747.653 86.0609 747.031V743.648H87.3521V742.455ZM88.6422 749H90.1848V742.455H88.6422V749ZM89.4178 741.526C89.9078 741.526 90.3084 741.151 90.3084 740.69C90.3084 740.226 89.9078 739.851 89.4178 739.851C88.9235 739.851 88.5229 740.226 88.5229 740.69C88.5229 741.151 88.9235 741.526 89.4178 741.526ZM94.6262 749.128C96.5439 749.128 97.7626 747.777 97.7626 745.753C97.7626 743.724 96.5439 742.369 94.6262 742.369C92.7086 742.369 91.4899 743.724 91.4899 745.753C91.4899 747.777 92.7086 749.128 94.6262 749.128ZM94.6348 747.892C93.5737 747.892 93.0538 746.946 93.0538 745.749C93.0538 744.551 93.5737 743.592 94.6348 743.592C95.6788 743.592 96.1987 744.551 96.1987 745.749C96.1987 746.946 95.6788 747.892 94.6348 747.892ZM100.615 745.165C100.615 744.219 101.186 743.673 101.999 743.673C102.796 743.673 103.274 744.197 103.274 745.071V749H104.816V744.832C104.82 743.264 103.926 742.369 102.575 742.369C101.595 742.369 100.921 742.838 100.623 743.567H100.546V742.455H99.0719V749H100.615V745.165ZM111.558 744.185C111.345 743.077 110.458 742.369 108.924 742.369C107.347 742.369 106.274 743.145 106.278 744.355C106.274 745.31 106.862 745.94 108.119 746.2L109.235 746.435C109.836 746.567 110.117 746.81 110.117 747.18C110.117 747.628 109.632 747.964 108.899 747.964C108.191 747.964 107.731 747.658 107.599 747.07L106.095 747.214C106.286 748.416 107.296 749.128 108.903 749.128C110.539 749.128 111.694 748.28 111.698 747.04C111.694 746.107 111.093 745.536 109.857 745.267L108.741 745.028C108.076 744.879 107.812 744.649 107.816 744.27C107.812 743.827 108.302 743.52 108.945 743.52C109.657 743.52 110.032 743.908 110.151 744.338L111.558 744.185ZM118.376 749.115C119.501 749.115 120.008 748.446 120.251 747.969H120.345V749H121.862V740.273H120.315V743.537H120.251C120.017 743.064 119.535 742.369 118.38 742.369C116.867 742.369 115.678 743.554 115.678 745.736C115.678 747.892 116.833 749.115 118.376 749.115ZM118.806 747.849C117.788 747.849 117.251 746.955 117.251 745.727C117.251 744.509 117.779 743.635 118.806 743.635C119.799 743.635 120.345 744.457 120.345 745.727C120.345 746.997 119.791 747.849 118.806 747.849ZM126.403 749.128C127.929 749.128 128.977 748.382 129.25 747.244L127.809 747.082C127.601 747.636 127.089 747.926 126.425 747.926C125.427 747.926 124.767 747.27 124.754 746.149H129.314V745.676C129.314 743.379 127.933 742.369 126.322 742.369C124.447 742.369 123.224 743.746 123.224 745.766C123.224 747.82 124.43 749.128 126.403 749.128ZM124.758 745.109C124.805 744.274 125.423 743.571 126.344 743.571C127.23 743.571 127.827 744.219 127.835 745.109H124.758ZM138.769 744.185C138.556 743.077 137.669 742.369 136.135 742.369C134.558 742.369 133.485 743.145 133.489 744.355C133.485 745.31 134.073 745.94 135.33 746.2L136.446 746.435C137.047 746.567 137.328 746.81 137.328 747.18C137.328 747.628 136.843 747.964 136.11 747.964C135.402 747.964 134.942 747.658 134.81 747.07L133.306 747.214C133.497 748.416 134.507 749.128 136.114 749.128C137.75 749.128 138.905 748.28 138.909 747.04C138.905 746.107 138.304 745.536 137.068 745.267L135.952 745.028C135.287 744.879 135.023 744.649 135.027 744.27C135.023 743.827 135.513 743.52 136.156 743.52C136.868 743.52 137.243 743.908 137.362 744.338L138.769 744.185ZM143.079 749.128C144.605 749.128 145.653 748.382 145.926 747.244L144.485 747.082C144.276 747.636 143.765 747.926 143.1 747.926C142.103 747.926 141.443 747.27 141.43 746.149H145.99V745.676C145.99 743.379 144.609 742.369 142.998 742.369C141.123 742.369 139.9 743.746 139.9 745.766C139.9 747.82 141.106 749.128 143.079 749.128ZM141.434 745.109C141.481 744.274 142.099 743.571 143.019 743.571C143.906 743.571 144.502 744.219 144.511 745.109H141.434ZM147.295 749H148.837V745.152C148.837 744.321 149.464 743.733 150.312 743.733C150.572 743.733 150.895 743.78 151.028 743.822V742.403C150.887 742.378 150.644 742.361 150.474 742.361C149.724 742.361 149.097 742.787 148.858 743.545H148.79V742.455H147.295V749ZM158.098 742.455H156.458L154.949 747.317H154.881L153.377 742.455H151.732L154.063 749H155.767L158.098 742.455ZM159.166 749H160.708V742.455H159.166V749ZM159.941 741.526C160.431 741.526 160.832 741.151 160.832 740.69C160.832 740.226 160.431 739.851 159.941 739.851C159.447 739.851 159.046 740.226 159.046 740.69C159.046 741.151 159.447 741.526 159.941 741.526ZM165.15 749.128C166.795 749.128 167.843 748.152 167.954 746.763H166.479C166.347 747.466 165.84 747.871 165.162 747.871C164.199 747.871 163.577 747.065 163.577 745.727C163.577 744.406 164.212 743.614 165.162 743.614C165.904 743.614 166.36 744.091 166.479 744.722H167.954C167.847 743.303 166.739 742.369 165.141 742.369C163.224 742.369 162.013 743.754 162.013 745.753C162.013 747.734 163.194 749.128 165.15 749.128ZM172.118 749.128C173.644 749.128 174.692 748.382 174.965 747.244L173.524 747.082C173.316 747.636 172.804 747.926 172.139 747.926C171.142 747.926 170.482 747.27 170.469 746.149H175.029V745.676C175.029 743.379 173.648 742.369 172.037 742.369C170.162 742.369 168.939 743.746 168.939 745.766C168.939 747.82 170.145 749.128 172.118 749.128ZM170.473 745.109C170.52 744.274 171.138 743.571 172.058 743.571C172.945 743.571 173.541 744.219 173.55 745.109H170.473ZM181.507 744.185C181.294 743.077 180.407 742.369 178.873 742.369C177.297 742.369 176.223 743.145 176.227 744.355C176.223 745.31 176.811 745.94 178.068 746.2L179.184 746.435C179.785 746.567 180.067 746.81 180.067 747.18C180.067 747.628 179.581 747.964 178.848 747.964C178.14 747.964 177.68 747.658 177.548 747.07L176.044 747.214C176.236 748.416 177.246 749.128 178.852 749.128C180.488 749.128 181.643 748.28 181.648 747.04C181.643 746.107 181.042 745.536 179.807 745.267L178.69 745.028C178.025 744.879 177.761 744.649 177.765 744.27C177.761 743.827 178.251 743.52 178.895 743.52C179.606 743.52 179.981 743.908 180.101 744.338L181.507 744.185ZM200.2 749.128C201.845 749.128 202.894 748.152 203.004 746.763H201.53C201.398 747.466 200.891 747.871 200.213 747.871C199.25 747.871 198.628 747.065 198.628 745.727C198.628 744.406 199.263 743.614 200.213 743.614C200.955 743.614 201.411 744.091 201.53 744.722H203.004C202.898 743.303 201.79 742.369 200.192 742.369C198.274 742.369 197.064 743.754 197.064 745.753C197.064 747.734 198.244 749.128 200.2 749.128ZM207.126 749.128C209.044 749.128 210.263 747.777 210.263 745.753C210.263 743.724 209.044 742.369 207.126 742.369C205.209 742.369 203.99 743.724 203.99 745.753C203.99 747.777 205.209 749.128 207.126 749.128ZM207.135 747.892C206.074 747.892 205.554 746.946 205.554 745.749C205.554 744.551 206.074 743.592 207.135 743.592C208.179 743.592 208.699 744.551 208.699 745.749C208.699 746.946 208.179 747.892 207.135 747.892ZM213.115 745.165C213.115 744.219 213.686 743.673 214.499 743.673C215.296 743.673 215.774 744.197 215.774 745.071V749H217.316V744.832C217.32 743.264 216.426 742.369 215.075 742.369C214.095 742.369 213.421 742.838 213.123 743.567H213.046V742.455H211.572V749H213.115V745.165ZM221.313 749.115C222.438 749.115 222.945 748.446 223.188 747.969H223.282V749H224.799V740.273H223.252V743.537H223.188C222.954 743.064 222.472 742.369 221.318 742.369C219.805 742.369 218.616 743.554 218.616 745.736C218.616 747.892 219.771 749.115 221.313 749.115ZM221.744 747.849C220.725 747.849 220.188 746.955 220.188 745.727C220.188 744.509 220.717 743.635 221.744 743.635C222.737 743.635 223.282 744.457 223.282 745.727C223.282 746.997 222.728 747.849 221.744 747.849ZM226.443 749H227.986V742.455H226.443V749ZM227.219 741.526C227.709 741.526 228.109 741.151 228.109 740.69C228.109 740.226 227.709 739.851 227.219 739.851C226.724 739.851 226.324 740.226 226.324 740.69C226.324 741.151 226.724 741.526 227.219 741.526ZM232.84 742.455H231.549V740.886H230.007V742.455H229.078V743.648H230.007V747.287C229.998 748.518 230.893 749.124 232.052 749.089C232.491 749.077 232.794 748.991 232.96 748.936L232.7 747.73C232.615 747.751 232.44 747.79 232.248 747.79C231.86 747.79 231.549 747.653 231.549 747.031V743.648H232.84V742.455ZM234.131 749H235.673V742.455H234.131V749ZM234.906 741.526C235.396 741.526 235.797 741.151 235.797 740.69C235.797 740.226 235.396 739.851 234.906 739.851C234.412 739.851 234.011 740.226 234.011 740.69C234.011 741.151 234.412 741.526 234.906 741.526ZM240.115 749.128C242.032 749.128 243.251 747.777 243.251 745.753C243.251 743.724 242.032 742.369 240.115 742.369C238.197 742.369 236.978 743.724 236.978 745.753C236.978 747.777 238.197 749.128 240.115 749.128ZM240.123 747.892C239.062 747.892 238.542 746.946 238.542 745.749C238.542 744.551 239.062 743.592 240.123 743.592C241.167 743.592 241.687 744.551 241.687 745.749C241.687 746.946 241.167 747.892 240.123 747.892ZM246.103 745.165C246.103 744.219 246.674 743.673 247.488 743.673C248.285 743.673 248.762 744.197 248.762 745.071V749H250.305V744.832C250.309 743.264 249.414 742.369 248.063 742.369C247.083 742.369 246.41 742.838 246.111 743.567H246.035V742.455H244.56V749H246.103V745.165ZM257.046 744.185C256.833 743.077 255.947 742.369 254.412 742.369C252.836 742.369 251.762 743.145 251.766 744.355C251.762 745.31 252.35 745.94 253.607 746.2L254.724 746.435C255.324 746.567 255.606 746.81 255.606 747.18C255.606 747.628 255.12 747.964 254.387 747.964C253.68 747.964 253.219 747.658 253.087 747.07L251.583 747.214C251.775 748.416 252.785 749.128 254.391 749.128C256.028 749.128 257.182 748.28 257.187 747.04C257.182 746.107 256.581 745.536 255.346 745.267L254.229 745.028C253.564 744.879 253.3 744.649 253.305 744.27C253.3 743.827 253.79 743.52 254.434 743.52C255.145 743.52 255.52 743.908 255.64 744.338L257.046 744.185ZM263.864 749.115C264.989 749.115 265.496 748.446 265.739 747.969H265.833V749H267.35V740.273H265.803V743.537H265.739C265.505 743.064 265.023 742.369 263.868 742.369C262.356 742.369 261.167 743.554 261.167 745.736C261.167 747.892 262.322 749.115 263.864 749.115ZM264.295 747.849C263.276 747.849 262.739 746.955 262.739 745.727C262.739 744.509 263.268 743.635 264.295 743.635C265.287 743.635 265.833 744.457 265.833 745.727C265.833 746.997 265.279 747.849 264.295 747.849ZM270.302 740.273H269.075V741.151C269.075 741.845 268.802 742.378 268.491 742.847L269.207 743.311C269.833 742.791 270.302 741.896 270.302 741.142V740.273ZM275.252 746.247C275.252 747.244 274.54 747.739 273.858 747.739C273.117 747.739 272.622 747.214 272.622 746.384V742.455H271.08V746.622C271.08 748.195 271.975 749.085 273.262 749.085C274.242 749.085 274.932 748.57 275.23 747.837H275.298V749H276.794V742.455H275.252V746.247ZM281.649 742.455H280.358V740.886H278.815V742.455H277.886V743.648H278.815V747.287C278.807 748.518 279.702 749.124 280.861 749.089C281.3 749.077 281.602 748.991 281.768 748.936L281.508 747.73C281.423 747.751 281.248 747.79 281.057 747.79C280.669 747.79 280.358 747.653 280.358 747.031V743.648H281.649V742.455ZM282.939 749H284.482V742.455H282.939V749ZM283.715 741.526C284.205 741.526 284.605 741.151 284.605 740.69C284.605 740.226 284.205 739.851 283.715 739.851C283.22 739.851 282.82 740.226 282.82 740.69C282.82 741.151 283.22 741.526 283.715 741.526ZM287.611 740.273H286.068V749H287.611V740.273ZM289.197 749H290.74V742.455H289.197V749ZM289.972 741.526C290.463 741.526 290.863 741.151 290.863 740.69C290.863 740.226 290.463 739.851 289.972 739.851C289.478 739.851 289.078 740.226 289.078 740.69C289.078 741.151 289.478 741.526 289.972 741.526ZM297.499 744.185C297.286 743.077 296.4 742.369 294.866 742.369C293.289 742.369 292.215 743.145 292.219 744.355C292.215 745.31 292.803 745.94 294.06 746.2L295.177 746.435C295.778 746.567 296.059 746.81 296.059 747.18C296.059 747.628 295.573 747.964 294.84 747.964C294.133 747.964 293.672 747.658 293.54 747.07L292.036 747.214C292.228 748.416 293.238 749.128 294.844 749.128C296.481 749.128 297.635 748.28 297.64 747.04C297.635 746.107 297.035 745.536 295.799 745.267L294.682 745.028C294.018 744.879 293.753 744.649 293.758 744.27C293.753 743.827 294.243 743.52 294.887 743.52C295.599 743.52 295.974 743.908 296.093 744.338L297.499 744.185ZM300.795 749.132C301.822 749.132 302.436 748.651 302.717 748.101H302.768V749H304.251V744.619C304.251 742.889 302.841 742.369 301.592 742.369C300.216 742.369 299.159 742.983 298.818 744.176L300.258 744.381C300.412 743.933 300.846 743.55 301.601 743.55C302.317 743.55 302.709 743.916 302.709 744.56V744.585C302.709 745.028 302.244 745.05 301.089 745.173C299.819 745.31 298.605 745.689 298.605 747.163C298.605 748.45 299.547 749.132 300.795 749.132ZM301.196 747.999C300.552 747.999 300.092 747.705 300.092 747.138C300.092 746.545 300.608 746.298 301.298 746.2C301.703 746.145 302.513 746.043 302.713 745.881V746.652C302.713 747.381 302.125 747.999 301.196 747.999ZM309.071 742.455H307.78V740.886H306.237V742.455H305.308V743.648H306.237V747.287C306.229 748.518 307.123 749.124 308.282 749.089C308.721 749.077 309.024 748.991 309.19 748.936L308.93 747.73C308.845 747.751 308.67 747.79 308.479 747.79C308.091 747.79 307.78 747.653 307.78 747.031V743.648H309.071V742.455ZM310.361 749H311.904V742.455H310.361V749ZM311.137 741.526C311.627 741.526 312.027 741.151 312.027 740.69C312.027 740.226 311.627 739.851 311.137 739.851C310.642 739.851 310.242 740.226 310.242 740.69C310.242 741.151 310.642 741.526 311.137 741.526ZM316.345 749.128C318.263 749.128 319.481 747.777 319.481 745.753C319.481 743.724 318.263 742.369 316.345 742.369C314.427 742.369 313.209 743.724 313.209 745.753C313.209 747.777 314.427 749.128 316.345 749.128ZM316.354 747.892C315.292 747.892 314.773 746.946 314.773 745.749C314.773 744.551 315.292 743.592 316.354 743.592C317.398 743.592 317.917 744.551 317.917 745.749C317.917 746.946 317.398 747.892 316.354 747.892ZM322.333 745.165C322.333 744.219 322.904 743.673 323.718 743.673C324.515 743.673 324.992 744.197 324.992 745.071V749H326.535V744.832C326.539 743.264 325.644 742.369 324.294 742.369C323.313 742.369 322.64 742.838 322.342 743.567H322.265V742.455H320.791V749H322.333V745.165Z" fill="white"/>
<rect width="375" height="34" transform="translate(0 778)" fill="#0F172A"/>
<path fill-rule="evenodd" clip-rule="evenodd" d="M114 801.5C114 800.119 115.119 799 116.5 799H259.5C260.881 799 262 800.119 262 801.5C262 802.881 260.881 804 259.5 804H116.5C115.119 804 114 802.881 114 801.5Z" fill="white"/>
<rect width="375" height="44" fill="#0F172A"/>
<path d="M34.9886 18.2045C32.5455 18.1818 30.9489 19.9375 30.9489 22.142C30.9545 24.3636 32.5625 25.9659 34.5795 25.9659C35.8125 25.9659 36.8693 25.3636 37.4659 24.3864H37.5568C37.5511 27.0625 36.5455 28.625 34.8409 28.625C33.7273 28.625 33.0114 27.9432 32.7841 26.9489H31.0511C31.3068 28.8295 32.7614 30.1591 34.8409 30.1591C37.5455 30.1591 39.2386 27.8352 39.2386 23.7614C39.233 19.5114 37.0625 18.2216 34.9886 18.2045ZM34.9943 19.6818C36.3409 19.6818 37.3352 20.8239 37.3352 22.1023C37.3409 23.3977 36.2898 24.5341 34.9602 24.5341C33.625 24.5341 32.6591 23.4659 32.6534 22.1193C32.6534 20.767 33.6591 19.6818 34.9943 19.6818ZM42.4332 22.7273C43.0526 22.7273 43.5696 22.2216 43.5696 21.5909C43.5696 20.9716 43.0526 20.4602 42.4332 20.4602C41.8082 20.4602 41.2969 20.9716 41.2969 21.5909C41.2969 22.2216 41.8082 22.7273 42.4332 22.7273ZM42.4332 28.5568C43.0526 28.5568 43.5696 28.0511 43.5696 27.4205C43.5696 26.8011 43.0526 26.2898 42.4332 26.2898C41.8082 26.2898 41.2969 26.8011 41.2969 27.4205C41.2969 28.0511 41.8082 28.5568 42.4332 28.5568ZM45.5781 27.7273H51.0952V30H52.7713V27.7273H54.3111V26.2386H52.7713V18.3636H50.6065L45.5781 26.3068V27.7273ZM51.1065 26.2386H47.419V26.1477L51.0156 20.4545H51.1065V26.2386ZM60.5497 18.3636H58.8395L55.9361 20.2614V21.9432L58.7202 20.125H58.7884V30H60.5497V18.3636Z" fill="white"/>
<path fill-rule="evenodd" clip-rule="evenodd" d="M305 20.5H304C303.448 20.5 303 20.9197 303 21.4375V29.5625C303 30.0803 303.448 30.5 304 30.5H305C305.552 30.5 306 30.0803 306 29.5625V21.4375C306 20.9197 305.552 20.5 305 20.5ZM299 22.5H300C300.552 22.5 301 22.9298 301 23.46V29.54C301 30.0702 300.552 30.5 300 30.5H299C298.448 30.5 298 30.0702 298 29.54V23.46C298 22.9298 298.448 22.5 299 22.5ZM295 24.5H294C293.448 24.5 293 24.9477 293 25.5V29.5C293 30.0523 293.448 30.5 294 30.5H295C295.552 30.5 296 30.0523 296 29.5V25.5C296 24.9477 295.552 24.5 295 24.5ZM290 26.5H289C288.448 26.5 288 26.9477 288 27.5V29.5C288 30.0523 288.448 30.5 289 30.5H290C290.552 30.5 291 30.0523 291 29.5V27.5C291 26.9477 290.552 26.5 290 26.5Z" fill="white"/>
<path fill-rule="evenodd" clip-rule="evenodd" d="M318.637 21.2773C320.852 21.2774 322.984 22.1289 324.59 23.6557C324.711 23.7735 324.904 23.772 325.023 23.6523L326.179 22.4857C326.239 22.4249 326.273 22.3427 326.272 22.2571C326.272 22.1715 326.237 22.0897 326.176 22.0297C321.961 17.9901 315.311 17.9901 311.096 22.0297C311.035 22.0896 311.001 22.1715 311 22.257C310.999 22.3426 311.033 22.4249 311.093 22.4857L312.25 23.6523C312.369 23.7722 312.562 23.7737 312.683 23.6557C314.289 22.1288 316.42 21.2773 318.637 21.2773ZM318.637 25.0729C319.854 25.0728 321.028 25.5254 321.931 26.3426C322.053 26.4585 322.245 26.456 322.364 26.3369L323.519 25.1702C323.579 25.109 323.613 25.026 323.612 24.9398C323.611 24.8535 323.576 24.7712 323.514 24.7112C320.766 22.1548 316.51 22.1548 313.762 24.7112C313.699 24.7712 313.664 24.8535 313.663 24.9398C313.662 25.0261 313.696 25.1091 313.757 25.1702L314.912 26.3369C315.031 26.456 315.223 26.4585 315.345 26.3426C316.247 25.5259 317.42 25.0734 318.637 25.0729ZM320.95 27.6267C320.951 27.7132 320.917 27.7966 320.856 27.8572L318.858 29.8729C318.8 29.9321 318.72 29.9655 318.637 29.9655C318.553 29.9655 318.473 29.9321 318.415 29.8729L316.417 27.8572C316.356 27.7966 316.322 27.7131 316.323 27.6266C316.325 27.5401 316.363 27.4582 316.427 27.4002C317.703 26.3213 319.571 26.3213 320.846 27.4002C320.91 27.4583 320.948 27.5402 320.95 27.6267Z" fill="white"/>
<path opacity="0.35" d="M332.5 20.6667C332.5 19.4701 333.47 18.5 334.667 18.5H354.333C355.53 18.5 356.5 19.47 356.5 20.6667V28.3333C356.5 29.53 355.53 30.5 354.333 30.5H334.667C333.47 30.5 332.5 29.53 332.5 28.3333V20.6667Z" fill="white" stroke="white"/>
<path opacity="0.4" d="M357.65 23V27C358.455 26.6612 358.978 25.8731 358.978 25C358.978 24.1269 358.455 23.3388 357.65 23Z" fill="white"/>
<path d="M334.3 21.6666C334.3 20.9302 334.897 20.3333 335.633 20.3333H353.167C353.903 20.3333 354.5 20.9302 354.5 21.6666V27.3299C354.5 28.0663 353.903 28.6633 353.167 28.6633H335.633C334.897 28.6633 334.3 28.0663 334.3 27.3299V21.6666Z" fill="white"/>
<rect x="17" y="437" width="343" height="50" rx="6" fill="#1E293B"/>
<path d="M75.1136 457.273H74.0568V466H75.1136V457.273ZM79.5678 466.136C80.8292 466.136 81.2553 465.352 81.4769 464.994H81.5962V466H82.5678V457.273H81.5621V460.494H81.4769C81.2553 460.153 80.8633 459.369 79.5849 459.369C77.9315 459.369 76.7894 460.682 76.7894 462.744C76.7894 464.824 77.9315 466.136 79.5678 466.136ZM79.7042 465.233C78.4428 465.233 77.7951 464.125 77.7951 462.727C77.7951 461.347 78.4258 460.273 79.7042 460.273C80.9315 460.273 81.5792 461.261 81.5792 462.727C81.5792 464.21 80.9144 465.233 79.7042 465.233ZM87.2937 466.136C88.6232 466.136 89.5948 465.472 89.9016 464.483L88.93 464.21C88.6744 464.892 88.082 465.233 87.2937 465.233C86.1133 465.233 85.2994 464.47 85.2525 463.068H90.0039V462.642C90.0039 460.205 88.555 459.369 87.1914 459.369C85.4187 459.369 84.2425 460.767 84.2425 462.778C84.2425 464.79 85.4016 466.136 87.2937 466.136ZM85.2525 462.199C85.3207 461.18 86.0408 460.273 87.1914 460.273C88.2823 460.273 88.9812 461.091 88.9812 462.199H85.2525ZM92.5394 462.062C92.5394 460.92 93.2468 460.273 94.2099 460.273C95.1431 460.273 95.7099 460.882 95.7099 461.909V466H96.7156V461.841C96.7156 460.17 95.8249 459.369 94.4996 459.369C93.511 459.369 92.8974 459.812 92.5906 460.477H92.5053V459.455H91.5337V466H92.5394V462.062ZM101.4 459.455H100.002V457.886H98.9964V459.455H98.0078V460.307H98.9964V464.398C98.9964 465.54 99.9169 466.085 100.769 466.085C101.144 466.085 101.383 466.017 101.519 465.966L101.315 465.062C101.229 465.08 101.093 465.114 100.871 465.114C100.428 465.114 100.002 464.977 100.002 464.125V460.307H101.4V459.455ZM102.913 466H103.918V459.455H102.913V466ZM103.424 458.364C103.816 458.364 104.14 458.057 104.14 457.682C104.14 457.307 103.816 457 103.424 457C103.032 457 102.708 457.307 102.708 457.682C102.708 458.057 103.032 458.364 103.424 458.364ZM108.675 459.455H107.209V458.79C107.209 458.142 107.482 457.801 108.147 457.801C108.436 457.801 108.607 457.869 108.709 457.903L108.999 457.034C108.846 456.966 108.539 456.864 108.044 456.864C107.107 456.864 106.203 457.426 106.203 458.551V459.455H105.147V460.307H106.203V466H107.209V460.307H108.675V459.455ZM110.085 466H111.09V459.455H110.085V466ZM110.596 458.364C110.988 458.364 111.312 458.057 111.312 457.682C111.312 457.307 110.988 457 110.596 457C110.204 457 109.88 457.307 109.88 457.682C109.88 458.057 110.204 458.364 110.596 458.364ZM114.858 466.153C116 466.153 116.597 465.54 116.801 465.114H116.853V466H117.858V461.688C117.858 459.608 116.273 459.369 115.438 459.369C114.449 459.369 113.324 459.71 112.813 460.903L113.767 461.244C113.989 460.767 114.513 460.256 115.472 460.256C116.397 460.256 116.853 460.746 116.853 461.585V461.619C116.853 462.105 116.358 462.062 115.165 462.216C113.951 462.374 112.625 462.642 112.625 464.142C112.625 465.42 113.614 466.153 114.858 466.153ZM115.012 465.25C114.211 465.25 113.631 464.892 113.631 464.193C113.631 463.426 114.33 463.188 115.114 463.085C115.54 463.034 116.682 462.915 116.853 462.71V463.631C116.853 464.449 116.205 465.25 115.012 465.25ZM120.7 462.062C120.7 460.92 121.407 460.273 122.37 460.273C123.303 460.273 123.87 460.882 123.87 461.909V466H124.876V461.841C124.876 460.17 123.985 459.369 122.66 459.369C121.671 459.369 121.058 459.812 120.751 460.477H120.665V459.455H119.694V466H120.7V462.062ZM129.56 459.455H128.162V457.886H127.157V459.455H126.168V460.307H127.157V464.398C127.157 465.54 128.077 466.085 128.929 466.085C129.304 466.085 129.543 466.017 129.679 465.966L129.475 465.062C129.39 465.08 129.253 465.114 129.032 465.114C128.588 465.114 128.162 464.977 128.162 464.125V460.307H129.56V459.455Z" fill="#94A3B8"/>
<g clip-path="url(#clip2_4_2)">
<path d="M45 456C46.1 456 47 456.9 47 458C47 459.1 46.1 460 45 460C43.9 460 43 459.1 43 458C43 456.9 43.9 456 45 456ZM45 465C47.7 465 50.8 466.29 51 467V468H39V467.01C39.2 466.29 42.3 465 45 465ZM45 454C42.79 454 41 455.79 41 458C41 460.21 42.79 462 45 462C47.21 462 49 460.21 49 458C49 455.79 47.21 454 45 454ZM45 463C42.33 463 37 464.34 37 467V470H53V467C53 464.34 47.67 463 45 463Z" fill="#94A3B8"/>
</g>
<rect x="17" y="511" width="343" height="50" rx="6" fill="#1E293B"/>
<path d="M74.0568 531.273V540H75.0455V533.369H75.1307L77.858 540H78.8125L81.5398 533.369H81.625V540H82.6136V531.273H81.3523L78.3864 538.517H78.2841L75.3182 531.273H74.0568ZM87.2553 540.136C89.0281 540.136 90.2212 538.79 90.2212 536.761C90.2212 534.716 89.0281 533.369 87.2553 533.369C85.4826 533.369 84.2894 534.716 84.2894 536.761C84.2894 538.79 85.4826 540.136 87.2553 540.136ZM87.2553 539.233C85.9087 539.233 85.2951 538.074 85.2951 536.761C85.2951 535.449 85.9087 534.273 87.2553 534.273C88.6019 534.273 89.2156 535.449 89.2156 536.761C89.2156 538.074 88.6019 539.233 87.2553 539.233ZM94.603 533.455H93.2053V531.886H92.1996V533.455H91.2109V534.307H92.1996V538.398C92.1996 539.54 93.12 540.085 93.9723 540.085C94.3473 540.085 94.5859 540.017 94.7223 539.966L94.5178 539.062C94.4325 539.08 94.2962 539.114 94.0746 539.114C93.6314 539.114 93.2053 538.977 93.2053 538.125V534.307H94.603V533.455ZM101.962 540.136C103.224 540.136 103.65 539.352 103.871 538.994H103.991V540H104.962V531.273H103.957V534.494H103.871C103.65 534.153 103.258 533.369 101.979 533.369C100.326 533.369 99.1839 534.682 99.1839 536.744C99.1839 538.824 100.326 540.136 101.962 540.136ZM102.099 539.233C100.837 539.233 100.19 538.125 100.19 536.727C100.19 535.347 100.82 534.273 102.099 534.273C103.326 534.273 103.974 535.261 103.974 536.727C103.974 538.21 103.309 539.233 102.099 539.233ZM109.688 540.136C111.018 540.136 111.989 539.472 112.296 538.483L111.325 538.21C111.069 538.892 110.477 539.233 109.688 539.233C108.508 539.233 107.694 538.47 107.647 537.068H112.398V536.642C112.398 534.205 110.95 533.369 109.586 533.369C107.813 533.369 106.637 534.767 106.637 536.778C106.637 538.79 107.796 540.136 109.688 540.136ZM107.647 536.199C107.715 535.18 108.435 534.273 109.586 534.273C110.677 534.273 111.376 535.091 111.376 536.199H107.647ZM117.303 542.455H118.309V538.994H118.394C118.616 539.352 119.042 540.136 120.303 540.136C121.94 540.136 123.082 538.824 123.082 536.744C123.082 534.682 121.94 533.369 120.286 533.369C119.008 533.369 118.616 534.153 118.394 534.494H118.275V533.455H117.303V542.455ZM118.292 536.727C118.292 535.261 118.94 534.273 120.167 534.273C121.445 534.273 122.076 535.347 122.076 536.727C122.076 538.125 121.428 539.233 120.167 539.233C118.957 539.233 118.292 538.21 118.292 536.727ZM126.542 540.153C127.684 540.153 128.281 539.54 128.485 539.114H128.536V540H129.542V535.688C129.542 533.608 127.957 533.369 127.121 533.369C126.133 533.369 125.008 533.71 124.496 534.903L125.451 535.244C125.673 534.767 126.197 534.256 127.156 534.256C128.08 534.256 128.536 534.746 128.536 535.585V535.619C128.536 536.105 128.042 536.062 126.849 536.216C125.634 536.374 124.309 536.642 124.309 538.142C124.309 539.42 125.298 540.153 126.542 540.153ZM126.695 539.25C125.894 539.25 125.315 538.892 125.315 538.193C125.315 537.426 126.013 537.188 126.798 537.085C127.224 537.034 128.366 536.915 128.536 536.71V537.631C128.536 538.449 127.888 539.25 126.695 539.25ZM136.014 534.92C135.699 533.991 134.991 533.369 133.696 533.369C132.315 533.369 131.292 534.153 131.292 535.261C131.292 536.165 131.829 536.77 133.031 537.051L134.122 537.307C134.782 537.46 135.093 537.776 135.093 538.227C135.093 538.79 134.497 539.25 133.559 539.25C132.737 539.25 132.221 538.896 132.042 538.193L131.088 538.432C131.322 539.544 132.238 540.136 133.576 540.136C135.098 540.136 136.133 539.305 136.133 538.176C136.133 537.264 135.562 536.689 134.395 536.403L133.423 536.165C132.647 535.973 132.298 535.713 132.298 535.21C132.298 534.648 132.895 534.239 133.696 534.239C134.574 534.239 134.936 534.724 135.11 535.176L136.014 534.92ZM142.283 534.92C141.968 533.991 141.261 533.369 139.965 533.369C138.585 533.369 137.562 534.153 137.562 535.261C137.562 536.165 138.099 536.77 139.3 537.051L140.391 537.307C141.052 537.46 141.363 537.776 141.363 538.227C141.363 538.79 140.766 539.25 139.829 539.25C139.006 539.25 138.491 538.896 138.312 538.193L137.357 538.432C137.592 539.544 138.508 540.136 139.846 540.136C141.367 540.136 142.403 539.305 142.403 538.176C142.403 537.264 141.832 536.689 140.664 536.403L139.692 536.165C138.917 535.973 138.567 535.713 138.567 535.21C138.567 534.648 139.164 534.239 139.965 534.239C140.843 534.239 141.205 534.724 141.38 535.176L142.283 534.92ZM146.661 540.136C147.99 540.136 148.962 539.472 149.269 538.483L148.297 538.21C148.042 538.892 147.449 539.233 146.661 539.233C145.48 539.233 144.667 538.47 144.62 537.068H149.371V536.642C149.371 534.205 147.922 533.369 146.559 533.369C144.786 533.369 143.61 534.767 143.61 536.778C143.61 538.79 144.769 540.136 146.661 540.136ZM144.62 536.199C144.688 535.18 145.408 534.273 146.559 534.273C147.65 534.273 148.348 535.091 148.348 536.199H144.62Z" fill="#94A3B8"/>
<g clip-path="url(#clip3_4_2)">
<path d="M51 532H50V530C50 527.24 47.76 525 45 525C42.24 525 40 527.24 40 530V532H39C37.9 532 37 532.9 37 534V544C37 545.1 37.9 546 39 546H51C52.1 546 53 545.1 53 544V534C53 532.9 52.1 532 51 532ZM42 530C42 528.34 43.34 527 45 527C46.66 527 48 528.34 48 530V532H42V530ZM51 544H39V534H51V544ZM45 541C46.1 541 47 540.1 47 539C47 537.9 46.1 537 45 537C43.9 537 43 537.9 43 539C43 540.1 43.9 541 45 541Z" fill="#94A3B8"/>
</g>
<path d="M235.518 578.273V587H236.506V580.369H236.592L239.319 587H240.273L243.001 580.369H243.086V587H244.075V578.273H242.813L239.847 585.517H239.745L236.779 578.273H235.518ZM248.716 587.136C250.489 587.136 251.682 585.79 251.682 583.761C251.682 581.716 250.489 580.369 248.716 580.369C246.944 580.369 245.75 581.716 245.75 583.761C245.75 585.79 246.944 587.136 248.716 587.136ZM248.716 586.233C247.37 586.233 246.756 585.074 246.756 583.761C246.756 582.449 247.37 581.273 248.716 581.273C250.063 581.273 250.676 582.449 250.676 583.761C250.676 585.074 250.063 586.233 248.716 586.233ZM256.064 580.455H254.666V578.886H253.661V580.455H252.672V581.307H253.661V585.398C253.661 586.54 254.581 587.085 255.433 587.085C255.808 587.085 256.047 587.017 256.183 586.966L255.979 586.062C255.893 586.08 255.757 586.114 255.536 586.114C255.092 586.114 254.666 585.977 254.666 585.125V581.307H256.064V580.455ZM263.423 587.136C264.685 587.136 265.111 586.352 265.332 585.994H265.452V587H266.423V578.273H265.418V581.494H265.332C265.111 581.153 264.719 580.369 263.44 580.369C261.787 580.369 260.645 581.682 260.645 583.744C260.645 585.824 261.787 587.136 263.423 587.136ZM263.56 586.233C262.298 586.233 261.651 585.125 261.651 583.727C261.651 582.347 262.281 581.273 263.56 581.273C264.787 581.273 265.435 582.261 265.435 583.727C265.435 585.21 264.77 586.233 263.56 586.233ZM271.149 587.136C272.479 587.136 273.45 586.472 273.757 585.483L272.786 585.21C272.53 585.892 271.938 586.233 271.149 586.233C269.969 586.233 269.155 585.47 269.108 584.068H273.859V583.642C273.859 581.205 272.411 580.369 271.047 580.369C269.274 580.369 268.098 581.767 268.098 583.778C268.098 585.79 269.257 587.136 271.149 587.136ZM269.108 583.199C269.176 582.18 269.896 581.273 271.047 581.273C272.138 581.273 272.837 582.091 272.837 583.199H269.108ZM278.764 589.455H279.77V585.994H279.855C280.077 586.352 280.503 587.136 281.764 587.136C283.401 587.136 284.543 585.824 284.543 583.744C284.543 581.682 283.401 580.369 281.747 580.369C280.469 580.369 280.077 581.153 279.855 581.494H279.736V580.455H278.764V589.455ZM279.753 583.727C279.753 582.261 280.401 581.273 281.628 581.273C282.906 581.273 283.537 582.347 283.537 583.727C283.537 585.125 282.889 586.233 281.628 586.233C280.418 586.233 279.753 585.21 279.753 583.727ZM288.003 587.153C289.145 587.153 289.741 586.54 289.946 586.114H289.997V587H291.003V582.688C291.003 580.608 289.418 580.369 288.582 580.369C287.594 580.369 286.469 580.71 285.957 581.903L286.912 582.244C287.134 581.767 287.658 581.256 288.616 581.256C289.541 581.256 289.997 581.746 289.997 582.585V582.619C289.997 583.105 289.503 583.062 288.31 583.216C287.095 583.374 285.77 583.642 285.77 585.142C285.77 586.42 286.759 587.153 288.003 587.153ZM288.156 586.25C287.355 586.25 286.776 585.892 286.776 585.193C286.776 584.426 287.474 584.188 288.259 584.085C288.685 584.034 289.827 583.915 289.997 583.71V584.631C289.997 585.449 289.349 586.25 288.156 586.25ZM297.475 581.92C297.159 580.991 296.452 580.369 295.157 580.369C293.776 580.369 292.753 581.153 292.753 582.261C292.753 583.165 293.29 583.77 294.492 584.051L295.583 584.307C296.243 584.46 296.554 584.776 296.554 585.227C296.554 585.79 295.958 586.25 295.02 586.25C294.198 586.25 293.682 585.896 293.503 585.193L292.549 585.432C292.783 586.544 293.699 587.136 295.037 587.136C296.559 587.136 297.594 586.305 297.594 585.176C297.594 584.264 297.023 583.689 295.855 583.403L294.884 583.165C294.108 582.973 293.759 582.713 293.759 582.21C293.759 581.648 294.355 581.239 295.157 581.239C296.034 581.239 296.397 581.724 296.571 582.176L297.475 581.92ZM303.744 581.92C303.429 580.991 302.722 580.369 301.426 580.369C300.045 580.369 299.023 581.153 299.023 582.261C299.023 583.165 299.56 583.77 300.761 584.051L301.852 584.307C302.513 584.46 302.824 584.776 302.824 585.227C302.824 585.79 302.227 586.25 301.29 586.25C300.467 586.25 299.952 585.896 299.773 585.193L298.818 585.432C299.053 586.544 299.969 587.136 301.307 587.136C302.828 587.136 303.864 586.305 303.864 585.176C303.864 584.264 303.293 583.689 302.125 583.403L301.153 583.165C300.378 582.973 300.028 582.713 300.028 582.21C300.028 581.648 300.625 581.239 301.426 581.239C302.304 581.239 302.666 581.724 302.841 582.176L303.744 581.92ZM308.122 587.136C309.451 587.136 310.423 586.472 310.73 585.483L309.758 585.21C309.502 585.892 308.91 586.233 308.122 586.233C306.941 586.233 306.127 585.47 306.081 584.068H310.832V583.642C310.832 581.205 309.383 580.369 308.02 580.369C306.247 580.369 305.071 581.767 305.071 583.778C305.071 585.79 306.23 587.136 308.122 587.136ZM306.081 583.199C306.149 582.18 306.869 581.273 308.02 581.273C309.11 581.273 309.809 582.091 309.809 583.199H306.081ZM318.396 587.136C320.169 587.136 321.362 585.79 321.362 583.761C321.362 581.716 320.169 580.369 318.396 580.369C316.623 580.369 315.43 581.716 315.43 583.761C315.43 585.79 316.623 587.136 318.396 587.136ZM318.396 586.233C317.049 586.233 316.436 585.074 316.436 583.761C316.436 582.449 317.049 581.273 318.396 581.273C319.743 581.273 320.356 582.449 320.356 583.761C320.356 585.074 319.743 586.233 318.396 586.233ZM327.022 584.324C327.022 585.551 326.085 586.114 325.335 586.114C324.499 586.114 323.903 585.5 323.903 584.545V580.455H322.897V584.614C322.897 586.284 323.783 587.085 325.011 587.085C325.999 587.085 326.647 586.557 326.954 585.892H327.022V587H328.028V580.455H327.022V584.324ZM330.006 587H330.978V585.994H331.097C331.319 586.352 331.745 587.136 333.006 587.136C334.642 587.136 335.784 585.824 335.784 583.744C335.784 581.682 334.642 580.369 332.989 580.369C331.711 580.369 331.319 581.153 331.097 581.494H331.012V578.273H330.006V587ZM330.995 583.727C330.995 582.261 331.642 581.273 332.87 581.273C334.148 581.273 334.779 582.347 334.779 583.727C334.779 585.125 334.131 586.233 332.87 586.233C331.659 586.233 330.995 585.21 330.995 583.727ZM338.328 578.273H337.323V587H338.328V578.273ZM340.17 587H341.176V580.455H340.17V587ZM340.682 579.364C341.074 579.364 341.398 579.057 341.398 578.682C341.398 578.307 341.074 578 340.682 578C340.29 578 339.966 578.307 339.966 578.682C339.966 579.057 340.29 579.364 340.682 579.364ZM345.762 587.136C347.092 587.136 348.064 586.472 348.37 585.483L347.399 585.21C347.143 585.892 346.551 586.233 345.762 586.233C344.582 586.233 343.768 585.47 343.721 584.068H348.473V583.642C348.473 581.205 347.024 580.369 345.66 580.369C343.887 580.369 342.711 581.767 342.711 583.778C342.711 585.79 343.87 587.136 345.762 587.136ZM343.721 583.199C343.789 582.18 344.51 581.273 345.66 581.273C346.751 581.273 347.45 582.091 347.45 583.199H343.721ZM345.149 579.568H346.035L347.365 577.591H346.189L345.149 579.568ZM354.69 584.545H355.713V584.494C355.73 583.438 356.002 582.977 356.752 582.509C357.502 582.053 357.946 581.396 357.946 580.455C357.946 579.125 356.974 578.153 355.474 578.153C354.093 578.153 352.998 579.006 352.934 580.455H354.008C354.072 579.449 354.775 579.04 355.474 579.04C356.275 579.04 356.923 579.568 356.923 580.403C356.923 581.081 356.535 581.567 356.037 581.869C355.201 582.376 354.703 582.871 354.69 584.494V584.545ZM355.235 587.068C355.657 587.068 356.002 586.723 356.002 586.301C356.002 585.879 355.657 585.534 355.235 585.534C354.814 585.534 354.468 585.879 354.468 586.301C354.468 586.723 354.814 587.068 355.235 587.068Z" fill="#94A3B8"/>
</g>
<defs>
<clipPath id="clip0_4_2">
<rect width="375" height="812" fill="white"/>
</clipPath>
<clipPath id="clip1_4_2">
<rect width="86.5" height="83.4965" fill="white" transform="translate(145.25 142)"/>
</clipPath>
<clipPath id="clip2_4_2">
<rect width="24" height="24" fill="white" transform="translate(33 450)"/>
</clipPath>
<clipPath id="clip3_4_2">
<rect width="24" height="24" fill="white" transform="translate(33 524)"/>
</clipPath>
</defs>
</svg>
