<svg width="1440" height="1024" viewBox="0 0 1440 1024" fill="none" xmlns="http://www.w3.org/2000/svg">
<rect width="1440" height="1024" fill="#0F172A"/>
<rect width="270" height="1024" fill="#1E293B"/>
<rect x="25" y="177" width="219" height="42" rx="6" fill="#2C3B52"/>
<path d="M219.41 201.41L224 196.83L228.59 201.41L230 200L224 194L218 200L219.41 201.41Z" fill="white"/>
<rect x="1061" y="94" width="302" height="50" rx="6" fill="#1E293B"/>
<g clip-path="url(#clip0_9_9)">
<path d="M1096.37 122.5H1095.39L1095.04 122.162C1096.26 120.737 1097 118.887 1097 116.875C1097 112.387 1093.36 108.75 1088.87 108.75C1084.39 108.75 1080.75 112.387 1080.75 116.875C1080.75 121.362 1084.39 125 1088.87 125C1090.89 125 1092.74 124.262 1094.16 123.037L1094.5 123.387V124.375L1100.75 130.612L1102.61 128.75L1096.37 122.5ZM1088.87 122.5C1085.76 122.5 1083.25 119.987 1083.25 116.875C1083.25 113.762 1085.76 111.25 1088.87 111.25C1091.99 111.25 1094.5 113.762 1094.5 116.875C1094.5 119.987 1091.99 122.5 1088.87 122.5Z" fill="#94A3B8"/>
</g>
<path d="M1120.23 124H1121.47V120.023H1123.69C1123.78 120.023 1123.87 120.023 1123.95 120.018L1126.1 124H1127.53L1125.23 119.794C1126.53 119.352 1127.13 118.293 1127.13 116.94C1127.13 115.141 1126.06 113.818 1123.67 113.818H1120.23V124ZM1121.47 118.909V114.912H1123.63C1125.28 114.912 1125.92 115.717 1125.92 116.94C1125.92 118.163 1125.28 118.909 1123.65 118.909H1121.47ZM1132.15 124.159C1133.7 124.159 1134.83 123.384 1135.19 122.23L1134.06 121.912C1133.76 122.707 1133.07 123.105 1132.15 123.105C1130.77 123.105 1129.82 122.215 1129.77 120.58H1135.31V120.082C1135.31 117.239 1133.62 116.264 1132.03 116.264C1129.96 116.264 1128.59 117.895 1128.59 120.241C1128.59 122.588 1129.94 124.159 1132.15 124.159ZM1129.77 119.565C1129.85 118.377 1130.69 117.318 1132.03 117.318C1133.3 117.318 1134.12 118.273 1134.12 119.565H1129.77ZM1140.2 124.159C1141.89 124.159 1143 123.125 1143.2 121.773H1142.03C1141.81 122.608 1141.11 123.105 1140.2 123.105C1138.81 123.105 1137.91 121.952 1137.91 120.182C1137.91 118.452 1138.83 117.318 1140.2 117.318C1141.23 117.318 1141.85 117.955 1142.03 118.651H1143.2C1143 117.219 1141.79 116.264 1140.18 116.264C1138.11 116.264 1136.74 117.895 1136.74 120.222C1136.74 122.509 1138.05 124.159 1140.2 124.159ZM1146.09 119.406C1146.09 118.074 1146.94 117.318 1148.1 117.318C1149.2 117.318 1149.87 118.014 1149.87 119.227V124H1151.04V119.148C1151.04 117.184 1150 116.264 1148.44 116.264C1147.23 116.264 1146.55 116.766 1146.19 117.557H1146.09V113.818H1144.92V124H1146.09V119.406ZM1156.39 124.159C1157.94 124.159 1159.07 123.384 1159.43 122.23L1158.3 121.912C1158 122.707 1157.31 123.105 1156.39 123.105C1155.01 123.105 1154.06 122.215 1154.01 120.58H1159.55V120.082C1159.55 117.239 1157.86 116.264 1156.27 116.264C1154.2 116.264 1152.83 117.895 1152.83 120.241C1152.83 122.588 1154.18 124.159 1156.39 124.159ZM1154.01 119.565C1154.09 118.377 1154.93 117.318 1156.27 117.318C1157.54 117.318 1158.36 118.273 1158.36 119.565H1154.01ZM1161.34 124H1162.51V119.168C1162.51 118.134 1163.32 117.378 1164.44 117.378C1164.75 117.378 1165.07 117.438 1165.15 117.457V116.264C1165.02 116.254 1164.71 116.244 1164.54 116.244C1163.62 116.244 1162.83 116.761 1162.55 117.517H1162.47V116.364H1161.34V124ZM1169.41 124.159C1171.1 124.159 1172.22 123.125 1172.42 121.773H1171.24C1171.03 122.608 1170.33 123.105 1169.41 123.105C1168.02 123.105 1167.13 121.952 1167.13 120.182C1167.13 118.452 1168.04 117.318 1169.41 117.318C1170.45 117.318 1171.06 117.955 1171.24 118.651H1172.42C1172.22 117.219 1171.01 116.264 1169.39 116.264C1167.33 116.264 1165.95 117.895 1165.95 120.222C1165.95 122.509 1167.27 124.159 1169.41 124.159ZM1175.31 119.406C1175.31 118.074 1176.16 117.318 1177.31 117.318C1178.42 117.318 1179.08 118.014 1179.08 119.227V124H1180.26V119.148C1180.26 117.184 1179.21 116.264 1177.65 116.264C1176.45 116.264 1175.76 116.766 1175.41 117.557H1175.31V113.818H1174.13V124H1175.31V119.406ZM1185.61 124.159C1187.16 124.159 1188.29 123.384 1188.65 122.23L1187.51 121.912C1187.22 122.707 1186.53 123.105 1185.61 123.105C1184.23 123.105 1183.28 122.215 1183.22 120.58H1188.77V120.082C1188.77 117.239 1187.08 116.264 1185.49 116.264C1183.42 116.264 1182.05 117.895 1182.05 120.241C1182.05 122.588 1183.4 124.159 1185.61 124.159ZM1183.22 119.565C1183.3 118.377 1184.14 117.318 1185.49 117.318C1186.76 117.318 1187.57 118.273 1187.57 119.565H1183.22ZM1190.55 124H1191.73V119.168C1191.73 118.134 1192.54 117.378 1193.65 117.378C1193.97 117.378 1194.29 117.438 1194.37 117.457V116.264C1194.24 116.254 1193.93 116.244 1193.75 116.244C1192.84 116.244 1192.04 116.761 1191.77 117.517H1191.69V116.364H1190.55V124ZM1195.74 124.08C1196.23 124.08 1196.64 123.677 1196.64 123.185C1196.64 122.692 1196.23 122.29 1195.74 122.29C1195.25 122.29 1194.85 122.692 1194.85 123.185C1194.85 123.677 1195.25 124.08 1195.74 124.08ZM1199.6 124.08C1200.09 124.08 1200.49 123.677 1200.49 123.185C1200.49 122.692 1200.09 122.29 1199.6 122.29C1199.1 122.29 1198.7 122.692 1198.7 123.185C1198.7 123.677 1199.1 124.08 1199.6 124.08ZM1203.45 124.08C1203.94 124.08 1204.35 123.677 1204.35 123.185C1204.35 122.692 1203.94 122.29 1203.45 122.29C1202.96 122.29 1202.56 122.692 1202.56 123.185C1202.56 123.677 1202.96 124.08 1203.45 124.08Z" fill="#94A3B8"/>
<path d="M111.413 103H117.16L121.615 88.0043H121.809L126.264 103H132.023L139.207 78.2727H132.615L128.872 94.5121H128.667L124.404 78.2727H119.02L114.757 94.4759H114.552L110.821 78.2727H104.217L111.413 103ZM143.962 103.314C146.546 103.314 148.333 102.312 149.347 100.416H149.492V103H155.046V90.3949C155.046 86.4709 151.557 84.2131 146.836 84.2131C141.849 84.2131 139.024 86.7244 138.553 90.1051L143.999 90.2983C144.252 89.1151 145.23 88.3906 146.788 88.3906C148.236 88.3906 149.154 89.0909 149.154 90.3345V90.3949C149.154 91.5298 147.923 91.7713 144.759 92.049C141.004 92.3629 137.865 93.7514 137.865 97.8565C137.865 101.527 140.413 103.314 143.962 103.314ZM145.785 99.4503C144.421 99.4503 143.455 98.7983 143.455 97.5668C143.455 96.3714 144.397 95.647 146.075 95.3935C147.174 95.2365 148.526 94.995 149.19 94.6449V96.4077C149.19 98.2188 147.669 99.4503 145.785 99.4503ZM157.806 103H163.71V92.9304C163.71 90.7209 165.28 89.2358 167.393 89.2358C168.093 89.2358 169.144 89.3565 169.711 89.5497V84.4183C169.216 84.2855 168.6 84.201 168.057 84.201C166.029 84.201 164.411 85.3842 163.734 87.8352H163.541V84.4545H157.806V103ZM177.171 92.4233C177.183 90.3104 178.414 89.0547 180.286 89.0547C182.157 89.0547 183.268 90.2862 183.256 92.3388V103H189.16V91.1797C189.172 87.0021 186.625 84.2131 182.725 84.2131C179.984 84.2131 177.907 85.6016 177.086 87.8594H176.881V84.4545H171.267V103H177.171V92.4233ZM191.966 103H197.87V84.4545H191.966V103ZM194.924 82.2933C196.602 82.2933 197.954 81.0256 197.954 79.468C197.954 77.9105 196.602 76.6548 194.924 76.6548C193.257 76.6548 191.893 77.9105 191.893 79.468C191.893 81.0256 193.257 82.2933 194.924 82.2933ZM211.246 84.4545H207.901V80.0114H201.997V84.4545H199.546V88.8011H201.997V97.8203C201.961 101.575 204.4 103.459 208.565 103.266C209.99 103.193 211.016 102.903 211.584 102.734L210.69 98.4723C210.437 98.5327 209.845 98.6534 209.398 98.6534C208.445 98.6534 207.901 98.267 207.901 97.1683V88.8011H211.246V84.4545Z" fill="white"/>
<g clip-path="url(#clip1_9_9)">
<path d="M65.072 94.4569C67.4464 94.4569 69.3713 92.5371 69.3713 90.169C69.3713 87.8009 67.4464 85.8811 65.072 85.8811C62.6975 85.8811 60.7726 87.8009 60.7726 90.169C60.7726 92.5371 62.6975 94.4569 65.072 94.4569Z" fill="white"/>
<path d="M65.0429 70H65.0429C64.6032 70 64.2467 70.3555 64.2467 70.7941V74.4996C64.2467 74.9382 64.6032 75.2937 65.0429 75.2937H65.0429C65.4826 75.2937 65.8391 74.9382 65.8391 74.4996V70.7941C65.8391 70.3555 65.4826 70 65.0429 70Z" fill="white"/>
<path d="M57.5665 71.3988L57.5665 71.3988C57.168 71.5841 56.9956 72.0566 57.1814 72.454L58.7516 75.8124C58.9375 76.2099 59.4112 76.3818 59.8097 76.1965L59.8097 76.1965C60.2082 76.0112 60.3806 75.5387 60.1948 75.1413L58.6245 71.7829C58.4387 71.3854 57.965 71.2135 57.5665 71.3988Z" fill="white"/>
<path d="M70.2761 76.1965L70.2761 76.1965C69.8776 76.0112 69.7052 75.5388 69.891 75.1413L71.4613 71.7829C71.6471 71.3855 72.1208 71.2135 72.5193 71.3988L72.5193 71.3988C72.9178 71.5842 73.0903 72.0566 72.9044 72.4541L71.3342 75.8125C71.1484 76.2099 70.6747 76.3819 70.2761 76.1965Z" fill="white"/>
<path fill-rule="evenodd" clip-rule="evenodd" d="M50.2901 74.8702C46.4035 78.75 44 84.1078 44 90.0254C44 101.868 53.6259 111.468 65.5 111.468C77.3741 111.468 87 101.868 87 90.0254C87 84.115 84.6023 78.7631 80.724 74.8844L74.6429 80.9493C76.9649 83.2758 78.4 86.4835 78.4 90.0254C78.4 97.1309 72.6245 102.891 65.5 102.891C58.3755 102.891 52.6 97.1309 52.6 90.0254C52.6 86.4763 54.041 83.2628 56.3712 80.9352L50.2901 74.8702Z" fill="white"/>
<path fill-rule="evenodd" clip-rule="evenodd" d="M56.247 98.99L50.1655 105.055C54.0662 109.013 59.4957 111.468 65.5 111.468C71.3038 111.468 76.5705 109.175 80.4385 105.447L74.356 99.3804C72.0454 101.557 68.9289 102.891 65.5 102.891C61.8705 102.891 58.591 101.396 56.247 98.99Z" fill="white"/>
</g>
<g clip-path="url(#clip2_9_9)">
<path d="M51 192C52.1 192 53 192.9 53 194C53 195.1 52.1 196 51 196C49.9 196 49 195.1 49 194C49 192.9 49.9 192 51 192ZM51 202C53.7 202 56.8 203.29 57 204H45C45.23 203.28 48.31 202 51 202ZM51 190C48.79 190 47 191.79 47 194C47 196.21 48.79 198 51 198C53.21 198 55 196.21 55 194C55 191.79 53.21 190 51 190ZM51 200C48.33 200 43 201.34 43 204V206H59V204C59 201.34 53.67 200 51 200Z" fill="white"/>
</g>
<path d="M81.7074 196.06H83.3182C83.0497 194.347 81.5668 193.153 79.6364 193.153C77.3523 193.153 75.6392 194.832 75.6392 197.645C75.6392 200.406 77.2756 202.119 79.6832 202.119C81.8438 202.119 83.3906 200.73 83.3906 198.48V197.432H79.8494V198.668H81.8608C81.8352 199.912 81.0043 200.7 79.6918 200.7C78.2301 200.7 77.2287 199.605 77.2287 197.628C77.2287 195.663 78.2472 194.572 79.6577 194.572C80.7102 194.572 81.4261 195.135 81.7074 196.06ZM87.7489 202.128C89.2745 202.128 90.3228 201.382 90.5955 200.244L89.1552 200.082C88.9464 200.636 88.435 200.926 87.7702 200.926C86.7731 200.926 86.1126 200.27 86.0998 199.149H90.6594V198.676C90.6594 196.379 89.2788 195.369 87.668 195.369C85.793 195.369 84.57 196.746 84.57 198.766C84.57 200.82 85.7759 202.128 87.7489 202.128ZM86.104 198.109C86.1509 197.274 86.7688 196.571 87.6893 196.571C88.5756 196.571 89.1722 197.219 89.1808 198.109H86.104ZM97.1378 197.185C96.9247 196.077 96.0384 195.369 94.5043 195.369C92.9276 195.369 91.8537 196.145 91.858 197.355C91.8537 198.31 92.4418 198.94 93.6989 199.2L94.8153 199.435C95.4162 199.567 95.6974 199.81 95.6974 200.18C95.6974 200.628 95.2116 200.964 94.4787 200.964C93.7713 200.964 93.3111 200.658 93.179 200.07L91.6747 200.214C91.8665 201.416 92.8764 202.128 94.483 202.128C96.1193 202.128 97.2741 201.28 97.2784 200.04C97.2741 199.107 96.6733 198.536 95.4375 198.267L94.321 198.028C93.6562 197.879 93.392 197.649 93.3963 197.27C93.392 196.827 93.8821 196.52 94.5256 196.52C95.2372 196.52 95.6122 196.908 95.7315 197.338L97.1378 197.185ZM101.819 195.455H100.528V193.886H98.9851V195.455H98.0561V196.648H98.9851V200.287C98.9766 201.518 99.8714 202.124 101.031 202.089C101.469 202.077 101.772 201.991 101.938 201.936L101.678 200.73C101.593 200.751 101.418 200.79 101.227 200.79C100.839 200.79 100.528 200.653 100.528 200.031V196.648H101.819V195.455ZM103.109 202H104.652V195.455H103.109V202ZM103.885 194.526C104.375 194.526 104.775 194.151 104.775 193.69C104.775 193.226 104.375 192.851 103.885 192.851C103.39 192.851 102.99 193.226 102.99 193.69C102.99 194.151 103.39 194.526 103.885 194.526ZM109.093 202.128C111.011 202.128 112.229 200.777 112.229 198.753C112.229 196.724 111.011 195.369 109.093 195.369C107.175 195.369 105.957 196.724 105.957 198.753C105.957 200.777 107.175 202.128 109.093 202.128ZM109.102 200.892C108.04 200.892 107.521 199.946 107.521 198.749C107.521 197.551 108.04 196.592 109.102 196.592C110.146 196.592 110.665 197.551 110.665 198.749C110.665 199.946 110.146 200.892 109.102 200.892ZM115.081 198.165C115.081 197.219 115.652 196.673 116.466 196.673C117.263 196.673 117.74 197.197 117.74 198.071V202H119.283V197.832C119.287 196.264 118.392 195.369 117.042 195.369C116.061 195.369 115.388 195.838 115.09 196.567H115.013V195.455H113.539V202H115.081V198.165ZM125.711 202.132C126.738 202.132 127.352 201.651 127.633 201.101H127.684V202H129.167V197.619C129.167 195.889 127.757 195.369 126.508 195.369C125.132 195.369 124.075 195.983 123.734 197.176L125.174 197.381C125.328 196.933 125.762 196.55 126.517 196.55C127.233 196.55 127.625 196.916 127.625 197.56V197.585C127.625 198.028 127.16 198.05 126.005 198.173C124.735 198.31 123.521 198.689 123.521 200.163C123.521 201.45 124.463 202.132 125.711 202.132ZM126.112 200.999C125.468 200.999 125.008 200.705 125.008 200.138C125.008 199.545 125.524 199.298 126.214 199.2C126.619 199.145 127.429 199.043 127.629 198.881V199.652C127.629 200.381 127.041 200.999 126.112 200.999ZM133.565 204.591C135.333 204.591 136.637 203.781 136.637 202.107V195.455H135.116V196.537H135.031C134.797 196.064 134.306 195.369 133.152 195.369C131.639 195.369 130.45 196.554 130.45 198.706C130.45 200.841 131.639 201.906 133.147 201.906C134.268 201.906 134.792 201.305 135.031 200.824H135.108V202.064C135.108 203.027 134.468 203.423 133.591 203.423C132.662 203.423 132.252 202.984 132.065 202.601L130.676 202.938C130.957 203.854 131.899 204.591 133.565 204.591ZM133.578 200.696C132.559 200.696 132.022 199.903 132.022 198.697C132.022 197.509 132.551 196.635 133.578 196.635C134.571 196.635 135.116 197.457 135.116 198.697C135.116 199.946 134.562 200.696 133.578 200.696ZM141.116 202.128C142.642 202.128 143.69 201.382 143.963 200.244L142.522 200.082C142.314 200.636 141.802 200.926 141.137 200.926C140.14 200.926 139.48 200.27 139.467 199.149H144.027V198.676C144.027 196.379 142.646 195.369 141.035 195.369C139.16 195.369 137.937 196.746 137.937 198.766C137.937 200.82 139.143 202.128 141.116 202.128ZM139.471 198.109C139.518 197.274 140.136 196.571 141.056 196.571C141.943 196.571 142.539 197.219 142.548 198.109H139.471ZM146.874 198.165C146.874 197.219 147.445 196.673 148.259 196.673C149.056 196.673 149.533 197.197 149.533 198.071V202H151.076V197.832C151.08 196.264 150.185 195.369 148.835 195.369C147.854 195.369 147.181 195.838 146.883 196.567H146.806V195.455H145.332V202H146.874V198.165ZM155.913 195.455H154.621V193.886H153.079V195.455H152.15V196.648H153.079V200.287C153.07 201.518 153.965 202.124 155.124 202.089C155.563 202.077 155.866 201.991 156.032 201.936L155.772 200.73C155.687 200.751 155.512 200.79 155.32 200.79C154.933 200.79 154.621 200.653 154.621 200.031V196.648H155.913V195.455ZM162.282 197.185C162.069 196.077 161.183 195.369 159.649 195.369C158.072 195.369 156.998 196.145 157.002 197.355C156.998 198.31 157.586 198.94 158.843 199.2L159.96 199.435C160.561 199.567 160.842 199.81 160.842 200.18C160.842 200.628 160.356 200.964 159.623 200.964C158.916 200.964 158.456 200.658 158.324 200.07L156.819 200.214C157.011 201.416 158.021 202.128 159.627 202.128C161.264 202.128 162.419 201.28 162.423 200.04C162.419 199.107 161.818 198.536 160.582 198.267L159.466 198.028C158.801 197.879 158.537 197.649 158.541 197.27C158.537 196.827 159.027 196.52 159.67 196.52C160.382 196.52 160.757 196.908 160.876 197.338L162.282 197.185Z" fill="white"/>
<path d="M75.8608 416H77.4418V412.293H81.4858V416H83.071V407.273H81.4858V410.967H77.4418V407.273H75.8608V416ZM84.7223 416H86.2649V409.455H84.7223V416ZM85.4979 408.526C85.9879 408.526 86.3885 408.151 86.3885 407.69C86.3885 407.226 85.9879 406.851 85.4979 406.851C85.0036 406.851 84.603 407.226 84.603 407.69C84.603 408.151 85.0036 408.526 85.4979 408.526ZM93.0245 411.185C92.8114 410.077 91.9251 409.369 90.391 409.369C88.8143 409.369 87.7404 410.145 87.7447 411.355C87.7404 412.31 88.3285 412.94 89.5856 413.2L90.7021 413.435C91.3029 413.567 91.5842 413.81 91.5842 414.18C91.5842 414.628 91.0984 414.964 90.3654 414.964C89.658 414.964 89.1978 414.658 89.0657 414.07L87.5614 414.214C87.7532 415.416 88.7631 416.128 90.3697 416.128C92.006 416.128 93.1609 415.28 93.1651 414.04C93.1609 413.107 92.56 412.536 91.3242 412.267L90.2077 412.028C89.543 411.879 89.2788 411.649 89.283 411.27C89.2788 410.827 89.7688 410.52 90.4123 410.52C91.1239 410.52 91.4989 410.908 91.6183 411.338L93.0245 411.185ZM97.7056 409.455H96.4144V407.886H94.8718V409.455H93.9428V410.648H94.8718V414.287C94.8633 415.518 95.7582 416.124 96.9173 416.089C97.3562 416.077 97.6587 415.991 97.8249 415.936L97.565 414.73C97.4798 414.751 97.305 414.79 97.1133 414.79C96.7255 414.79 96.4144 414.653 96.4144 414.031V410.648H97.7056V409.455ZM101.781 416.128C103.698 416.128 104.917 414.777 104.917 412.753C104.917 410.724 103.698 409.369 101.781 409.369C99.8629 409.369 98.6442 410.724 98.6442 412.753C98.6442 414.777 99.8629 416.128 101.781 416.128ZM101.789 414.892C100.728 414.892 100.208 413.946 100.208 412.749C100.208 411.551 100.728 410.592 101.789 410.592C102.833 410.592 103.353 411.551 103.353 412.749C103.353 413.946 102.833 414.892 101.789 414.892ZM106.226 416H107.769V412.152C107.769 411.321 108.395 410.733 109.243 410.733C109.503 410.733 109.827 410.78 109.959 410.822V409.403C109.819 409.378 109.576 409.361 109.405 409.361C108.655 409.361 108.029 409.787 107.79 410.545H107.722V409.455H106.226V416ZM110.984 416H112.527V409.455H110.984V416ZM111.76 408.526C112.25 408.526 112.65 408.151 112.65 407.69C112.65 407.226 112.25 406.851 111.76 406.851C111.265 406.851 110.865 407.226 110.865 407.69C110.865 408.151 111.265 408.526 111.76 408.526ZM120.023 418.455V409.455H118.506V410.537H118.417C118.183 410.064 117.701 409.369 116.546 409.369C115.033 409.369 113.844 410.554 113.844 412.736C113.844 414.892 114.999 416.115 116.542 416.115C117.667 416.115 118.174 415.446 118.417 414.969H118.481V418.455H120.023ZM118.511 412.727C118.511 413.997 117.957 414.849 116.972 414.849C115.954 414.849 115.417 413.955 115.417 412.727C115.417 411.509 115.945 410.635 116.972 410.635C117.965 410.635 118.511 411.457 118.511 412.727ZM125.785 413.247C125.785 414.244 125.073 414.739 124.391 414.739C123.65 414.739 123.156 414.214 123.156 413.384V409.455H121.613V413.622C121.613 415.195 122.508 416.085 123.795 416.085C124.775 416.085 125.465 415.57 125.763 414.837H125.832V416H127.327V409.455H125.785V413.247ZM131.811 416.128C133.337 416.128 134.385 415.382 134.658 414.244L133.218 414.082C133.009 414.636 132.498 414.926 131.833 414.926C130.836 414.926 130.175 414.27 130.162 413.149H134.722V412.676C134.722 410.379 133.341 409.369 131.73 409.369C129.855 409.369 128.632 410.746 128.632 412.766C128.632 414.82 129.838 416.128 131.811 416.128ZM130.167 412.109C130.213 411.274 130.831 410.571 131.752 410.571C132.638 410.571 133.235 411.219 133.243 412.109H130.167ZM141.433 416.115C142.558 416.115 143.065 415.446 143.308 414.969H143.401V416H144.918V407.273H143.371V410.537H143.308C143.073 410.064 142.592 409.369 141.437 409.369C139.924 409.369 138.735 410.554 138.735 412.736C138.735 414.892 139.89 416.115 141.433 416.115ZM141.863 414.849C140.844 414.849 140.308 413.955 140.308 412.727C140.308 411.509 140.836 410.635 141.863 410.635C142.856 410.635 143.401 411.457 143.401 412.727C143.401 413.997 142.847 414.849 141.863 414.849ZM149.46 416.128C150.985 416.128 152.034 415.382 152.306 414.244L150.866 414.082C150.657 414.636 150.146 414.926 149.481 414.926C148.484 414.926 147.824 414.27 147.811 413.149H152.37V412.676C152.37 410.379 150.99 409.369 149.379 409.369C147.504 409.369 146.281 410.746 146.281 412.766C146.281 414.82 147.487 416.128 149.46 416.128ZM147.815 412.109C147.862 411.274 148.48 410.571 149.4 410.571C150.287 410.571 150.883 411.219 150.892 412.109H147.815ZM158.849 411.185C158.636 410.077 157.749 409.369 156.215 409.369C154.638 409.369 153.565 410.145 153.569 411.355C153.565 412.31 154.153 412.94 155.41 413.2L156.526 413.435C157.127 413.567 157.408 413.81 157.408 414.18C157.408 414.628 156.923 414.964 156.19 414.964C155.482 414.964 155.022 414.658 154.89 414.07L153.386 414.214C153.577 415.416 154.587 416.128 156.194 416.128C157.83 416.128 158.985 415.28 158.989 414.04C158.985 413.107 158.384 412.536 157.148 412.267L156.032 412.028C155.367 411.879 155.103 411.649 155.107 411.27C155.103 410.827 155.593 410.52 156.237 410.52C156.948 410.52 157.323 410.908 157.442 411.338L158.849 411.185ZM165.121 416.132C166.148 416.132 166.762 415.651 167.043 415.101H167.094V416H168.577V411.619C168.577 409.889 167.167 409.369 165.918 409.369C164.542 409.369 163.485 409.983 163.144 411.176L164.585 411.381C164.738 410.933 165.173 410.55 165.927 410.55C166.643 410.55 167.035 410.916 167.035 411.56V411.585C167.035 412.028 166.57 412.05 165.415 412.173C164.146 412.31 162.931 412.689 162.931 414.163C162.931 415.45 163.873 416.132 165.121 416.132ZM165.522 414.999C164.879 414.999 164.418 414.705 164.418 414.138C164.418 413.545 164.934 413.298 165.624 413.2C166.029 413.145 166.839 413.043 167.039 412.881V413.652C167.039 414.381 166.451 414.999 165.522 414.999ZM171.671 407.273H170.129V416H171.671V407.273ZM176.155 416.128C177.681 416.128 178.729 415.382 179.002 414.244L177.561 414.082C177.353 414.636 176.841 414.926 176.176 414.926C175.179 414.926 174.519 414.27 174.506 413.149H179.066V412.676C179.066 410.379 177.685 409.369 176.074 409.369C174.199 409.369 172.976 410.746 172.976 412.766C172.976 414.82 174.182 416.128 176.155 416.128ZM174.51 412.109C174.557 411.274 175.175 410.571 176.096 410.571C176.982 410.571 177.578 411.219 177.587 412.109H174.51ZM180.371 416H181.913V412.152C181.913 411.321 182.54 410.733 183.388 410.733C183.648 410.733 183.972 410.78 184.104 410.822V409.403C183.963 409.378 183.72 409.361 183.55 409.361C182.8 409.361 182.173 409.787 181.935 410.545H181.866V409.455H180.371V416ZM188.749 409.455H187.457V407.886H185.915V409.455H184.986V410.648H185.915V414.287C185.906 415.518 186.801 416.124 187.96 416.089C188.399 416.077 188.702 415.991 188.868 415.936L188.608 414.73C188.523 414.751 188.348 414.79 188.156 414.79C187.768 414.79 187.457 414.653 187.457 414.031V410.648H188.749V409.455ZM192.866 416.128C194.392 416.128 195.44 415.382 195.713 414.244L194.272 414.082C194.064 414.636 193.552 414.926 192.887 414.926C191.89 414.926 191.23 414.27 191.217 413.149H195.777V412.676C195.777 410.379 194.396 409.369 192.785 409.369C190.91 409.369 189.687 410.746 189.687 412.766C189.687 414.82 190.893 416.128 192.866 416.128ZM191.221 412.109C191.268 411.274 191.886 410.571 192.806 410.571C193.693 410.571 194.289 411.219 194.298 412.109H191.221ZM202.255 411.185C202.042 410.077 201.156 409.369 199.621 409.369C198.045 409.369 196.971 410.145 196.975 411.355C196.971 412.31 197.559 412.94 198.816 413.2L199.933 413.435C200.533 413.567 200.815 413.81 200.815 414.18C200.815 414.628 200.329 414.964 199.596 414.964C198.888 414.964 198.428 414.658 198.296 414.07L196.792 414.214C196.984 415.416 197.994 416.128 199.6 416.128C201.237 416.128 202.391 415.28 202.396 414.04C202.391 413.107 201.79 412.536 200.555 412.267L199.438 412.028C198.773 411.879 198.509 411.649 198.513 411.27C198.509 410.827 198.999 410.52 199.643 410.52C200.354 410.52 200.729 410.908 200.849 411.338L202.255 411.185Z" fill="#94A3B8"/>
<path d="M75.8608 252H81.2855V250.675H77.4418V243.273H75.8608V252ZM82.5895 252H84.1321V245.455H82.5895V252ZM83.3651 244.526C83.8551 244.526 84.2557 244.151 84.2557 243.69C84.2557 243.226 83.8551 242.851 83.3651 242.851C82.8707 242.851 82.4702 243.226 82.4702 243.69C82.4702 244.151 82.8707 244.526 83.3651 244.526ZM90.8917 247.185C90.6786 246.077 89.7923 245.369 88.2582 245.369C86.6815 245.369 85.6076 246.145 85.6119 247.355C85.6076 248.31 86.1957 248.94 87.4528 249.2L88.5692 249.435C89.1701 249.567 89.4513 249.81 89.4513 250.18C89.4513 250.628 88.9656 250.964 88.2326 250.964C87.5252 250.964 87.065 250.658 86.9329 250.07L85.4286 250.214C85.6204 251.416 86.6303 252.128 88.2369 252.128C89.8732 252.128 91.0281 251.28 91.0323 250.04C91.0281 249.107 90.4272 248.536 89.1914 248.267L88.0749 248.028C87.4102 247.879 87.146 247.649 87.1502 247.27C87.146 246.827 87.636 246.52 88.2795 246.52C88.9911 246.52 89.3661 246.908 89.4854 247.338L90.8917 247.185ZM95.5728 245.455H94.2816V243.886H92.739V245.455H91.81V246.648H92.739V250.287C92.7305 251.518 93.6254 252.124 94.7844 252.089C95.2234 252.077 95.5259 251.991 95.6921 251.936L95.4322 250.73C95.3469 250.751 95.1722 250.79 94.9805 250.79C94.5927 250.79 94.2816 250.653 94.2816 250.031V246.648H95.5728V245.455ZM99.6903 252.128C101.216 252.128 102.264 251.382 102.537 250.244L101.097 250.082C100.888 250.636 100.376 250.926 99.7116 250.926C98.7145 250.926 98.054 250.27 98.0412 249.149H102.601V248.676C102.601 246.379 101.22 245.369 99.6094 245.369C97.7344 245.369 96.5114 246.746 96.5114 248.766C96.5114 250.82 97.7173 252.128 99.6903 252.128ZM98.0455 248.109C98.0923 247.274 98.7102 246.571 99.6307 246.571C100.517 246.571 101.114 247.219 101.122 248.109H98.0455ZM109.311 252.115C110.436 252.115 110.944 251.446 111.186 250.969H111.28V252H112.797V243.273H111.25V246.537H111.186C110.952 246.064 110.471 245.369 109.316 245.369C107.803 245.369 106.614 246.554 106.614 248.736C106.614 250.892 107.769 252.115 109.311 252.115ZM109.742 250.849C108.723 250.849 108.186 249.955 108.186 248.727C108.186 247.509 108.715 246.635 109.742 246.635C110.735 246.635 111.28 247.457 111.28 248.727C111.28 249.997 110.726 250.849 109.742 250.849ZM117.339 252.128C118.864 252.128 119.913 251.382 120.185 250.244L118.745 250.082C118.536 250.636 118.025 250.926 117.36 250.926C116.363 250.926 115.702 250.27 115.69 249.149H120.249V248.676C120.249 246.379 118.869 245.369 117.258 245.369C115.383 245.369 114.16 246.746 114.16 248.766C114.16 250.82 115.366 252.128 117.339 252.128ZM115.694 248.109C115.741 247.274 116.359 246.571 117.279 246.571C118.165 246.571 118.762 247.219 118.771 248.109H115.694ZM126.728 247.185C126.515 246.077 125.628 245.369 124.094 245.369C122.517 245.369 121.444 246.145 121.448 247.355C121.444 248.31 122.032 248.94 123.289 249.2L124.405 249.435C125.006 249.567 125.287 249.81 125.287 250.18C125.287 250.628 124.801 250.964 124.069 250.964C123.361 250.964 122.901 250.658 122.769 250.07L121.265 250.214C121.456 251.416 122.466 252.128 124.073 252.128C125.709 252.128 126.864 251.28 126.868 250.04C126.864 249.107 126.263 248.536 125.027 248.267L123.911 248.028C123.246 247.879 122.982 247.649 122.986 247.27C122.982 246.827 123.472 246.52 124.115 246.52C124.827 246.52 125.202 246.908 125.321 247.338L126.728 247.185ZM133 252.132C134.027 252.132 134.641 251.651 134.922 251.101H134.973V252H136.456V247.619C136.456 245.889 135.046 245.369 133.797 245.369C132.421 245.369 131.364 245.983 131.023 247.176L132.463 247.381C132.617 246.933 133.051 246.55 133.806 246.55C134.522 246.55 134.914 246.916 134.914 247.56V247.585C134.914 248.028 134.449 248.05 133.294 248.173C132.025 248.31 130.81 248.689 130.81 250.163C130.81 251.45 131.752 252.132 133 252.132ZM133.401 250.999C132.757 250.999 132.297 250.705 132.297 250.138C132.297 249.545 132.813 249.298 133.503 249.2C133.908 249.145 134.718 249.043 134.918 248.881V249.652C134.918 250.381 134.33 250.999 133.401 250.999ZM140.854 254.591C142.623 254.591 143.926 253.781 143.926 252.107V245.455H142.405V246.537H142.32C142.086 246.064 141.596 245.369 140.441 245.369C138.928 245.369 137.739 246.554 137.739 248.706C137.739 250.841 138.928 251.906 140.436 251.906C141.557 251.906 142.081 251.305 142.32 250.824H142.397V252.064C142.397 253.027 141.757 253.423 140.88 253.423C139.951 253.423 139.542 252.984 139.354 252.601L137.965 252.938C138.246 253.854 139.188 254.591 140.854 254.591ZM140.867 250.696C139.848 250.696 139.311 249.903 139.311 248.697C139.311 247.509 139.84 246.635 140.867 246.635C141.86 246.635 142.405 247.457 142.405 248.697C142.405 249.946 141.851 250.696 140.867 250.696ZM148.405 252.128C149.931 252.128 150.979 251.382 151.252 250.244L149.811 250.082C149.603 250.636 149.091 250.926 148.426 250.926C147.429 250.926 146.769 250.27 146.756 249.149H151.316V248.676C151.316 246.379 149.935 245.369 148.324 245.369C146.449 245.369 145.226 246.746 145.226 248.766C145.226 250.82 146.432 252.128 148.405 252.128ZM146.76 248.109C146.807 247.274 147.425 246.571 148.346 246.571C149.232 246.571 149.828 247.219 149.837 248.109H146.76ZM154.163 248.165C154.163 247.219 154.734 246.673 155.548 246.673C156.345 246.673 156.822 247.197 156.822 248.071V252H158.365V247.832C158.369 246.264 157.474 245.369 156.124 245.369C155.143 245.369 154.47 245.838 154.172 246.567H154.095V245.455H152.621V252H154.163V248.165ZM163.202 245.455H161.911V243.886H160.368V245.455H159.439V246.648H160.368V250.287C160.359 251.518 161.254 252.124 162.413 252.089C162.852 252.077 163.155 251.991 163.321 251.936L163.061 250.73C162.976 250.751 162.801 250.79 162.609 250.79C162.222 250.79 161.911 250.653 161.911 250.031V246.648H163.202V245.455ZM169.571 247.185C169.358 246.077 168.472 245.369 166.938 245.369C165.361 245.369 164.287 246.145 164.292 247.355C164.287 248.31 164.875 248.94 166.132 249.2L167.249 249.435C167.85 249.567 168.131 249.81 168.131 250.18C168.131 250.628 167.645 250.964 166.912 250.964C166.205 250.964 165.745 250.658 165.613 250.07L164.108 250.214C164.3 251.416 165.31 252.128 166.917 252.128C168.553 252.128 169.708 251.28 169.712 250.04C169.708 249.107 169.107 248.536 167.871 248.267L166.755 248.028C166.09 247.879 165.826 247.649 165.83 247.27C165.826 246.827 166.316 246.52 166.959 246.52C167.671 246.52 168.046 246.908 168.165 247.338L169.571 247.185Z" fill="#94A3B8"/>
<path d="M75.8608 448H77.4418V444.293H81.0682V442.967H77.4418V440.598H81.4517V439.273H75.8608V448ZM84.6488 448.132C85.6758 448.132 86.2894 447.651 86.5707 447.101H86.6218V448H88.1048V443.619C88.1048 441.889 86.6942 441.369 85.4457 441.369C84.0692 441.369 83.0124 441.983 82.6715 443.176L84.1119 443.381C84.2653 442.933 84.6999 442.55 85.4542 442.55C86.1701 442.55 86.5621 442.916 86.5621 443.56V443.585C86.5621 444.028 86.0977 444.05 84.9428 444.173C83.6729 444.31 82.4585 444.689 82.4585 446.163C82.4585 447.45 83.4002 448.132 84.6488 448.132ZM85.0494 446.999C84.4059 446.999 83.9457 446.705 83.9457 446.138C83.9457 445.545 84.4613 445.298 85.1516 445.2C85.5565 445.145 86.3661 445.043 86.5664 444.881V445.652C86.5664 446.381 85.9783 446.999 85.0494 446.999ZM89.6559 448H91.1985V441.455H89.6559V448ZM90.4315 440.526C90.9215 440.526 91.3221 440.151 91.3221 439.69C91.3221 439.226 90.9215 438.851 90.4315 438.851C89.9371 438.851 89.5366 439.226 89.5366 439.69C89.5366 440.151 89.9371 440.526 90.4315 440.526ZM92.7848 448H94.3274V444.152C94.3274 443.321 94.9538 442.733 95.8018 442.733C96.0618 442.733 96.3857 442.78 96.5178 442.822V441.403C96.3771 441.378 96.1342 441.361 95.9638 441.361C95.2138 441.361 94.5874 441.787 94.3487 442.545H94.2805V441.455H92.7848V448ZM100.171 448.128C101.696 448.128 102.745 447.382 103.017 446.244L101.577 446.082C101.368 446.636 100.857 446.926 100.192 446.926C99.195 446.926 98.5344 446.27 98.5217 445.149H103.081V444.676C103.081 442.379 101.701 441.369 100.09 441.369C98.2148 441.369 96.9918 442.746 96.9918 444.766C96.9918 446.82 98.1978 448.128 100.171 448.128ZM98.5259 444.109C98.5728 443.274 99.1907 442.571 100.111 442.571C100.998 442.571 101.594 443.219 101.603 444.109H98.5259ZM111.535 445.247C111.535 446.244 110.823 446.739 110.141 446.739C109.4 446.739 108.906 446.214 108.906 445.384V441.455H107.363V445.622C107.363 447.195 108.258 448.085 109.545 448.085C110.525 448.085 111.215 447.57 111.513 446.837H111.582V448H113.077V441.455H111.535V445.247ZM116.206 444.165C116.206 443.219 116.777 442.673 117.591 442.673C118.388 442.673 118.865 443.197 118.865 444.071V448H120.408V443.832C120.412 442.264 119.517 441.369 118.167 441.369C117.186 441.369 116.513 441.838 116.215 442.567H116.138V441.455H114.664V448H116.206V444.165ZM128.221 441.455H126.93V439.886H125.387V441.455H124.458V442.648H125.387V446.287C125.379 447.518 126.274 448.124 127.433 448.089C127.872 448.077 128.174 447.991 128.341 447.936L128.081 446.73C127.995 446.751 127.821 446.79 127.629 446.79C127.241 446.79 126.93 446.653 126.93 446.031V442.648H128.221V441.455ZM132.339 448.128C133.864 448.128 134.913 447.382 135.185 446.244L133.745 446.082C133.536 446.636 133.025 446.926 132.36 446.926C131.363 446.926 130.702 446.27 130.69 445.149H135.249V444.676C135.249 442.379 133.869 441.369 132.258 441.369C130.383 441.369 129.16 442.746 129.16 444.766C129.16 446.82 130.366 448.128 132.339 448.128ZM130.694 444.109C130.741 443.274 131.359 442.571 132.279 442.571C133.165 442.571 133.762 443.219 133.771 444.109H130.694ZM141.728 443.185C141.515 442.077 140.628 441.369 139.094 441.369C137.517 441.369 136.444 442.145 136.448 443.355C136.444 444.31 137.032 444.94 138.289 445.2L139.405 445.435C140.006 445.567 140.287 445.81 140.287 446.18C140.287 446.628 139.801 446.964 139.069 446.964C138.361 446.964 137.901 446.658 137.769 446.07L136.265 446.214C136.456 447.416 137.466 448.128 139.073 448.128C140.709 448.128 141.864 447.28 141.868 446.04C141.864 445.107 141.263 444.536 140.027 444.267L138.911 444.028C138.246 443.879 137.982 443.649 137.986 443.27C137.982 442.827 138.472 442.52 139.115 442.52C139.827 442.52 140.202 442.908 140.321 443.338L141.728 443.185ZM146.409 441.455H145.118V439.886H143.575V441.455H142.646V442.648H143.575V446.287C143.566 447.518 144.461 448.124 145.62 448.089C146.059 448.077 146.362 447.991 146.528 447.936L146.268 446.73C146.183 446.751 146.008 446.79 145.816 446.79C145.429 446.79 145.118 446.653 145.118 446.031V442.648H146.409V441.455Z" fill="#94A3B8"/>
<path d="M75.8608 289H81.2855V287.675H77.4418V280.273H75.8608V289ZM82.5895 289H84.1321V282.455H82.5895V289ZM83.3651 281.526C83.8551 281.526 84.2557 281.151 84.2557 280.69C84.2557 280.226 83.8551 279.851 83.3651 279.851C82.8707 279.851 82.4702 280.226 82.4702 280.69C82.4702 281.151 82.8707 281.526 83.3651 281.526ZM90.8917 284.185C90.6786 283.077 89.7923 282.369 88.2582 282.369C86.6815 282.369 85.6076 283.145 85.6119 284.355C85.6076 285.31 86.1957 285.94 87.4528 286.2L88.5692 286.435C89.1701 286.567 89.4513 286.81 89.4513 287.18C89.4513 287.628 88.9656 287.964 88.2326 287.964C87.5252 287.964 87.065 287.658 86.9329 287.07L85.4286 287.214C85.6204 288.416 86.6303 289.128 88.2369 289.128C89.8732 289.128 91.0281 288.28 91.0323 287.04C91.0281 286.107 90.4272 285.536 89.1914 285.267L88.0749 285.028C87.4102 284.879 87.146 284.649 87.1502 284.27C87.146 283.827 87.636 283.52 88.2795 283.52C88.9911 283.52 89.3661 283.908 89.4854 284.338L90.8917 284.185ZM95.5728 282.455H94.2816V280.886H92.739V282.455H91.81V283.648H92.739V287.287C92.7305 288.518 93.6254 289.124 94.7844 289.089C95.2234 289.077 95.5259 288.991 95.6921 288.936L95.4322 287.73C95.3469 287.751 95.1722 287.79 94.9805 287.79C94.5927 287.79 94.2816 287.653 94.2816 287.031V283.648H95.5728V282.455ZM99.6903 289.128C101.216 289.128 102.264 288.382 102.537 287.244L101.097 287.082C100.888 287.636 100.376 287.926 99.7116 287.926C98.7145 287.926 98.054 287.27 98.0412 286.149H102.601V285.676C102.601 283.379 101.22 282.369 99.6094 282.369C97.7344 282.369 96.5114 283.746 96.5114 285.766C96.5114 287.82 97.7173 289.128 99.6903 289.128ZM98.0455 285.109C98.0923 284.274 98.7102 283.571 99.6307 283.571C100.517 283.571 101.114 284.219 101.122 285.109H98.0455ZM109.311 289.115C110.436 289.115 110.944 288.446 111.186 287.969H111.28V289H112.797V280.273H111.25V283.537H111.186C110.952 283.064 110.471 282.369 109.316 282.369C107.803 282.369 106.614 283.554 106.614 285.736C106.614 287.892 107.769 289.115 109.311 289.115ZM109.742 287.849C108.723 287.849 108.186 286.955 108.186 285.727C108.186 284.509 108.715 283.635 109.742 283.635C110.735 283.635 111.28 284.457 111.28 285.727C111.28 286.997 110.726 287.849 109.742 287.849ZM117.339 289.128C118.864 289.128 119.913 288.382 120.185 287.244L118.745 287.082C118.536 287.636 118.025 287.926 117.36 287.926C116.363 287.926 115.702 287.27 115.69 286.149H120.249V285.676C120.249 283.379 118.869 282.369 117.258 282.369C115.383 282.369 114.16 283.746 114.16 285.766C114.16 287.82 115.366 289.128 117.339 289.128ZM115.694 285.109C115.741 284.274 116.359 283.571 117.279 283.571C118.165 283.571 118.762 284.219 118.771 285.109H115.694ZM126.728 284.185C126.515 283.077 125.628 282.369 124.094 282.369C122.517 282.369 121.444 283.145 121.448 284.355C121.444 285.31 122.032 285.94 123.289 286.2L124.405 286.435C125.006 286.567 125.287 286.81 125.287 287.18C125.287 287.628 124.801 287.964 124.069 287.964C123.361 287.964 122.901 287.658 122.769 287.07L121.265 287.214C121.456 288.416 122.466 289.128 124.073 289.128C125.709 289.128 126.864 288.28 126.868 287.04C126.864 286.107 126.263 285.536 125.027 285.267L123.911 285.028C123.246 284.879 122.982 284.649 122.986 284.27C122.982 283.827 123.472 283.52 124.115 283.52C124.827 283.52 125.202 283.908 125.321 284.338L126.728 284.185ZM134.015 289.128C135.54 289.128 136.588 288.382 136.861 287.244L135.421 287.082C135.212 287.636 134.701 287.926 134.036 287.926C133.039 287.926 132.378 287.27 132.365 286.149H136.925V285.676C136.925 283.379 135.544 282.369 133.934 282.369C132.059 282.369 130.836 283.746 130.836 285.766C130.836 287.82 132.042 289.128 134.015 289.128ZM132.37 285.109C132.417 284.274 133.034 283.571 133.955 283.571C134.841 283.571 135.438 284.219 135.446 285.109H132.37ZM133.299 281.594H134.453L135.762 279.646H134.253L133.299 281.594ZM144.141 291.455V282.455H142.624V283.537H142.534C142.3 283.064 141.818 282.369 140.663 282.369C139.151 282.369 137.962 283.554 137.962 285.736C137.962 287.892 139.116 289.115 140.659 289.115C141.784 289.115 142.291 288.446 142.534 287.969H142.598V291.455H144.141ZM142.628 285.727C142.628 286.997 142.074 287.849 141.089 287.849C140.071 287.849 139.534 286.955 139.534 285.727C139.534 284.509 140.062 283.635 141.089 283.635C142.082 283.635 142.628 284.457 142.628 285.727ZM149.902 286.247C149.902 287.244 149.19 287.739 148.509 287.739C147.767 287.739 147.273 287.214 147.273 286.384V282.455H145.73V286.622C145.73 288.195 146.625 289.085 147.912 289.085C148.892 289.085 149.582 288.57 149.881 287.837H149.949V289H151.445V282.455H149.902V286.247ZM153.031 289H154.574V282.455H153.031V289ZM153.806 281.526C154.297 281.526 154.697 281.151 154.697 280.69C154.697 280.226 154.297 279.851 153.806 279.851C153.312 279.851 152.912 280.226 152.912 280.69C152.912 281.151 153.312 281.526 153.806 281.526ZM156.16 291.455H157.702V287.969H157.766C158.009 288.446 158.516 289.115 159.641 289.115C161.184 289.115 162.339 287.892 162.339 285.736C162.339 283.554 161.15 282.369 159.637 282.369C158.482 282.369 158.001 283.064 157.766 283.537H157.677V282.455H156.16V291.455ZM157.673 285.727C157.673 284.457 158.218 283.635 159.211 283.635C160.238 283.635 160.766 284.509 160.766 285.727C160.766 286.955 160.229 287.849 159.211 287.849C158.227 287.849 157.673 286.997 157.673 285.727ZM166.558 289.128C168.083 289.128 169.131 288.382 169.404 287.244L167.964 287.082C167.755 287.636 167.244 287.926 166.579 287.926C165.582 287.926 164.921 287.27 164.908 286.149H169.468V285.676C169.468 283.379 168.087 282.369 166.477 282.369C164.602 282.369 163.379 283.746 163.379 285.766C163.379 287.82 164.585 289.128 166.558 289.128ZM164.913 285.109C164.96 284.274 165.577 283.571 166.498 283.571C167.384 283.571 167.981 284.219 167.989 285.109H164.913ZM175.946 284.185C175.733 283.077 174.847 282.369 173.313 282.369C171.736 282.369 170.662 283.145 170.667 284.355C170.662 285.31 171.25 285.94 172.507 286.2L173.624 286.435C174.225 286.567 174.506 286.81 174.506 287.18C174.506 287.628 174.02 287.964 173.287 287.964C172.58 287.964 172.12 287.658 171.988 287.07L170.483 287.214C170.675 288.416 171.685 289.128 173.292 289.128C174.928 289.128 176.083 288.28 176.087 287.04C176.083 286.107 175.482 285.536 174.246 285.267L173.13 285.028C172.465 284.879 172.201 284.649 172.205 284.27C172.201 283.827 172.691 283.52 173.334 283.52C174.046 283.52 174.421 283.908 174.54 284.338L175.946 284.185Z" fill="#94A3B8"/>
<path d="M80.6037 473.672H82.125C82.0952 472.197 80.8381 471.153 78.9801 471.153C77.1477 471.153 75.7713 472.185 75.7756 473.727C75.7756 474.98 76.6662 475.7 78.1023 476.071L79.0952 476.327C80.0369 476.565 80.6591 476.859 80.6634 477.537C80.6591 478.283 79.9517 478.781 78.9205 478.781C77.9318 478.781 77.1648 478.338 77.1009 477.422H75.5455C75.6094 479.156 76.9006 480.132 78.9332 480.132C81.0256 480.132 82.2401 479.088 82.2443 477.55C82.2401 476.037 80.9915 475.347 79.679 475.036L78.8608 474.831C78.1449 474.661 77.3693 474.358 77.3778 473.629C77.3821 472.973 77.9702 472.491 78.9588 472.491C79.9006 472.491 80.5227 472.93 80.6037 473.672ZM86.854 473.455H85.5629V471.886H84.0202V473.455H83.0913V474.648H84.0202V478.287C84.0117 479.518 84.9066 480.124 86.0657 480.089C86.5046 480.077 86.8072 479.991 86.9734 479.936L86.7134 478.73C86.6282 478.751 86.4535 478.79 86.2617 478.79C85.8739 478.79 85.5629 478.653 85.5629 478.031V474.648H86.854V473.455ZM90.0277 480.132C91.0547 480.132 91.6683 479.651 91.9496 479.101H92.0007V480H93.4837V475.619C93.4837 473.889 92.0732 473.369 90.8246 473.369C89.4482 473.369 88.3913 473.983 88.0504 475.176L89.4908 475.381C89.6442 474.933 90.0788 474.55 90.8331 474.55C91.549 474.55 91.9411 474.916 91.9411 475.56V475.585C91.9411 476.028 91.4766 476.05 90.3217 476.173C89.0518 476.31 87.8374 476.689 87.8374 478.163C87.8374 479.45 88.7791 480.132 90.0277 480.132ZM90.4283 478.999C89.7848 478.999 89.3246 478.705 89.3246 478.138C89.3246 477.545 89.8402 477.298 90.5305 477.2C90.9354 477.145 91.745 477.043 91.9453 476.881V477.652C91.9453 478.381 91.3572 478.999 90.4283 478.999ZM98.3033 473.455H97.0121V471.886H95.4695V473.455H94.5405V474.648H95.4695V478.287C95.4609 479.518 96.3558 480.124 97.5149 480.089C97.9538 480.077 98.2564 479.991 98.4226 479.936L98.1626 478.73C98.0774 478.751 97.9027 478.79 97.7109 478.79C97.3232 478.79 97.0121 478.653 97.0121 478.031V474.648H98.3033V473.455ZM99.5934 480H101.136V473.455H99.5934V480ZM100.369 472.526C100.859 472.526 101.26 472.151 101.26 471.69C101.26 471.226 100.859 470.851 100.369 470.851C99.8746 470.851 99.4741 471.226 99.4741 471.69C99.4741 472.151 99.8746 472.526 100.369 472.526ZM107.896 475.185C107.683 474.077 106.796 473.369 105.262 473.369C103.685 473.369 102.612 474.145 102.616 475.355C102.612 476.31 103.2 476.94 104.457 477.2L105.573 477.435C106.174 477.567 106.455 477.81 106.455 478.18C106.455 478.628 105.969 478.964 105.237 478.964C104.529 478.964 104.069 478.658 103.937 478.07L102.433 478.214C102.624 479.416 103.634 480.128 105.241 480.128C106.877 480.128 108.032 479.28 108.036 478.04C108.032 477.107 107.431 476.536 106.195 476.267L105.079 476.028C104.414 475.879 104.15 475.649 104.154 475.27C104.15 474.827 104.64 474.52 105.283 474.52C105.995 474.52 106.37 474.908 106.489 475.338L107.896 475.185ZM112.577 473.455H111.286V471.886H109.743V473.455H108.814V474.648H109.743V478.287C109.734 479.518 110.629 480.124 111.788 480.089C112.227 480.077 112.53 479.991 112.696 479.936L112.436 478.73C112.351 478.751 112.176 478.79 111.984 478.79C111.597 478.79 111.286 478.653 111.286 478.031V474.648H112.577V473.455ZM113.867 480H115.409V473.455H113.867V480ZM114.642 472.526C115.132 472.526 115.533 472.151 115.533 471.69C115.533 471.226 115.132 470.851 114.642 470.851C114.148 470.851 113.748 471.226 113.748 471.69C113.748 472.151 114.148 472.526 114.642 472.526ZM122.906 482.455V473.455H121.389V474.537H121.3C121.065 474.064 120.584 473.369 119.429 473.369C117.916 473.369 116.727 474.554 116.727 476.736C116.727 478.892 117.882 480.115 119.425 480.115C120.55 480.115 121.057 479.446 121.3 478.969H121.364V482.455H122.906ZM121.393 476.727C121.393 477.997 120.839 478.849 119.855 478.849C118.837 478.849 118.3 477.955 118.3 476.727C118.3 475.509 118.828 474.635 119.855 474.635C120.848 474.635 121.393 475.457 121.393 476.727ZM128.668 477.247C128.668 478.244 127.956 478.739 127.274 478.739C126.533 478.739 126.038 478.214 126.038 477.384V473.455H124.496V477.622C124.496 479.195 125.391 480.085 126.678 480.085C127.658 480.085 128.348 479.57 128.646 478.837H128.714V480H130.21V473.455H128.668V477.247ZM134.694 480.128C136.22 480.128 137.268 479.382 137.541 478.244L136.1 478.082C135.892 478.636 135.38 478.926 134.716 478.926C133.718 478.926 133.058 478.27 133.045 477.149H137.605V476.676C137.605 474.379 136.224 473.369 134.613 473.369C132.738 473.369 131.515 474.746 131.515 476.766C131.515 478.82 132.721 480.128 134.694 480.128ZM133.049 476.109C133.096 475.274 133.714 474.571 134.635 474.571C135.521 474.571 136.118 475.219 136.126 476.109H133.049ZM144.083 475.185C143.87 474.077 142.984 473.369 141.45 473.369C139.873 473.369 138.799 474.145 138.803 475.355C138.799 476.31 139.387 476.94 140.644 477.2L141.761 477.435C142.362 477.567 142.643 477.81 142.643 478.18C142.643 478.628 142.157 478.964 141.424 478.964C140.717 478.964 140.256 478.658 140.124 478.07L138.62 478.214C138.812 479.416 139.822 480.128 141.428 480.128C143.065 480.128 144.219 479.28 144.224 478.04C144.219 477.107 143.619 476.536 142.383 476.267L141.266 476.028C140.602 475.879 140.337 475.649 140.342 475.27C140.337 474.827 140.827 474.52 141.471 474.52C142.183 474.52 142.558 474.908 142.677 475.338L144.083 475.185Z" fill="#94A3B8"/>
<rect x="25" y="345" width="219" height="42" rx="6" fill="#303D53"/>
<path d="M219.41 369.41L224 364.83L228.59 369.41L230 368L224 362L218 368L219.41 369.41Z" fill="white"/>
<circle cx="233.5" cy="345.5" r="7.5" fill="#D65252"/>
<path d="M234.244 342.455H233.116L231.489 343.5V344.586L233.02 343.608H233.058V349H234.244V342.455Z" fill="white"/>
<g clip-path="url(#clip3_9_9)">
<path d="M57 364C57 364.67 57 365.33 57 366C58.2 366 59.76 366 61 366C61 365.33 61 364.67 61 364C59.76 364 58.2 364 57 364Z" fill="white"/>
<path d="M55 370.61C55.96 371.32 57.21 372.26 58.2 373C58.6 372.47 59 371.93 59.4 371.4C58.41 370.66 57.16 369.72 56.2 369C55.8 369.54 55.4 370.08 55 370.61Z" fill="white"/>
<path d="M59.4 358.6C59 358.07 58.6 357.53 58.2 357C57.21 357.74 55.96 358.68 55 359.4C55.4 359.93 55.8 360.47 56.2 361C57.16 360.28 58.41 359.35 59.4 358.6Z" fill="white"/>
<path d="M43 362C41.9 362 41 362.9 41 364V366C41 367.1 41.9 368 43 368H44V372H46V368H47L52 371V359L47 362H43ZM48.03 363.71L50 362.53V367.47L48.03 366.29L47.55 366H47H43V364H47H47.55L48.03 363.71Z" fill="white"/>
<path d="M54.5 365C54.5 363.67 53.92 362.47 53 361.65V368.34C53.92 367.53 54.5 366.33 54.5 365Z" fill="white"/>
</g>
<path d="M84.7074 364.06H86.3182C86.0497 362.347 84.5668 361.153 82.6364 361.153C80.3523 361.153 78.6392 362.832 78.6392 365.645C78.6392 368.406 80.2756 370.119 82.6832 370.119C84.8438 370.119 86.3906 368.73 86.3906 366.48V365.432H82.8494V366.668H84.8608C84.8352 367.912 84.0043 368.7 82.6918 368.7C81.2301 368.7 80.2287 367.605 80.2287 365.628C80.2287 363.663 81.2472 362.572 82.6577 362.572C83.7102 362.572 84.4261 363.135 84.7074 364.06ZM90.7489 370.128C92.2745 370.128 93.3228 369.382 93.5955 368.244L92.1552 368.082C91.9464 368.636 91.435 368.926 90.7702 368.926C89.7731 368.926 89.1126 368.27 89.0998 367.149H93.6594V366.676C93.6594 364.379 92.2788 363.369 90.668 363.369C88.793 363.369 87.57 364.746 87.57 366.766C87.57 368.82 88.7759 370.128 90.7489 370.128ZM89.104 366.109C89.1509 365.274 89.7688 364.571 90.6893 364.571C91.5756 364.571 92.1722 365.219 92.1808 366.109H89.104ZM100.138 365.185C99.9247 364.077 99.0384 363.369 97.5043 363.369C95.9276 363.369 94.8537 364.145 94.858 365.355C94.8537 366.31 95.4418 366.94 96.6989 367.2L97.8153 367.435C98.4162 367.567 98.6974 367.81 98.6974 368.18C98.6974 368.628 98.2116 368.964 97.4787 368.964C96.7713 368.964 96.3111 368.658 96.179 368.07L94.6747 368.214C94.8665 369.416 95.8764 370.128 97.483 370.128C99.1193 370.128 100.274 369.28 100.278 368.04C100.274 367.107 99.6733 366.536 98.4375 366.267L97.321 366.028C96.6562 365.879 96.392 365.649 96.3963 365.27C96.392 364.827 96.8821 364.52 97.5256 364.52C98.2372 364.52 98.6122 364.908 98.7315 365.338L100.138 365.185ZM104.819 363.455H103.528V361.886H101.985V363.455H101.056V364.648H101.985V368.287C101.977 369.518 102.871 370.124 104.031 370.089C104.469 370.077 104.772 369.991 104.938 369.936L104.678 368.73C104.593 368.751 104.418 368.79 104.227 368.79C103.839 368.79 103.528 368.653 103.528 368.031V364.648H104.819V363.455ZM106.109 370H107.652V363.455H106.109V370ZM106.885 362.526C107.375 362.526 107.775 362.151 107.775 361.69C107.775 361.226 107.375 360.851 106.885 360.851C106.39 360.851 105.99 361.226 105.99 361.69C105.99 362.151 106.39 362.526 106.885 362.526ZM112.093 370.128C114.011 370.128 115.229 368.777 115.229 366.753C115.229 364.724 114.011 363.369 112.093 363.369C110.175 363.369 108.957 364.724 108.957 366.753C108.957 368.777 110.175 370.128 112.093 370.128ZM112.102 368.892C111.04 368.892 110.521 367.946 110.521 366.749C110.521 365.551 111.04 364.592 112.102 364.592C113.146 364.592 113.665 365.551 113.665 366.749C113.665 367.946 113.146 368.892 112.102 368.892ZM118.081 366.165C118.081 365.219 118.652 364.673 119.466 364.673C120.263 364.673 120.74 365.197 120.74 366.071V370H122.283V365.832C122.287 364.264 121.392 363.369 120.042 363.369C119.061 363.369 118.388 363.838 118.09 364.567H118.013V363.455H116.539V370H118.081V366.165ZM128.711 370.132C129.738 370.132 130.352 369.651 130.633 369.101H130.684V370H132.167V365.619C132.167 363.889 130.757 363.369 129.508 363.369C128.132 363.369 127.075 363.983 126.734 365.176L128.174 365.381C128.328 364.933 128.762 364.55 129.517 364.55C130.233 364.55 130.625 364.916 130.625 365.56V365.585C130.625 366.028 130.16 366.05 129.005 366.173C127.735 366.31 126.521 366.689 126.521 368.163C126.521 369.45 127.463 370.132 128.711 370.132ZM129.112 368.999C128.468 368.999 128.008 368.705 128.008 368.138C128.008 367.545 128.524 367.298 129.214 367.2C129.619 367.145 130.429 367.043 130.629 366.881V367.652C130.629 368.381 130.041 368.999 129.112 368.999ZM135.261 361.273H133.718V370H135.261V361.273ZM139.745 370.128C141.271 370.128 142.319 369.382 142.592 368.244L141.151 368.082C140.942 368.636 140.431 368.926 139.766 368.926C138.769 368.926 138.109 368.27 138.096 367.149H142.656V366.676C142.656 364.379 141.275 363.369 139.664 363.369C137.789 363.369 136.566 364.746 136.566 366.766C136.566 368.82 137.772 370.128 139.745 370.128ZM138.1 366.109C138.147 365.274 138.765 364.571 139.685 364.571C140.572 364.571 141.168 365.219 141.177 366.109H138.1ZM143.961 370H145.503V366.152C145.503 365.321 146.13 364.733 146.978 364.733C147.238 364.733 147.561 364.78 147.694 364.822V363.403C147.553 363.378 147.31 363.361 147.14 363.361C146.39 363.361 145.763 363.787 145.525 364.545H145.456V363.455H143.961V370ZM152.338 363.455H151.047V361.886H149.505V363.455H148.576V364.648H149.505V368.287C149.496 369.518 150.391 370.124 151.55 370.089C151.989 370.077 152.292 369.991 152.458 369.936L152.198 368.73C152.113 368.751 151.938 368.79 151.746 368.79C151.358 368.79 151.047 368.653 151.047 368.031V364.648H152.338V363.455ZM156.456 370.128C157.982 370.128 159.03 369.382 159.303 368.244L157.862 368.082C157.653 368.636 157.142 368.926 156.477 368.926C155.48 368.926 154.82 368.27 154.807 367.149H159.366V366.676C159.366 364.379 157.986 363.369 156.375 363.369C154.5 363.369 153.277 364.746 153.277 366.766C153.277 368.82 154.483 370.128 156.456 370.128ZM154.811 366.109C154.858 365.274 155.476 364.571 156.396 364.571C157.283 364.571 157.879 365.219 157.888 366.109H154.811ZM165.845 365.185C165.632 364.077 164.745 363.369 163.211 363.369C161.635 363.369 160.561 364.145 160.565 365.355C160.561 366.31 161.149 366.94 162.406 367.2L163.522 367.435C164.123 367.567 164.404 367.81 164.404 368.18C164.404 368.628 163.919 368.964 163.186 368.964C162.478 368.964 162.018 368.658 161.886 368.07L160.382 368.214C160.574 369.416 161.583 370.128 163.19 370.128C164.826 370.128 165.981 369.28 165.985 368.04C165.981 367.107 165.38 366.536 164.145 366.267L163.028 366.028C162.363 365.879 162.099 365.649 162.103 365.27C162.099 364.827 162.589 364.52 163.233 364.52C163.944 364.52 164.319 364.908 164.439 365.338L165.845 365.185Z" fill="white"/>
<circle cx="233.5" cy="177.5" r="7.5" fill="#D69152"/>
<path d="M231.582 180H236.069V179.009H233.218V178.964L234.346 177.817C235.618 176.596 235.97 176.002 235.97 175.263C235.97 174.167 235.078 173.365 233.761 173.365C232.464 173.365 231.543 174.17 231.543 175.414H232.672C232.672 174.746 233.093 174.327 233.745 174.327C234.369 174.327 234.832 174.707 234.832 175.324C234.832 175.871 234.5 176.261 233.854 176.916L231.582 179.143V180Z" fill="white"/>
<defs>
<clipPath id="clip0_9_9">
<rect width="30" height="30" fill="white" transform="translate(1077 105)"/>
</clipPath>
<clipPath id="clip1_9_9">
<rect width="43" height="41.5069" fill="white" transform="translate(44 70)"/>
</clipPath>
<clipPath id="clip2_9_9">
<rect width="24" height="24" fill="white" transform="translate(39 186)"/>
</clipPath>
<clipPath id="clip3_9_9">
<rect width="24" height="24" fill="white" transform="translate(39 353)"/>
</clipPath>
</defs>
</svg>
